<?xml version="1.0" encoding="utf-8"?><svg viewBox="0 0 139 65" xmlns="http://www.w3.org/2000/svg" xmlns:xlink="http://www.w3.org/1999/xlink"><style>:root>svg{display:none}:root>svg:target{display:block}</style><svg fill="none" viewBox="0 0 139 65" id="logo-icon" xmlns="http://www.w3.org/2000/svg"><path d="M10.227 49.455v3.181H3.95V64H0V49.455h10.227zM11.7 64V49.455h6.278c1.08 0 2.024.212 2.833.639a4.639 4.639 0 011.89 1.797c.45.771.674 1.673.674 2.706 0 1.041-.232 1.943-.696 2.706a4.573 4.573 0 01-1.939 1.76c-.828.413-1.796.619-2.904.619h-3.75v-3.068h2.954c.464 0 .86-.08 1.186-.242.332-.166.585-.4.76-.703.18-.303.27-.66.27-1.072 0-.417-.09-.772-.27-1.066a1.693 1.693 0 00-.76-.682c-.326-.16-.722-.241-1.186-.241h-1.392V64H11.7zm27.215-7.273c0 1.62-.315 2.986-.944 4.098-.63 1.108-1.48 1.949-2.55 2.521-1.07.569-2.263.853-3.58.853-1.326 0-2.523-.287-3.594-.86-1.065-.577-1.912-1.42-2.542-2.528-.625-1.113-.938-2.474-.938-4.084 0-1.62.313-2.983.938-4.09.63-1.113 1.477-1.954 2.543-2.522 1.07-.573 2.267-.86 3.593-.86 1.317 0 2.51.287 3.58.86 1.07.568 1.92 1.409 2.55 2.521.63 1.108.944 2.472.944 4.091zm-4.062 0c0-.871-.116-1.605-.348-2.201-.228-.602-.566-1.056-1.016-1.364-.445-.313-.994-.469-1.648-.469-.653 0-1.205.156-1.655.469-.445.308-.783.762-1.015 1.364-.227.596-.341 1.33-.341 2.201s.114 1.608.34 2.209c.233.597.571 1.051 1.016 1.364.45.307 1.002.461 1.655.461.654 0 1.203-.154 1.648-.461.45-.313.788-.767 1.016-1.364.232-.601.348-1.338.348-2.209zm19.469-1.818h-4.006a2.72 2.72 0 00-.227-.902 2.037 2.037 0 00-.497-.696 2.072 2.072 0 00-.76-.455 2.949 2.949 0 00-1.016-.163c-.663 0-1.224.161-1.683.483-.455.322-.8.784-1.037 1.385-.232.601-.348 1.323-.348 2.166 0 .89.118 1.636.355 2.237.241.597.59 1.047 1.044 1.35.455.298 1.001.447 1.64.447.365 0 .692-.045.98-.135a2.3 2.3 0 00.754-.404c.213-.176.386-.386.518-.633.137-.25.23-.532.277-.845l4.006.029a5.428 5.428 0 01-.519 1.882 6.12 6.12 0 01-1.271 1.761c-.544.535-1.22.966-2.024 1.293-.805.326-1.74.49-2.806.49-1.335 0-2.533-.287-3.593-.86-1.056-.572-1.892-1.415-2.507-2.528-.611-1.113-.917-2.474-.917-4.084 0-1.62.313-2.983.938-4.09.625-1.113 1.468-1.954 2.528-2.522 1.06-.573 2.245-.86 3.551-.86.919 0 1.764.126 2.536.377a6.101 6.101 0 012.031 1.1 5.436 5.436 0 011.406 1.77c.356.7.571 1.503.647 2.407zm15.371 0h-4.006a2.717 2.717 0 00-.227-.902 2.037 2.037 0 00-.497-.696 2.072 2.072 0 00-.76-.455 2.95 2.95 0 00-1.016-.163c-.663 0-1.224.161-1.683.483-.455.322-.8.784-1.037 1.385-.232.601-.348 1.323-.348 2.166 0 .89.118 1.636.355 2.237.242.597.59 1.047 1.044 1.35.455.298 1.002.447 1.64.447.365 0 .692-.045.98-.135a2.3 2.3 0 00.754-.404c.213-.176.386-.386.518-.633.138-.25.23-.532.277-.845l4.006.029a5.428 5.428 0 01-.519 1.882 6.12 6.12 0 01-1.27 1.761c-.545.535-1.22.966-2.025 1.293-.805.326-1.74.49-2.806.49-1.335 0-2.533-.287-3.593-.86-1.056-.572-1.892-1.415-2.507-2.528-.611-1.113-.916-2.474-.916-4.084 0-1.62.312-2.983.937-4.09.625-1.113 1.468-1.954 2.528-2.522 1.061-.573 2.245-.86 3.552-.86a8.16 8.16 0 012.535.377 6.101 6.101 0 012.031 1.1 5.436 5.436 0 011.406 1.77c.356.7.571 1.503.647 2.407zm23.112-5.454V64h-3.892V52.58H84V64h-3.892V49.455h12.698zM99.11 64h-4.26l4.8-14.545h5.398L109.849 64h-4.261l-3.182-10.54h-.114L99.11 64zm-.795-5.739h8.011v2.955h-8.011V58.26zM111.25 64V49.455h6.278c1.08 0 2.025.212 2.834.639a4.631 4.631 0 011.889 1.797c.45.771.675 1.673.675 2.706 0 1.041-.232 1.943-.696 2.706a4.568 4.568 0 01-1.939 1.76c-.828.413-1.797.619-2.905.619h-3.75v-3.068h2.955c.464 0 .859-.08 1.186-.242.331-.166.585-.4.76-.703.18-.303.27-.66.27-1.072 0-.417-.09-.772-.27-1.066a1.694 1.694 0 00-.76-.682c-.327-.16-.722-.241-1.186-.241h-1.392V64h-3.949zm22.088 0l-4.46-5.88h-.554V64h-3.949V49.455h3.949v5.482h.511l4.176-5.482h4.972l-5.54 6.988L138.295 64h-4.957z" fill="#fff"/><path d="M84.063 18c0-8.284-7.612-15-17-15-9.39 0-17 6.716-17 15" stroke="#035EA1" stroke-width="5"/><path d="M50.063 26c0 8.284 7.61 15 17 15 9.388 0 17-6.716 17-15" stroke="#DA4525" stroke-width="5"/><path fill-rule="evenodd" clip-rule="evenodd" d="M57.813 18l-1.25-4-1.5 8h35.525l.474-4h-33.25z" fill="#035EA1"/><path fill-rule="evenodd" clip-rule="evenodd" d="M76.313 28l1.25 4 1.5-8H43.535l-.474 4h33.25z" fill="#DA4525"/></svg><svg fill="none" viewBox="0 0 28 28" id="phone-icon" xmlns="http://www.w3.org/2000/svg"><g clip-path="url(#ba)"><path d="M21.287 18.523c-.914-.904-2.056-.904-2.965 0-.694.687-1.387 1.375-2.069 2.074-.186.192-.344.233-.57.105-.45-.245-.927-.443-1.358-.711-2.01-1.264-3.694-2.89-5.186-4.72-.74-.909-1.398-1.882-1.859-2.977-.093-.221-.075-.367.105-.548.694-.67 1.37-1.357 2.051-2.045.95-.955.95-2.074-.006-3.035-.541-.548-1.083-1.084-1.625-1.632-.56-.56-1.113-1.124-1.678-1.678-.915-.891-2.057-.891-2.966.006-.7.687-1.37 1.392-2.08 2.068-.658.624-.99 1.387-1.06 2.279-.111 1.45.244 2.82.745 4.154 1.026 2.762 2.587 5.215 4.48 7.464 2.559 3.041 5.612 5.447 9.184 7.184 1.608.78 3.274 1.38 5.086 1.48 1.247.07 2.33-.245 3.199-1.218.594-.664 1.264-1.27 1.893-1.905.933-.944.939-2.086.012-3.018a893.48 893.48 0 00-3.333-3.327zm-1.113-4.644l2.15-.367a9.61 9.61 0 00-2.686-5.186 9.558 9.558 0 00-5.477-2.733l-.302 2.162A7.415 7.415 0 0118.1 9.87a7.414 7.414 0 012.074 4.009zm3.362-9.346A15.853 15.853 0 0014.447 0l-.303 2.162a13.75 13.75 0 017.854 3.915 13.735 13.735 0 013.852 7.429l2.15-.367a15.97 15.97 0 00-4.464-8.606z" fill="#303030"/></g><defs><clipPath id="ba"><path fill="#fff" d="M0 0h28v28H0z"/></clipPath></defs></svg><svg fill="none" viewBox="0 0 24 25" id="socials-1-icon" xmlns="http://www.w3.org/2000/svg"><g clip-path="url(#ca)"><path d="M20.503 3.51A11.839 11.839 0 0012.048 0C5.463 0 .096 5.367.096 11.952c0 2.11.555 4.16 1.592 5.97L0 24.12l6.332-1.665a11.954 11.954 0 005.716 1.46C18.633 23.916 24 18.549 24 11.964c0-3.196-1.242-6.2-3.497-8.454zm-8.455 18.38a9.964 9.964 0 01-5.065-1.387l-.362-.218-3.763.99 1.001-3.667-.24-.374a9.966 9.966 0 01-1.52-5.282c0-5.476 4.462-9.938 9.937-9.938a9.833 9.833 0 017.02 2.919 9.869 9.869 0 012.906 7.03c.024 5.476-4.438 9.927-9.914 9.927zm5.452-7.43c-.302-.144-1.773-.868-2.039-.977-.277-.096-.47-.144-.675.145-.205.302-.772.977-.94 1.17-.17.205-.35.23-.652.072-.302-.144-1.266-.47-2.4-1.483-.892-.796-1.483-1.773-1.664-2.074-.17-.302-.024-.459.132-.615.133-.133.302-.35.447-.519.144-.169.205-.302.301-.495.097-.205.048-.373-.024-.518a99.269 99.269 0 01-.917-2.22c-.24-.578-.494-.506-.675-.518h-.579c-.205 0-.519.073-.796.374-.265.302-1.037 1.025-1.037 2.497 0 1.47 1.073 2.894 1.218 3.087.145.205 2.11 3.22 5.102 4.51.711.314 1.266.495 1.7.628.712.229 1.363.193 1.881.12.58-.084 1.773-.723 2.015-1.423.253-.7.253-1.29.168-1.423-.084-.133-.265-.193-.566-.338z" fill="#fff"/></g><defs><clipPath id="ca"><path fill="#fff" d="M0 0h24v25H0z"/></clipPath></defs></svg><svg fill="none" viewBox="0 0 24 21" id="socials-2-icon" xmlns="http://www.w3.org/2000/svg"><g clip-path="url(#da)"><path d="M22.38.132L1.12 8.33c-1.45.583-1.442 1.392-.266 1.753l5.459 1.703L18.94 3.818c.597-.363 1.143-.168.694.23l-10.23 9.235H9.4h.003l-.377 5.627c.552 0 .795-.253 1.105-.552l2.65-2.578 5.515 4.073c1.017.56 1.747.272 2-.94l3.62-17.061c.37-1.486-.567-2.159-1.537-1.72z" fill="#fff"/></g><defs><clipPath id="da"><path fill="#fff" d="M0 0h24v21H0z"/></clipPath></defs></svg><svg fill="none" viewBox="0 0 24 15" id="socials-3-icon" xmlns="http://www.w3.org/2000/svg"><g clip-path="url(#ea)"><path d="M23.45.965c.167-.557 0-.965-.793-.965H20.03c-.668 0-.973.353-1.141.741 0 0-1.335 3.257-3.228 5.368-.61.615-.89.809-1.223.809-.166 0-.408-.194-.408-.751V.965c0-.668-.193-.965-.75-.965H9.153c-.417 0-.669.309-.669.604 0 .632.947.778 1.044 2.56V7.03c0 .847-.152 1.002-.488 1.002-.89 0-3.055-3.269-4.34-7.01C4.45.295 4.197.002 3.526.002H.901C.15.001 0 .354 0 .741 0 1.44.89 4.89 4.145 9.452c2.17 3.115 5.226 4.804 8.01 4.804 1.668 0 1.874-.375 1.874-1.022V10.88c0-.75.159-.901.687-.901.388 0 1.057.196 2.615 1.697 1.78 1.78 2.074 2.579 3.074 2.579h2.625c.75 0 1.125-.375.91-1.115-.236-.737-1.087-1.809-2.215-3.077-.613-.724-1.53-1.502-1.809-1.891-.389-.502-.276-.724 0-1.17 0 0 3.2-4.504 3.534-6.036z" fill="#fff"/></g><defs><clipPath id="ea"><path fill="#fff" d="M0 0h24v15H0z"/></clipPath></defs></svg></svg>