<?xml version="1.0" encoding="utf-8"?><svg viewBox="0 0 139 65" xmlns="http://www.w3.org/2000/svg" xmlns:xlink="http://www.w3.org/1999/xlink"><style>:root>svg{display:none}:root>svg:target{display:block}</style><svg fill="none" viewBox="0 0 32 32" id="catalogue-aside-1-icon" xmlns="http://www.w3.org/2000/svg"><g clip-path="url(#aa)" fill="#303030"><path d="M31.563 9.004h-3.236L11.533 2.88V.438A.437.437 0 0011.096 0H8.533a.438.438 0 00-.437.438V2.75H4.782a.438.438 0 00-.342.164L1.938 6.041a.438.438 0 00-.096.273v2.69H.437A.438.438 0 000 9.44v2.563a.438.438 0 00.438.437h5.441v15.93h-2.94a.438.438 0 00-.437.438v2.754a.438.438 0 00.438.437h13.75a.438.438 0 00.437-.437v-2.755a.438.438 0 00-.438-.437H13.75V12.441h11.531v6.871a.438.438 0 00.438.438h1.343v2.375a.438.438 0 00.438.438h.117a.852.852 0 010 1.703h-.998a.855.855 0 01-.8-.558l-.534-1.453a.437.437 0 10-.821.302l.533 1.453a1.734 1.734 0 001.621 1.13h.999a1.727 1.727 0 00.32-3.423V19.75h1.344a.438.438 0 00.437-.438v-6.871h1.844a.438.438 0 00.438-.438V9.442a.438.438 0 00-.438-.438zm-5.79 0h-14.24V3.813l14.24 5.19zM8.97.875h1.687v8.129H8.971V.875zM2.717 6.468l2.275-2.843h3.104v5.379H2.717V6.468zm6.397 8.336l-2.36 1.89v-3.78l2.36 1.89zm-2.36 3.711l2.36 1.89-2.36 1.89v-3.78zm3.06 2.45l2.799 2.24-2.798 2.24-2.798-2.239 2.798-2.24zm.7-.56l2.361-1.89v3.78l-2.36-1.89zm-.7-.56l-2.798-2.24 2.799-2.24 2.798 2.24-2.798 2.24zm-.7 6.161l-2.36 1.89v-3.78l2.36 1.89zm.7.56l2.252 1.803H7.563l2.252-1.802zm.7-.56l2.361-1.89v3.78l-2.36-1.89zm0-11.202l2.361-1.89v3.78l-2.36-1.89zm-.7-.56l-2.25-1.804h4.503l-2.252 1.802zm6.438 16.881H3.377v-1.88h12.875v1.88zm12.592-12.25h-2.688v-6.434h2.688v6.434zm2.281-7.309H.875V9.878h30.25v1.688z"/><path d="M6.533 4.75h-.79a.438.438 0 00-.342.164L3.938 6.743a.438.438 0 00-.096.273v.425a.438.438 0 00.438.438h2.253a.438.438 0 00.438-.438V5.188a.438.438 0 00-.438-.438zm-.437 2.253H4.85l1.103-1.378h.143v1.378z"/></g><defs><clipPath id="aa"><path fill="#fff" d="M0 0h32v32H0z"/></clipPath></defs></svg><svg fill="none" viewBox="0 0 32 32" id="catalogue-aside-2-icon" xmlns="http://www.w3.org/2000/svg"><path d="M21.635 28.436a.312.312 0 01-.31-.277l-2.19-18.661-.504-4.3a.313.313 0 01.621-.072l.504 4.299 2.19 18.661a.311.311 0 01-.311.35zm1.271 0a.312.312 0 01-.31-.277L19.903 5.2a.312.312 0 11.621-.073l2.693 22.96a.313.313 0 01-.31.35zm-13.812 0a.312.312 0 01-.311-.35l2.693-22.96a.313.313 0 01.62.073l-2.692 22.96a.313.313 0 01-.31.277zm1.272 0a.313.313 0 01-.31-.35l2.692-22.96a.312.312 0 01.62.073l-.503 4.298-2.19 18.662a.312.312 0 01-.31.277z" fill="#303030"/><path d="M24.142 29.75H7.858a.312.312 0 01-.313-.313v-1.314a.313.313 0 01.313-.313h16.284a.313.313 0 01.312.313v1.314a.312.312 0 01-.312.313zM8.17 29.125h15.66v-.69H8.17v.69zm13.127-23.65H10.704a.312.312 0 01-.313-.312V3.964a.312.312 0 01.313-.312h10.593a.313.313 0 01.312.312v1.199a.313.313 0 01-.313.312zm-10.28-.625h9.967v-.573h-9.968v.573z" fill="#303030"/><path d="M17.285 4.277a.313.313 0 01-.313-.313V2.876h-1.944v1.09a.313.313 0 01-.625 0V2.563a.312.312 0 01.312-.313h2.57a.313.313 0 01.313.313v1.401a.312.312 0 01-.313.313zm2.16 5.497a.308.308 0 01-.143-.035l-3.445-1.787-.01-.005-3.041-1.575a.313.313 0 11.287-.555l3.05 1.58a.407.407 0 01.011.005l3.436 1.782a.313.313 0 01-.144.59z" fill="#303030"/><path d="M12.555 9.773a.312.312 0 01-.144-.59l3.436-1.78.01-.005 3.05-1.58a.313.313 0 01.287.554l-3.04 1.576a.265.265 0 01-.01.005l-3.445 1.785a.311.311 0 01-.144.035zm7.497 5.173c-.05 0-.1-.012-.143-.035l-4.052-2.101a.197.197 0 01-.01-.006l-3.578-1.853a.313.313 0 01.287-.555l3.588 1.858a.338.338 0 01.01.006l4.042 2.096a.312.312 0 01-.144.59z" fill="#303030"/><path d="M11.948 14.946a.312.312 0 01-.144-.59l4.043-2.096a.477.477 0 01.01-.005l3.587-1.86a.313.313 0 11.288.556l-3.578 1.854-.01.006-4.053 2.1a.31.31 0 01-.143.035zm8.8 5.931a.31.31 0 01-.143-.035l-4.748-2.46-4.205-2.18a.313.313 0 01.288-.554l4.205 2.178 4.747 2.462a.312.312 0 01-.144.59z" fill="#303030"/><path d="M11.252 20.878a.313.313 0 01-.144-.59l8.952-4.64a.312.312 0 11.288.555l-8.952 4.64a.313.313 0 01-.144.035zm10.275 6.642a.31.31 0 01-.143-.036l-5.527-2.865-4.895-2.536a.31.31 0 01-.133-.42.313.313 0 01.42-.135l4.896 2.537 5.527 2.864a.312.312 0 01-.145.59z" fill="#303030"/><path d="M10.473 27.52a.313.313 0 01-.144-.59l10.421-5.402a.313.313 0 01.288.555l-10.422 5.401a.31.31 0 01-.143.035zm7.077.916a.313.313 0 01-.313-.313v-.895h-2.474v.895a.313.313 0 11-.625 0v-1.208a.312.312 0 01.312-.312h3.1a.313.313 0 01.312.312v1.208a.313.313 0 01-.312.313z" fill="#303030"/></svg><svg fill="none" viewBox="0 0 32 32" id="catalogue-aside-3-icon" xmlns="http://www.w3.org/2000/svg"><g clip-path="url(#ca)" fill="#303030"><path d="M27.434 28.244a.625.625 0 100 1.25.625.625 0 000-1.25zm-3.936 0a.625.625 0 100 1.25.625.625 0 000-1.25zm-3.75 0a.625.625 0 10.001 1.25.625.625 0 000-1.25zm-4.123 0a.625.625 0 100 1.25.625.625 0 000-1.25zm-3.749 0a.625.625 0 100 1.25.625.625 0 000-1.25zm-3.749 0a.625.625 0 100 1.25.625.625 0 000-1.25zm-3.748 0a.625.625 0 100 1.25.625.625 0 000-1.25z"/><path d="M28.87 25.74h-.811v-6.37a.625.625 0 00-.625-.624h-5.186a.625.625 0 00-.625.624v6.368H16.25v-8.242c0-1.099-.35-2.141-1.011-3.015a5.039 5.039 0 00-2.41-1.728l-4.1-3.901L21.496 7.3c.224.25.476.473.752.664V10h-.625a.625.625 0 00-.559.346l-1.25 2.499a.624.624 0 00.118.721l2.499 2.5a.625.625 0 00.884-.884L21.134 13l.875-1.751h5.476l.876 1.75-2.181 2.182a.625.625 0 00.883.883l2.5-2.499a.625.625 0 00.117-.721l-1.25-2.5a.625.625 0 00-.559-.345h-.625V7.965a4.39 4.39 0 001.875-3.589A4.379 4.379 0 0022.504.62a4.365 4.365 0 00-1.608 1.683l-15.225.324a.624.624 0 00-.158.024A4.379 4.379 0 00.005 6.875a4.38 4.38 0 004.13 4.367l2.841 3.666a4.95 4.95 0 00-.723 2.589v8.242H3.13a3.11 3.11 0 00-2.212.917A3.108 3.108 0 000 28.868a3.133 3.133 0 003.13 3.13h25.74a3.11 3.11 0 002.213-.917A3.108 3.108 0 0032 28.868a3.133 3.133 0 00-3.13-3.129zM25.998 10h-2.5V8.566a4.384 4.384 0 002.5 0V10zm-4.13-6.838a3.12 3.12 0 012.88-1.91 3.128 3.128 0 013.124 3.124 3.12 3.12 0 01-4.686 2.706 3.115 3.115 0 01-.929-.821 3.094 3.094 0 01-.633-1.885c0-.422.082-.83.245-1.214zm1.006 16.834h3.936v5.748h-3.936v-5.748zm-10.55-6.092A3.77 3.77 0 0115 17.497a3.753 3.753 0 01-3.748 3.749 3.753 3.753 0 01-3.75-3.749c0-.816.258-1.59.745-2.242a3.719 3.719 0 013.005-1.507c.362 0 .723.052 1.07.156zM15 20.798v4.946H7.503v-4.946a4.987 4.987 0 007.497 0zm5.45-17.236a4.387 4.387 0 00.29 2.57L8.693 7.6a4.372 4.372 0 00-1.166-3.762l12.924-.275zM4.252 9.996a3.127 3.127 0 01-2.997-3.12 3.128 3.128 0 014.127-2.96A3.123 3.123 0 014.58 9.99a.627.627 0 00-.328.005zm1.337 1.081a4.4 4.4 0 002.167-1.425l3.017 2.87a5.034 5.034 0 00-2.994 1.382l-2.19-2.827zM30.192 30.19a1.857 1.857 0 01-1.321.548H3.129a1.871 1.871 0 01-1.321-3.191 1.857 1.857 0 011.321-.548h3.749a.62.62 0 00.076-.005h8.595c.025.003.05.005.076.005h6.623a.621.621 0 00.076-.005h5.034c.025.003.05.005.076.005h1.437c1.03 0 1.87.839 1.87 1.87 0 .498-.195.968-.549 1.32z"/><path d="M24.747 2.502c-1.033 0-1.874.84-1.874 1.874 0 1.034.84 1.875 1.874 1.875a1.877 1.877 0 001.875-1.875 1.877 1.877 0 00-1.875-1.874zm0 2.499a.626.626 0 11.002-1.251.626.626 0 01-.002 1.25zm-20.368 0c-1.034 0-1.875.84-1.875 1.874 0 1.034.841 1.875 1.875 1.875a1.877 1.877 0 001.874-1.875c0-1.033-.84-1.874-1.874-1.874zm0 2.5a.626.626 0 11.001-1.252.626.626 0 010 1.251zm6.873 7.497a2.502 2.502 0 00-2.5 2.499c0 1.378 1.121 2.5 2.5 2.5 1.378 0 2.499-1.122 2.499-2.5s-1.121-2.5-2.5-2.5zm0 3.749a1.251 1.251 0 010-2.5 1.251 1.251 0 010 2.5z"/></g><defs><clipPath id="ca"><path fill="#fff" d="M0 0h32v32H0z"/></clipPath></defs></svg><svg fill="none" viewBox="0 0 32 25" id="catalogue-aside-4-icon" xmlns="http://www.w3.org/2000/svg"><path d="M9.806 19.21a1.55 1.55 0 011.549 1.548 1.55 1.55 0 01-1.549 1.549 1.55 1.55 0 01-1.548-1.549 1.55 1.55 0 011.548-1.548zm0 2.064a.517.517 0 10-.001-1.034.517.517 0 00.001 1.034zm12.388-2.064a1.55 1.55 0 011.548 1.548 1.55 1.55 0 01-1.548 1.549 1.55 1.55 0 01-1.549-1.549 1.55 1.55 0 011.549-1.548zm0 2.064a.517.517 0 10-.002-1.034.517.517 0 00.002 1.034z" fill="#303030"/><path d="M.685 16.993l.358-.536.89-13.355A2.657 2.657 0 014.577.63a2.653 2.653 0 012.649 2.65c0 .321-.039.643-.11.957l1.522 7.917.593-5.337a1.03 1.03 0 01-.973-1.026V4.758c0-.57.463-1.032 1.032-1.032h9.29c.57 0 1.033.463 1.033 1.032V5.79c0 .546-.427.99-.965 1.026l.904 7.232h3.158a3.1 3.1 0 013.096 3.097h1.033v-1.032c0-.57.463-1.032 1.032-1.032h.52s.167.003.191.006a1.036 1.036 0 01.902.856l.889 5.331h.595c.569 0 1.032.463 1.032 1.032v1.033c0 .569-.463 1.032-1.032 1.032H27.87c-.57 0-1.032-.463-1.032-1.032v-2.065h-1.074a3.615 3.615 0 01-3.572 3.097 3.614 3.614 0 01-3.259-2.065h-5.868a3.614 3.614 0 01-3.26 2.065 3.611 3.611 0 01-2.97-1.563 1.54 1.54 0 01-1.159.53H4.082A4.086 4.086 0 010 19.259c0-.807.238-1.595.685-2.265zm27.186 6.346h3.097v-1.033h-1.47l-1.01-6.192-.617-.001v7.226zM4.577 1.66a1.62 1.62 0 00-1.614 1.51L2.1 16.113h1.106L6.103 4.04c.06-.25.09-.506.09-.763A1.62 1.62 0 004.577 1.66zm1.97 17.549h-.353c-.57 0-1.033-.463-1.033-1.033V12.39l-1.017 4.237.904 3.616h1.187a3.58 3.58 0 01.312-1.032zm12.034-4.614l-.198-1.58h-.835v6.194h1.033v-4.614zm-2.065-1.882l-1.032-1.033-.668.668-.73-.73 2.065-2.065.73.73-.667.668 1.032 1.032h1.008l-.645-5.161h-7.341l-.344 3.096h.492c.49 0 .916.35 1.012.83l.866 4.332h2.158c.569 0 1.032.463 1.032 1.032v3.097h1.032v-6.496zm-2.064 3.399H13.06c.54.38 1.01.85 1.39 1.39v-1.39zm-3.21-1.032l-.827-4.13H9.81l-.46 4.13h1.891zM6.193 8.088v6.993h1.955L6.533 6.674l-.34 1.414zm12.387-3.33H9.29V5.79h9.29V4.758zm4.129 10.323h-3.097v3.153a3.619 3.619 0 011.032-.735v-1.386h1.032v1.073c.17-.024.341-.04.517-.04.175 0 .346.016.516.04v-1.073h1.032v1.386a3.63 3.63 0 011.032.735v-1.089a2.067 2.067 0 00-2.064-2.064zm4.129 3.096h-1.032v2.065h1.032v-2.065zm-4.645 5.162a2.584 2.584 0 002.58-2.58 2.584 2.584 0 00-2.58-2.582 2.584 2.584 0 00-2.581 2.581 2.584 2.584 0 002.58 2.58zm-3.572-3.097h-3.138v1.032h3.138a3.635 3.635 0 01-.041-.516c0-.175.017-.347.04-.516zm-4.17 1.032v-.516a4.65 4.65 0 00-4.646-4.645H6.194v2.064h1.089a3.6 3.6 0 012.523-1.032 3.617 3.617 0 013.613 3.613c0 .175-.017.347-.04.516h1.073zM9.806 23.34a2.584 2.584 0 002.581-2.58 2.584 2.584 0 00-2.58-2.582 2.584 2.584 0 00-2.581 2.581 2.584 2.584 0 002.58 2.58zm-5.724-1.033h1.595a.517.517 0 00.517-.516v-.516H4.242l-1.032-4.13H1.825l-.28.42a3.052 3.052 0 002.537 4.741z" fill="#303030"/><path d="M4.645 3.726a.516.516 0 110-1.032.516.516 0 010 1.032z" fill="#303030"/></svg><svg fill="none" viewBox="0 0 32 32" id="catalogue-aside-5-icon" xmlns="http://www.w3.org/2000/svg"><path d="M7.733 23.02a1.867 1.867 0 100 3.733 1.867 1.867 0 000-3.733zm0 2.666a.8.8 0 110-1.6.8.8 0 010 1.6zm14.4 1.067a1.867 1.867 0 100-3.733 1.867 1.867 0 000 3.733zm0-2.666a.8.8 0 110 1.6.8.8 0 010-1.6z" fill="#303030"/><path d="M26.133 24.887a4 4 0 00-4.409-3.98l-.407-1.226-.229-1.141.747-4.853 3.475-3.22c.04-.008.08-.013.12-.024l.459-.132.293.66a.533.533 0 00.485.316h4.8a.533.533 0 00.377-.91l-2.02-2.021-1.621-7.93a.532.532 0 00-.874-.294l-2.62 2.293a.532.532 0 00-.176.313l-.525 3.127a.534.534 0 00.038.305l.32.726-.557.456a1.766 1.766 0 00-.434.533l-6.042 4.392a.534.534 0 00-.219.46l.3 5.893-.284 2.257h-1.663a.533.533 0 00-.534.533h-1.066v-1.6H16a.533.533 0 00.533-.534V18.22a.538.538 0 00-.024-.16l-2.667-8.533a.534.534 0 00-.509-.374V8.086h-1.066v1.067h-3.2V8.086H8v1.067a.533.533 0 00-.533.533v6.4H5.333v-3.2A2.133 2.133 0 003.2 10.753h-.533v1.067H3.2c.59 0 1.067.477 1.067 1.066v3.2H2.133v-.533h.534a.533.533 0 00.533-.533v-1.6a.533.533 0 00-.533-.534H.533A.533.533 0 000 13.42v1.6a.533.533 0 00.533.533h.534v.534H.533A.533.533 0 000 16.62v9.066a.533.533 0 00.533.534h3.434c.218.61.58 1.16 1.056 1.6H0v1.067h32V27.82h-7.156a3.986 3.986 0 001.29-2.933zM1.067 13.953h1.066v.534H1.067v-.534zm24 10.934a2.933 2.933 0 11-5.867 0 2.933 2.933 0 015.867 0zm.486-21.785l1.788-1.563 1.47 7.188a.53.53 0 00.145.27l1.223 1.223h-3.166l-.34-.766-1.138-2.56-.448-1.01.466-2.782zm-1.067 5.075l.332-.27.63 1.418-.314.09a.707.707 0 01-.842-.384.714.714 0 01.194-.854zm-1.23 1.114c.02.064.043.128.07.19.143.31.372.572.66.754l-3.015 2.794a.53.53 0 00-.165.31l-.552 3.606a1.742 1.742 0 00-1.867-.103l-.197-3.872 5.066-3.68zM17.6 21.953a.533.533 0 00.53-.467l.35-2.81v-.009l.044-.35a.719.719 0 011.42-.053l.332 1.66a.49.49 0 00.017.063l.391 1.174a4.004 4.004 0 00-2.55 3.726c0 .09.007.178.013.266H16v-3.2h1.6zm-2.667.534v1.6h-1.066v-1.6h1.066zm.008-5.867h-4.274v-4.267h2.941l1.333 4.267zM8 17.153a.533.533 0 00.533-.533v-6.4h4.408l.334 1.066h-3.142a.533.533 0 00-.533.534v5.333a.533.533 0 00.533.534h5.142l.192.614v.452h-9.6a.533.533 0 00-.353.134l-3.582 3.155h-.865v-4.889H8zm-6.933 8V23.11h1.066c.13 0 .256-.048.353-.134l3.583-3.155H12.8v5.333h-1.08c.006-.088.014-.176.014-.266a4 4 0 10-8 0c0 .09.007.178.013.266h-2.68zm3.733-.266a2.933 2.933 0 115.867 0 2.933 2.933 0 01-5.867 0zm5.644 2.933c.477-.44.84-.99 1.056-1.6h1.833a.534.534 0 00.534-.534v-.533h1.066v.534a.533.533 0 00.534.533h2.9c.217.61.58 1.16 1.056 1.6h-8.979z" fill="#303030"/><path d="M2.133 18.22H3.2v1.067H2.133V18.22z" fill="#303030"/></svg><svg fill="none" viewBox="0 0 32 32" id="catalogue-aside-6-icon" xmlns="http://www.w3.org/2000/svg"><g clip-path="url(#fa)" fill="#303030"><path d="M30.968 25.864V21.16c0-.672-.433-1.24-1.032-1.453v-.611a1.55 1.55 0 00-1.549-1.549h-5.772a1.546 1.546 0 00-1.454-1.032v-6.458a3.619 3.619 0 00-1.824-3.14L9.443 1.283A2.573 2.573 0 007.226 0a2.583 2.583 0 00-2.58 2.564l-.502 15.035a2.584 2.584 0 00-2.08 2.53c0 .555.18 1.066.48 1.487l-1.47 1.714a4.468 4.468 0 00.233 6.063l1.549 1.55A3.59 3.59 0 005.412 32h5.427v-1.032H9.806v-2.829l-1.772-1.418a2.563 2.563 0 01-.953-1.73l-.37-3.33c.32-.43.515-.957.515-1.532 0-.8-.374-1.507-.947-1.98l2.4-13.438c.09-.062.171-.137.254-.21l5.295 5.296c-.181.307-.293.66-.293 1.042 0 .959.661 1.76 1.549 1.99v3.687h-.186c-.735 0-1.374.524-1.518 1.245l-1.383 6.912-.007 1.188a3.598 3.598 0 00-1.035 2.526A3.617 3.617 0 0014.968 32h13.42A3.617 3.617 0 0032 28.387c0-.982-.395-1.872-1.032-2.523zM4.645 18.58a1.55 1.55 0 011.549 1.548 1.55 1.55 0 01-1.549 1.548 1.55 1.55 0 01-1.548-1.548 1.55 1.55 0 011.548-1.548zm2.744 8.946l1.385 1.108v.268H7.742v1.033h1.032v1.032H5.412c-.69 0-1.338-.27-1.825-.756l-1.55-1.55A3.435 3.435 0 011.859 24l1.442-1.68c.392.243.85.39 1.345.39.401 0 .776-.1 1.115-.264l.295 2.659c.107.959.58 1.82 1.334 2.422zm-2.07-9.878c-.048-.013-.093-.034-.142-.044l.434-13.028c.444.36 1 .584 1.615.584.113 0 .22-.019.33-.033L5.32 17.649zm1.907-13.52A1.55 1.55 0 015.677 2.58a1.55 1.55 0 011.549-1.549A1.55 1.55 0 018.774 2.58a1.55 1.55 0 01-1.548 1.548zM22.71 20.645h1.032v-1.032H22.71V18.58h5.677c.285 0 .516.23.516.516v.516h-4.129v1.032h4.645c.285 0 .517.231.517.516v3.967a3.588 3.588 0 00-1.549-.354H22.71v-4.129zM9.558 3.667c.146-.312.227-.65.24-.995l9.028 5.144a2.585 2.585 0 011.303 2.242v6.458h-3.613V12.83a2.063 2.063 0 001.549-1.991A2.067 2.067 0 0016 8.774c-.382 0-.735.111-1.042.293l-5.4-5.4zm5.41 7.172a1.033 1.033 0 012.064 0 1.033 1.033 0 01-2.064 0zm-1.549 13.986l1.373-6.862a.518.518 0 01.506-.415h5.863c.285 0 .516.232.516.517v6.71h-6.71c-.554 0-1.078.129-1.548.353v-.303zm14.968 6.143h-13.42a2.584 2.584 0 01-2.58-2.58 2.584 2.584 0 012.58-2.582h13.42a2.584 2.584 0 012.58 2.581 2.583 2.583 0 01-2.58 2.58z"/><path d="M27.871 26.323c-.62 0-1.17.28-1.548.713a2.051 2.051 0 00-1.549-.713c-.62 0-1.17.28-1.548.713a2.051 2.051 0 00-1.549-.713c-.619 0-1.17.28-1.548.713a2.051 2.051 0 00-1.548-.713c-.62 0-1.17.28-1.549.713a2.052 2.052 0 00-1.548-.713 2.067 2.067 0 00-2.065 2.064c0 1.139.926 2.065 2.065 2.065.62 0 1.17-.28 1.548-.714.38.434.93.714 1.549.714.619 0 1.17-.28 1.548-.714.379.434.93.714 1.548.714.62 0 1.17-.28 1.549-.714a2.05 2.05 0 001.548.714c.62 0 1.17-.28 1.549-.714a2.05 2.05 0 001.548.714 2.067 2.067 0 002.065-2.065 2.067 2.067 0 00-2.065-2.064zm-12.387 3.096a1.033 1.033 0 010-2.064 1.033 1.033 0 010 2.064zm3.097 0a1.033 1.033 0 010-2.064 1.033 1.033 0 010 2.064zm3.096 0a1.033 1.033 0 010-2.064 1.033 1.033 0 010 2.064zm3.097 0a1.033 1.033 0 010-2.064 1.033 1.033 0 010 2.064zm3.097 0a1.033 1.033 0 010-2.064 1.033 1.033 0 010 2.064zm-6.71-10.838h-5.584l-.6 2.995-.01 1.134h6.194v-4.13zm-1.032 3.096H16.01l.413-2.064h3.706v2.064zm6.71 0h2.064v1.033H26.84v-1.033zm-3.097 0h2.064v1.033h-2.064v-1.033z"/></g><defs><clipPath id="fa"><path fill="#fff" d="M0 0h32v32H0z"/></clipPath></defs></svg><svg fill="none" viewBox="0 0 32 32" id="catalogue-aside-7-icon" xmlns="http://www.w3.org/2000/svg"><g clip-path="url(#ga)"><path fill-rule="evenodd" clip-rule="evenodd" d="M21.867 25.6h9.6a.533.533 0 010 1.067H18.613A2.67 2.67 0 0116 28.8a2.67 2.67 0 01-2.613-2.133h-5.44A2.67 2.67 0 015.333 28.8a2.67 2.67 0 01-2.613-2.133H1.6a1.598 1.598 0 01-1.6-1.6V17.6A1.598 1.598 0 011.6 16h.533v-1.067a1.598 1.598 0 011.6-1.6h.534A.532.532 0 004.8 12.8v-1.6a1.6 1.6 0 011.6-1.6h2.667V6.933a1.598 1.598 0 011.6-1.6v-.266a1.867 1.867 0 113.733 0v.266h2.133a1.598 1.598 0 011.6 1.6V16H20.8V8a.533.533 0 011.067 0v17.6zM16 24.533a1.6 1.6 0 11-.001 3.201 1.6 1.6 0 01.001-3.2zm-10.667 0a1.6 1.6 0 110 3.201 1.6 1.6 0 010-3.2zM20.8 17.067H1.6a.532.532 0 00-.533.533v7.467a.532.532 0 00.533.533h1.12a2.67 2.67 0 012.613-2.133A2.67 2.67 0 017.947 25.6h5.44A2.67 2.67 0 0116 23.467a2.67 2.67 0 012.613 2.133H20.8v-8.533zm3.074-.534a1.595 1.595 0 01-.407-1.066v-5.334a1.6 1.6 0 011.6-1.6H30.4a1.6 1.6 0 011.6 1.6v5.334a1.6 1.6 0 01-.407 1.066c.262.293.408.673.407 1.067v5.333a1.6 1.6 0 01-1.6 1.6h-5.333a1.6 1.6 0 01-1.6-1.6V17.6c0-.394.144-.774.407-1.067zm7.06 1.067a.533.533 0 00-.534-.533h-5.333a.534.534 0 00-.534.533v5.333c0 .295.24.534.534.534H30.4a.534.534 0 00.533-.534V17.6zM28.8 22.4h1.067a.533.533 0 000-1.067H28.8a.534.534 0 000 1.067zM4.267 20.267h-1.6a.534.534 0 000 1.066h1.6a.533.533 0 000-1.066zm0-2.134h-1.6a.534.534 0 000 1.067h1.6a.533.533 0 000-1.067zm26.666-8A.533.533 0 0030.4 9.6h-5.333a.534.534 0 00-.534.533v5.334c0 .294.24.533.534.533H30.4a.533.533 0 00.533-.533v-5.334zM17.067 16V6.933a.532.532 0 00-.534-.533h-5.866a.532.532 0 00-.534.533V8H11.2a1.598 1.598 0 011.6 1.6v3.2c0 .294.239.533.533.533H14.4a1.6 1.6 0 011.6 1.6V16h1.067zm-6.934-6.933V16h4.8v-1.067a.533.533 0 00-.533-.533h-1.067a1.6 1.6 0 01-1.6-1.6V9.6a.532.532 0 00-.533-.533h-1.067zm-1.066 1.6H6.4a.533.533 0 00-.533.533v1.6a1.598 1.598 0 01-1.6 1.6h-.534a.532.532 0 00-.533.533V16h5.867v-5.333zM28.8 14.933h1.067a.533.533 0 000-1.066H28.8a.533.533 0 000 1.066zm-15.467-9.6v-.266a.8.8 0 00-1.6 0v.266h1.6z" fill="#303030"/></g><defs><clipPath id="ga"><path fill="#fff" d="M0 0h32v32H0z"/></clipPath></defs></svg><svg fill="none" viewBox="0 0 6 5" id="check-arrow-icon" xmlns="http://www.w3.org/2000/svg"><path d="M3 5L.402.5h5.196L3 5z" fill="#000"/></svg><svg fill="none" viewBox="0 0 53 23" id="isart-logo-icon" xmlns="http://www.w3.org/2000/svg"><g clip-path="url(#ia)" fill-rule="evenodd" clip-rule="evenodd" fill="#fff"><path d="M1.094 18.948a1.98 1.98 0 01.048-.25l.058-.318c.01-.048.01-.106.029-.164.01-.048.019-.087.029-.125.01-.087.028-.173.038-.27.01-.086.039-.173.048-.24 0-.058.087-.549.106-.587 0-.077.116-.799.135-.837.01-.135.058-.29.067-.424.01-.154.068-.356.087-.51.01-.135.048-.308.067-.443.01-.077.02-.134.039-.221.01-.058.029-.116.029-.192.029-.097.038-.28.067-.357.01-.144.048-.288.067-.433.01-.057.02-.096.03-.163.009-.048 0-.087.028-.106 0-.125.048-.25.048-.356.03-.164.068-.337.087-.5l.058-.338c.01-.038.019-.125.029-.163.01-.058.019-.077.019-.135.01-.087.029-.173.048-.26.01-.067.038-.173.038-.23.02-.097.039-.203.049-.29.01-.192.086-.385.086-.587.02-.048.048-.211.048-.26.02-.096.039-.202.048-.288l.087-.53c.01-.038.01-.048.01-.086 0-.02 0-.02.01-.039l.009-.019c0-.144.048-.318.067-.452 0-.058.048-.337.068-.366 0-.125.038-.173.038-.289.01-.048.048-.221.048-.279 0-.067.02-.096.03-.164l.076-.404c0-.125.02-.183.039-.298.01-.039.038-.222.048-.27.01-.086.029-.144.038-.24.01-.068.087-.607.116-.635 0-.087.01-.106.029-.183.01-.068.048-.405.077-.433 0-.106.019-.183.038-.29.02-.095.02-.163.048-.24l.106-.606c0-.077.087-.597.106-.626 0-.086.077-.548.106-.606 0-.067.048-.366.067-.404 0-.087.03-.24.049-.328 0-.057.125-.77.134-.808 0-.135.048-.298.068-.433 0-.077.01-.058.019-.116h20.933l-.096.636c-.02.096.01.038-.039.077l.01.048c-.029.144-.106.78-.154.847.01.086-.077.664-.116.721.01.097-.077.578-.105.693l-.058.328-.183 1c.01.068-.077.597-.106.645.01.145-.048.366-.077.52l-.087.51c-.01.02-.01.02-.01.039l-.009.029c.01.077-.01.26-.058.317.01.106-.038.308-.057.414-.02.116-.097.674-.135.722.01.086-.058.548-.106.606.01.048-.038.443-.087.5.02.126-.096.597-.115.77-.029.107-.038.222-.058.328l-.067.337c.01.048-.048.539-.106.616.02.077-.01.26-.058.317.01.087-.019.183-.029.28l-.105.529c.01.067-.02.288-.058.337.01.096-.039.433-.087.5.01.096-.019.202-.038.298-.01.068-.03.241-.068.29.01.057 0 .105-.01.163a.287.287 0 01-.018.086c-.01.058 0 .03-.03.068.01.067 0 .106-.01.163 0 .02-.009.058-.009.077-.01.058 0 .03-.029.068l-.057.452c-.039.116.038-.096-.01.029 0 0-.01.02-.01.01 0 0 0 .01-.01.01.01.057 0 .105-.009.163l-.038.144c.019.077-.048.481-.087.54.01.095-.058.548-.106.606.01.096-.038.452-.087.51.01.077-.01.25-.048.308.01.086-.019.192-.038.288l-.067.424c-.01.067-.049.337-.077.395.019.096-.02.22-.039.327-.02.096-.02.23-.067.298.01.087-.02.183-.03.27-.009.077-.018.192-.057.24.02.116-.048.356-.067.481-.02.125-.02.357-.087.443.01.096-.038.452-.087.51.01.087-.067.568-.105.616.01.116-.058.433-.078.568-.019.144.01.164-.134.173H3.23v-.01c-.578 0-1.155 0-1.723.01H.478c.01-.077.029-.163.048-.25l.077-.5c.01-.039.03-.212.048-.232 0-.057.068-.5.087-.529 0-.067.02-.163.029-.221.212-1.232.048-.164.298-1.79l.03.029h-.001zm4.389 1.674h3.253c1.01-4.976 2.358-12.906 3.253-18.113H8.765c.038 1.145-3.128 17.257-3.273 18.123l-.01-.01zm8.142-5.264c-.029.067-.039.192-.048.279-.01.086-.048.192-.048.289 0 .057-.03.134-.039.192-.01.067-.029.154-.038.231a2.09 2.09 0 00-.068.395c-.029.038-.106.529-.106.616l-.105.538c-.02.145-.068.26-.049.443.03.289.28.472.588.424.23-.039.211-.058.365-.145.058-.096.29-.288.27-.442.038-.058.106-.5.115-.568.03-.125.106-.51.097-.607l.01-.028c0-.01.076-.231.057-.366l.029-.096c.01-.03.01-.068.019-.106.01-.068.039-.145.02-.212.009-.02.009 0 .018-.038l.02-.087c.01-.067.01-.067.01-.125.047-.058.067-.318.086-.414.02-.125.087-.395.077-.5l.067-.29c.02-.105.049-.211.039-.307.029-.039.029-.096.019-.154.087-.135-.048-.655-.096-.8-.048-.134-.299-.538-.375-.577-.02-.048-.231-.336-.28-.365-.019-.058 0-.01-.038-.058l-.27-.337-.067-.106c-.087-.106-.49-.635-.53-.645-.019-.067-.182-.26-.24-.327-.048-.058-.212-.289-.25-.308-.02-.038-.25-.365-.289-.385-.048-.115-.135-.221-.202-.337a1.588 1.588 0 01-.096-.183c-.02-.048-.048-.144-.077-.182-.039-.222-.058-.328-.048-.568l.086-.616.145-.809c.028-.134.105-.48.086-.596.048-.068.087-.376.087-.472.038-.048.115-.539.106-.606.067-.106.096-.559.144-.722.02-.135.096-.433.087-.549.019-.019.01 0 .019-.038l.038-.164c.02-.067.049-.144.039-.212.029-.038.02-.019.038-.077.01-.028.02-.048.03-.077.019-.057.038-.096.038-.163.048-.048.106-.212.135-.289l.154-.289c.048-.029.096-.106.134-.154.048-.067.087-.096.145-.144.048-.039.317-.221.327-.24.087-.03.183-.097.279-.135.096-.039.183-.077.289-.106.221-.068.414-.096.654-.116.684-.019 1.386 0 2.08 0 .663 0 1.289.058 1.645.443.077.077.24.298.289.433.038.116.086.202.115.327a1.921 1.921 0 01.02.664c-.01.077-.03.174-.03.26-.01.087-.038.193-.048.28-.01.096-.029.23-.057.307 0 .068-.03.174-.039.25-.019.097-.038.193-.048.28-.01.029-.048.25-.048.288-.01.068-.029.145-.048.231-.02.097-.039.183-.039.28-.029.086-.038.202-.057.307-.02.126-.039.222-.058.337 0 .068-.039.231-.048.29-.01.057-.01.076-.02.143-.01.049-.028.106-.028.174-.01.067-.03.154-.048.23-.02.087-.039.184-.039.26-.01.058-.029.135-.048.212l-2.57.01c0-.183.116-.51.106-.683.048-.058.096-.424.087-.51.019-.03.01 0 .019-.049l.077-.51c.058-.067.106-.616.144-.74.02-.136.077-.338.068-.463.038-.058.038-.202.067-.27l.01-.096.028-.125c.078-.375-.067-.702-.461-.702-.318 0-.645.192-.742.462-.019.048-.019.077-.038.115-.02.096-.048.231-.048.327-.02.087-.03.145-.048.241-.02.096-.039.173-.039.28l-.038.144-.03.173c-.018.125-.047.24-.057.356-.029.02-.02.077-.029.125-.01.067-.02.087-.029.144-.01.087-.048.212-.048.299-.02.077-.029.144-.048.24-.02.097-.038.174-.038.28-.03.038-.068.317-.078.413-.01.068-.028.337-.01.405.02.057-.018.019.03.048-.048.134.125.471.202.606.048.077-.01.029.067.067-.01.049-.01.01 0 .049 0 .019.02.038.03.057l.461.626c.039.029-.029 0 .039.029 0 .057.23.327.279.366l.346.404c0 .01-.02.01.029.077l.433.539.24.298c.068.087.04.068.097.096.01.058.144.222.183.29.077.115.144.278.202.307-.02.058-.01.02.02.087.018.029.018.038.038.086l.125.356c.038.145.01.154.057.193-.048.115-.019.289-.019.414-.01.077-.019.096-.019.192-.02.03-.087.5-.087.578-.029.029 0-.01-.019.038 0 .01-.01.068-.01.068-.01.067-.019.106-.019.163a3.768 3.768 0 00-.086.491c-.02.077-.039.193-.049.289-.01.106-.048.202-.048.327-.019.02-.019.067-.028.106-.01.058-.01.087-.02.135-.019.096-.029.202-.048.288 0 .097-.048.231-.048.347-.02.029-.048.221-.048.279-.02.135-.058.27-.068.414a2.506 2.506 0 00-.067.414c-.029.019-.029.096-.029.134-.01.068-.019.097-.029.164-.019.115-.048.24-.057.356a1.22 1.22 0 00-.048.212 1.89 1.89 0 00-.058.25l-.164.462c-.086.212-.192.337-.23.433-.02.01-.136.173-.164.212-.039.048-.049.058-.087.106l-.106.115c-.077.106-.385.328-.53.385-.076.03-.144.048-.22.096-.087.01-.424.126-.732.135l-.857.02c-.163 0-.27.019-.413.019h-1.117c-.106 0-.125-.02-.221-.02-.048 0-.183-.028-.24-.038-.04-.01-.068-.01-.116-.02-.049-.009-.068-.028-.126-.028-.336-.077-.433-.193-.606-.318-.029-.019-.01-.01-.029-.019-.029-.048 0-.01-.038-.058-.01-.019-.02-.019-.03-.038l-.326-.616c-.01-.087-.039-.164-.048-.25-.01-.096.01-.183-.01-.27.029-.057.067-.5.077-.606.02-.154.096-.472.087-.597a.76.76 0 00.057-.327l.01-.029s.087-.318.067-.443c.039-.048.135-.616.125-.702l.039-.145c.01-.067.029-.105.01-.163l.019-.058c0-.01.01-.048.01-.058.009-.038.009-.077.019-.115.01-.077.038-.164.029-.24.048-.068.096-.386.086-.482.039-.058.116-.597.135-.712.058-.048 1.213-.02 1.28-.02h1.309l-.096.568-.039.222c-.02.106-.058.211-.058.327h-.038zm19.153-6.237l.077 1.213c.01.067.01.116.01.212 0 .096.019.106.019.202 0 .27.048.548.048.828l.029.394c.02.144.02.28.02.424 0 .115.028.279.038.394l.029.597c0 .096.019.116.019.202l.048.828c0 .096.02.106.02.202 0 .24.028.356.028.616l.039.414h-1.714l.318-1.636c.048-.28.116-.54.164-.819.019-.134.048-.26.077-.404.029-.144.057-.27.077-.414l.317-1.636c.058-.27.096-.548.164-.818l.115-.606c.01-.039.01-.048.02-.106l.029-.106.01.02zm9.278 2.868h-1.665c-.067 0-.038-.057-.038-.134l.192-3.051c0-.097.02-.106.02-.193l.057-1.02c.01-.067.01-.125.01-.202 0-.173.048-.606.048-.809 0-.096.019-.115.019-.202l.02-.414c.009-.115.028-.288.028-.413h1.78c.492 0 .347.365.347.75l-.221 3.446c0 .077.01.144 0 .221-.048.433-.048.992-.096 1.415-.03.26.076.597-.501.597v.01zm-11.645 8.97c.038-.183.076-.385.115-.567.038-.203.077-.386.116-.588l.115-.587c.038-.192.077-.394.125-.577h2.541c0 .163.048.423.048.587.01.289.058.587.068.876.01.192.048.394.048.596 0 .087-.01.26.067.26h6.073c.077 0 .048-.134.067-.327.02-.24.02-.5.049-.741.01-.058 0-.125 0-.183l.067-.933c.02-.174.01-.395.038-.568.03-.183.02-.376.039-.568.01-.058 0-.116.01-.183l.096-1.492c0-.077 0-.125.01-.202.028-.212.048-.548.048-.76h.442c.068 0 .058.086.077.144l.491 2.06.183.76c.192.75.375 1.492.539 2.252l.135.568c.019.067.01.164.077.164h3.82c0-.087-.067-.28-.096-.376l-.394-1.472c-.154-.626-.347-1.242-.5-1.867-.155-.616-.347-1.242-.492-1.858-.029-.125-.077-.25-.105-.375.471 0 .827-.125 1.087-.337a1.83 1.83 0 00.693-1.463l.212-3.368c.02-.106.01-.241.029-.337l.038-.684c0-.077.01-.096.02-.154.01-.067 0-.115.01-.183.028-.163.018-.336.028-.5l.048-.674c.01-.163.01-.356.029-.52l.058-1.02h1.145c0 .318-.048.626-.048.944l-.068.943c-.019.163-.01.317-.019.48l-.067.944c0 .173-.01.337-.03.481l-.23 3.792c-.02.135-.02.337-.029.472 0 .087-.02.116-.02.221l-.307 5.005c-.01.145-.039.318-.039.462l-.057.953c-.02.144-.03.317-.03.481h3.774c.077 0 .048-.106.048-.192 0-.154.038-.308.038-.482l.077-1.193a3.66 3.66 0 00.03-.472c0-.086.018-.125.018-.24 0-.116.02-.145.02-.24 0-.126.01-.347.029-.473.028-.163.01-.327.028-.49.01-.145.03-.308.03-.462l.038-.482c0-.105.01-.144.019-.22l.038-.742c.02-.28.058-.664.068-.943l.048-.963c.01-.144.038-.308.038-.462 0-.163.03-.327.039-.48.01-.338.038-.626.048-.963l.337-5.226c.01-.087.01-.154.01-.25 0-.087.019-.126.019-.241h2.502c-.067-.28-.115-.568-.183-.866l-.26-1.3-.086-.442c-.03-.135-.058-.29-.087-.424-.029-.154-.077-.298-.077-.452h-6.93c-.01.067-.028.115-.048.173-.057.164-.134.346-.173.51h-.038c-.02-.067-.087-.115-.135-.164a1.466 1.466 0 00-.356-.24c-.318-.193-.818-.28-1.242-.28h-7.257c0 .26-.038.463-.038.703 0 .077-.01.106-.01.154-.01.068 0 .125-.01.183-.01.096-.019.25-.028.347-.01.057 0 .115 0 .173l-.058.885c-.029.212-.039.79-.058 1.06l-.029.519c0 .183-.038.337-.038.51L36.83 8.35c-.01.289-.058.587-.048.876 0 .289-.039.587-.048.876l-.135 2.079c0 .414-.067.837-.067 1.251h-.02c0-.347-.125-1.001-.154-1.386l-.028-.23c-.01-.097-.01-.145-.02-.232l-.327-2.762c-.087-.606-.125-1.242-.221-1.838l-.058-.462-.49-4.158c-.02-.173-.04-.116-.405-.116H31.19l-.654 2.705c-.51 2.03-.982 4.07-1.492 6.111a16.92 16.92 0 00-.164.674l-1.068 4.398-.087.347-.991 4.071c-.01.029-.087.337-.087.337.01.048 0 .029.058.029h3.705v.038z"/></g><defs><clipPath id="ia"><path fill="#fff" transform="translate(.478 .757)" d="M0 0h52.338v21.684H0z"/></clipPath></defs></svg><svg fill="none" viewBox="0 0 139 65" id="logo-icon" xmlns="http://www.w3.org/2000/svg"><path d="M10.227 49.455v3.181H3.95V64H0V49.455h10.227zM11.7 64V49.455h6.278c1.08 0 2.024.212 2.833.639a4.639 4.639 0 011.89 1.797c.45.771.674 1.673.674 2.706 0 1.041-.232 1.943-.696 2.706a4.573 4.573 0 01-1.939 1.76c-.828.413-1.796.619-2.904.619h-3.75v-3.068h2.954c.464 0 .86-.08 1.186-.242.332-.166.585-.4.76-.703.18-.303.27-.66.27-1.072 0-.417-.09-.772-.27-1.066a1.693 1.693 0 00-.76-.682c-.326-.16-.722-.241-1.186-.241h-1.392V64H11.7zm27.215-7.273c0 1.62-.315 2.986-.944 4.098-.63 1.108-1.48 1.949-2.55 2.521-1.07.569-2.263.853-3.58.853-1.326 0-2.523-.287-3.594-.86-1.065-.577-1.912-1.42-2.542-2.528-.625-1.113-.938-2.474-.938-4.084 0-1.62.313-2.983.938-4.09.63-1.113 1.477-1.954 2.543-2.522 1.07-.573 2.267-.86 3.593-.86 1.317 0 2.51.287 3.58.86 1.07.568 1.92 1.409 2.55 2.521.63 1.108.944 2.472.944 4.091zm-4.062 0c0-.871-.116-1.605-.348-2.201-.228-.602-.566-1.056-1.016-1.364-.445-.313-.994-.469-1.648-.469-.653 0-1.205.156-1.655.469-.445.308-.783.762-1.015 1.364-.227.596-.341 1.33-.341 2.201s.114 1.608.34 2.209c.233.597.571 1.051 1.016 1.364.45.307 1.002.461 1.655.461.654 0 1.203-.154 1.648-.461.45-.313.788-.767 1.016-1.364.232-.601.348-1.338.348-2.209zm19.469-1.818h-4.006a2.72 2.72 0 00-.227-.902 2.037 2.037 0 00-.497-.696 2.072 2.072 0 00-.76-.455 2.949 2.949 0 00-1.016-.163c-.663 0-1.224.161-1.683.483-.455.322-.8.784-1.037 1.385-.232.601-.348 1.323-.348 2.166 0 .89.118 1.636.355 2.237.241.597.59 1.047 1.044 1.35.455.298 1.001.447 1.64.447.365 0 .692-.045.98-.135a2.3 2.3 0 00.754-.404c.213-.176.386-.386.518-.633.137-.25.23-.532.277-.845l4.006.029a5.428 5.428 0 01-.519 1.882 6.12 6.12 0 01-1.271 1.761c-.544.535-1.22.966-2.024 1.293-.805.326-1.74.49-2.806.49-1.335 0-2.533-.287-3.593-.86-1.056-.572-1.892-1.415-2.507-2.528-.611-1.113-.917-2.474-.917-4.084 0-1.62.313-2.983.938-4.09.625-1.113 1.468-1.954 2.528-2.522 1.06-.573 2.245-.86 3.551-.86.919 0 1.764.126 2.536.377a6.101 6.101 0 012.031 1.1 5.436 5.436 0 011.406 1.77c.356.7.571 1.503.647 2.407zm15.371 0h-4.006a2.717 2.717 0 00-.227-.902 2.037 2.037 0 00-.497-.696 2.072 2.072 0 00-.76-.455 2.95 2.95 0 00-1.016-.163c-.663 0-1.224.161-1.683.483-.455.322-.8.784-1.037 1.385-.232.601-.348 1.323-.348 2.166 0 .89.118 1.636.355 2.237.242.597.59 1.047 1.044 1.35.455.298 1.002.447 1.64.447.365 0 .692-.045.98-.135a2.3 2.3 0 00.754-.404c.213-.176.386-.386.518-.633.138-.25.23-.532.277-.845l4.006.029a5.428 5.428 0 01-.519 1.882 6.12 6.12 0 01-1.27 1.761c-.545.535-1.22.966-2.025 1.293-.805.326-1.74.49-2.806.49-1.335 0-2.533-.287-3.593-.86-1.056-.572-1.892-1.415-2.507-2.528-.611-1.113-.916-2.474-.916-4.084 0-1.62.312-2.983.937-4.09.625-1.113 1.468-1.954 2.528-2.522 1.061-.573 2.245-.86 3.552-.86a8.16 8.16 0 012.535.377 6.101 6.101 0 012.031 1.1 5.436 5.436 0 011.406 1.77c.356.7.571 1.503.647 2.407zm23.112-5.454V64h-3.892V52.58H84V64h-3.892V49.455h12.698zM99.11 64h-4.26l4.8-14.545h5.398L109.849 64h-4.261l-3.182-10.54h-.114L99.11 64zm-.795-5.739h8.011v2.955h-8.011V58.26zM111.25 64V49.455h6.278c1.08 0 2.025.212 2.834.639a4.631 4.631 0 011.889 1.797c.45.771.675 1.673.675 2.706 0 1.041-.232 1.943-.696 2.706a4.568 4.568 0 01-1.939 1.76c-.828.413-1.797.619-2.905.619h-3.75v-3.068h2.955c.464 0 .859-.08 1.186-.242.331-.166.585-.4.76-.703.18-.303.27-.66.27-1.072 0-.417-.09-.772-.27-1.066a1.694 1.694 0 00-.76-.682c-.327-.16-.722-.241-1.186-.241h-1.392V64h-3.949zm22.088 0l-4.46-5.88h-.554V64h-3.949V49.455h3.949v5.482h.511l4.176-5.482h4.972l-5.54 6.988L138.295 64h-4.957z" fill="#fff"/><path d="M84.063 18c0-8.284-7.612-15-17-15-9.39 0-17 6.716-17 15" stroke="#035EA1" stroke-width="5"/><path d="M50.063 26c0 8.284 7.61 15 17 15 9.388 0 17-6.716 17-15" stroke="#DA4525" stroke-width="5"/><path fill-rule="evenodd" clip-rule="evenodd" d="M57.813 18l-1.25-4-1.5 8h35.525l.474-4h-33.25z" fill="#035EA1"/><path fill-rule="evenodd" clip-rule="evenodd" d="M76.313 28l1.25 4 1.5-8H43.535l-.474 4h33.25z" fill="#DA4525"/></svg><svg fill="none" viewBox="0 0 139 65" id="logo-second-icon" xmlns="http://www.w3.org/2000/svg"><path d="M10.227 49.855v3.182H3.95V64.4H0V49.855h10.227zM11.7 64.4V49.856h6.278c1.08 0 2.024.213 2.833.64a4.64 4.64 0 011.89 1.796c.45.772.674 1.674.674 2.706 0 1.042-.232 1.944-.696 2.706a4.572 4.572 0 01-1.939 1.761c-.828.412-1.796.618-2.904.618h-3.75v-3.068h2.954c.464 0 .86-.08 1.186-.241.332-.166.585-.4.76-.703.18-.303.27-.66.27-1.073 0-.416-.09-.772-.27-1.065a1.693 1.693 0 00-.76-.682c-.326-.161-.722-.242-1.186-.242h-1.392v11.393H11.7zm27.215-7.272c0 1.62-.315 2.985-.944 4.098-.63 1.108-1.48 1.948-2.55 2.521-1.07.568-2.263.852-3.58.852-1.326 0-2.523-.286-3.594-.859-1.065-.578-1.912-1.42-2.542-2.528-.625-1.113-.938-2.474-.938-4.084 0-1.62.313-2.983.938-4.091.63-1.113 1.477-1.953 2.543-2.521 1.07-.573 2.267-.86 3.593-.86 1.317 0 2.51.287 3.58.86 1.07.568 1.92 1.408 2.55 2.52.63 1.109.944 2.472.944 4.092zm-4.062 0c0-.871-.116-1.605-.348-2.202-.228-.601-.566-1.056-1.016-1.364-.445-.312-.994-.468-1.648-.468-.653 0-1.205.156-1.655.468-.445.308-.783.763-1.015 1.364-.227.597-.341 1.33-.341 2.202 0 .871.114 1.607.34 2.209.233.596.571 1.05 1.016 1.363.45.308 1.002.462 1.655.462.654 0 1.203-.154 1.648-.462.45-.312.788-.767 1.016-1.363.232-.602.348-1.338.348-2.21zm19.469-1.818h-4.006a2.719 2.719 0 00-.227-.902 2.038 2.038 0 00-.497-.696 2.074 2.074 0 00-.76-.455 2.949 2.949 0 00-1.016-.163c-.663 0-1.224.16-1.683.483-.455.322-.8.783-1.037 1.385-.232.601-.348 1.323-.348 2.166 0 .89.118 1.636.355 2.237.241.597.59 1.046 1.044 1.35.455.298 1.001.447 1.64.447.365 0 .692-.045.98-.135.29-.095.54-.23.754-.405.213-.175.386-.386.518-.632a2.54 2.54 0 00.277-.845l4.006.028a5.428 5.428 0 01-.519 1.882 6.121 6.121 0 01-1.271 1.762c-.544.535-1.22.966-2.024 1.292-.805.327-1.74.49-2.806.49-1.335 0-2.533-.286-3.593-.859-1.056-.573-1.892-1.416-2.507-2.528-.611-1.113-.917-2.474-.917-4.084 0-1.62.313-2.983.938-4.091.625-1.113 1.468-1.953 2.528-2.521 1.06-.573 2.245-.86 3.551-.86.919 0 1.764.126 2.536.377a6.1 6.1 0 012.031 1.1 5.436 5.436 0 011.406 1.769c.356.7.571 1.503.647 2.408zm15.371 0h-4.006a2.716 2.716 0 00-.227-.902 2.038 2.038 0 00-.497-.696 2.074 2.074 0 00-.76-.455 2.95 2.95 0 00-1.016-.163c-.663 0-1.224.16-1.683.483-.455.322-.8.783-1.037 1.385-.232.601-.348 1.323-.348 2.166 0 .89.118 1.636.355 2.237.242.597.59 1.046 1.044 1.35.455.298 1.002.447 1.64.447.365 0 .692-.045.98-.135.29-.095.54-.23.754-.405.213-.175.386-.386.518-.632.138-.25.23-.533.277-.845l4.006.028a5.428 5.428 0 01-.519 1.882 6.121 6.121 0 01-1.27 1.762c-.545.535-1.22.966-2.025 1.292-.805.327-1.74.49-2.806.49-1.335 0-2.533-.286-3.593-.859-1.056-.573-1.892-1.416-2.507-2.528-.611-1.113-.916-2.474-.916-4.084 0-1.62.312-2.983.937-4.091.625-1.113 1.468-1.953 2.528-2.521 1.061-.573 2.245-.86 3.552-.86a8.16 8.16 0 012.535.377 6.1 6.1 0 012.031 1.1 5.436 5.436 0 011.406 1.769c.356.7.571 1.503.647 2.408zm23.112-5.455v14.546h-3.892V52.98H84V64.4h-3.892V49.855h12.698zM99.11 64.4h-4.26l4.8-14.545h5.398l4.801 14.546h-4.261l-3.182-10.54h-.114L99.11 64.4zm-.795-5.738h8.011v2.955h-8.011v-2.955zM111.25 64.4V49.856h6.278c1.08 0 2.025.213 2.834.64a4.632 4.632 0 011.889 1.796c.45.772.675 1.674.675 2.706 0 1.042-.232 1.944-.696 2.706a4.567 4.567 0 01-1.939 1.761c-.828.412-1.797.618-2.905.618h-3.75v-3.068h2.955c.464 0 .859-.08 1.186-.241.331-.166.585-.4.76-.703.18-.303.27-.66.27-1.073 0-.416-.09-.772-.27-1.065a1.694 1.694 0 00-.76-.682c-.327-.161-.722-.242-1.186-.242h-1.392v11.393h-3.949zm22.088 0l-4.46-5.88h-.554v5.88h-3.949V49.856h3.949v5.483h.511l4.176-5.483h4.972l-5.54 6.989 5.852 7.557h-4.957z" fill="#303030"/><path d="M84.063 18.4c0-8.284-7.612-15-17-15-9.39 0-17 6.716-17 15" stroke="#035EA1" stroke-width="5"/><path d="M50.063 26.4c0 8.285 7.61 15 17 15 9.388 0 17-6.715 17-15" stroke="#DA4525" stroke-width="5"/><path fill-rule="evenodd" clip-rule="evenodd" d="M57.813 18.4l-1.25-4-1.5 8h35.525l.474-4h-33.25z" fill="#035EA1"/><path fill-rule="evenodd" clip-rule="evenodd" d="M76.313 28.4l1.25 4 1.5-8H43.535l-.474 4h33.25z" fill="#DA4525"/></svg><svg fill="none" viewBox="0 0 20 20" id="modal-order-close-icon" xmlns="http://www.w3.org/2000/svg"><path d="M1.896 19.875A1.894 1.894 0 01.55 19.42a1.894 1.894 0 010-2.671L16.634.665A1.894 1.894 0 0119.4 3.242L3.222 19.42a1.894 1.894 0 01-1.326.455z" fill="#000"/><path d="M17.96 19.875a1.894 1.894 0 01-1.326-.55L.552 3.242A1.894 1.894 0 013.222.57L19.4 16.654a1.894 1.894 0 010 2.766 1.895 1.895 0 01-1.44.455z" fill="#000"/></svg><svg fill="none" viewBox="0 0 23 24" id="modal-success-close-icon" xmlns="http://www.w3.org/2000/svg"><path d="M1.932 2l18.992 20m.504-19.495l-20 18.991" stroke="#fff" stroke-width="3"/></svg><svg fill="none" viewBox="0 0 28 28" id="phone-icon" xmlns="http://www.w3.org/2000/svg"><g clip-path="url(#na)"><path d="M21.287 18.523c-.914-.904-2.056-.904-2.965 0-.694.687-1.387 1.375-2.069 2.074-.186.192-.344.233-.57.105-.45-.245-.927-.443-1.358-.711-2.01-1.264-3.694-2.89-5.186-4.72-.74-.909-1.398-1.882-1.859-2.977-.093-.221-.075-.367.105-.548.694-.67 1.37-1.357 2.051-2.045.95-.955.95-2.074-.006-3.035-.541-.548-1.083-1.084-1.625-1.632-.56-.56-1.113-1.124-1.678-1.678-.915-.891-2.057-.891-2.966.006-.7.687-1.37 1.392-2.08 2.068-.658.624-.99 1.387-1.06 2.279-.111 1.45.244 2.82.745 4.154 1.026 2.762 2.587 5.215 4.48 7.464 2.559 3.041 5.612 5.447 9.184 7.184 1.608.78 3.274 1.38 5.086 1.48 1.247.07 2.33-.245 3.199-1.218.594-.664 1.264-1.27 1.893-1.905.933-.944.939-2.086.012-3.018a893.48 893.48 0 00-3.333-3.327zm-1.113-4.644l2.15-.367a9.61 9.61 0 00-2.686-5.186 9.558 9.558 0 00-5.477-2.733l-.302 2.162A7.415 7.415 0 0118.1 9.87a7.414 7.414 0 012.074 4.009zm3.362-9.346A15.853 15.853 0 0014.447 0l-.303 2.162a13.75 13.75 0 017.854 3.915 13.735 13.735 0 013.852 7.429l2.15-.367a15.97 15.97 0 00-4.464-8.606z" fill="#303030"/></g><defs><clipPath id="na"><path fill="#fff" d="M0 0h28v28H0z"/></clipPath></defs></svg><svg fill="none" viewBox="0.4 0.5 5.2 4.5" id="select-arrow" xmlns="http://www.w3.org/2000/svg"><path d="M3 5L.402.5h5.196L3 5z" fill="#000"/></svg><svg fill="none" viewBox="0 0 24 25" id="socials-1-icon" xmlns="http://www.w3.org/2000/svg"><g clip-path="url(#pa)"><path d="M20.503 3.51A11.839 11.839 0 0012.048 0C5.463 0 .096 5.367.096 11.952c0 2.11.555 4.16 1.592 5.97L0 24.12l6.332-1.665a11.954 11.954 0 005.716 1.46C18.633 23.916 24 18.549 24 11.964c0-3.196-1.242-6.2-3.497-8.454zm-8.455 18.38a9.964 9.964 0 01-5.065-1.387l-.362-.218-3.763.99 1.001-3.667-.24-.374a9.966 9.966 0 01-1.52-5.282c0-5.476 4.462-9.938 9.937-9.938a9.833 9.833 0 017.02 2.919 9.869 9.869 0 012.906 7.03c.024 5.476-4.438 9.927-9.914 9.927zm5.452-7.43c-.302-.144-1.773-.868-2.039-.977-.277-.096-.47-.144-.675.145-.205.302-.772.977-.94 1.17-.17.205-.35.23-.652.072-.302-.144-1.266-.47-2.4-1.483-.892-.796-1.483-1.773-1.664-2.074-.17-.302-.024-.459.132-.615.133-.133.302-.35.447-.519.144-.169.205-.302.301-.495.097-.205.048-.373-.024-.518a99.269 99.269 0 01-.917-2.22c-.24-.578-.494-.506-.675-.518h-.579c-.205 0-.519.073-.796.374-.265.302-1.037 1.025-1.037 2.497 0 1.47 1.073 2.894 1.218 3.087.145.205 2.11 3.22 5.102 4.51.711.314 1.266.495 1.7.628.712.229 1.363.193 1.881.12.58-.084 1.773-.723 2.015-1.423.253-.7.253-1.29.168-1.423-.084-.133-.265-.193-.566-.338z" fill="#fff"/></g><defs><clipPath id="pa"><path fill="#fff" d="M0 0h24v25H0z"/></clipPath></defs></svg><svg fill="none" viewBox="0 0 24 21" id="socials-2-icon" xmlns="http://www.w3.org/2000/svg"><g clip-path="url(#qa)"><path d="M22.38.132L1.12 8.33c-1.45.583-1.442 1.392-.266 1.753l5.459 1.703L18.94 3.818c.597-.363 1.143-.168.694.23l-10.23 9.235H9.4h.003l-.377 5.627c.552 0 .795-.253 1.105-.552l2.65-2.578 5.515 4.073c1.017.56 1.747.272 2-.94l3.62-17.061c.37-1.486-.567-2.159-1.537-1.72z" fill="#fff"/></g><defs><clipPath id="qa"><path fill="#fff" d="M0 0h24v21H0z"/></clipPath></defs></svg><svg fill="none" viewBox="0 0 24 15" id="socials-3-icon" xmlns="http://www.w3.org/2000/svg"><g clip-path="url(#ra)"><path d="M23.45.965c.167-.557 0-.965-.793-.965H20.03c-.668 0-.973.353-1.141.741 0 0-1.335 3.257-3.228 5.368-.61.615-.89.809-1.223.809-.166 0-.408-.194-.408-.751V.965c0-.668-.193-.965-.75-.965H9.153c-.417 0-.669.309-.669.604 0 .632.947.778 1.044 2.56V7.03c0 .847-.152 1.002-.488 1.002-.89 0-3.055-3.269-4.34-7.01C4.45.295 4.197.002 3.526.002H.901C.15.001 0 .354 0 .741 0 1.44.89 4.89 4.145 9.452c2.17 3.115 5.226 4.804 8.01 4.804 1.668 0 1.874-.375 1.874-1.022V10.88c0-.75.159-.901.687-.901.388 0 1.057.196 2.615 1.697 1.78 1.78 2.074 2.579 3.074 2.579h2.625c.75 0 1.125-.375.91-1.115-.236-.737-1.087-1.809-2.215-3.077-.613-.724-1.53-1.502-1.809-1.891-.389-.502-.276-.724 0-1.17 0 0 3.2-4.504 3.534-6.036z" fill="#fff"/></g><defs><clipPath id="ra"><path fill="#fff" d="M0 0h24v15H0z"/></clipPath></defs></svg><svg fill="none" viewBox="0 0 40 40" id="turnback-icon" xmlns="http://www.w3.org/2000/svg"><g clip-path="url(#sa)"><circle cx="20.5" cy="19.5" r="10.5" fill="#000"/><path d="M34.25 9.099a.625.625 0 10.978-.779c-.4-.5-.83-.992-1.278-1.453a.625.625 0 10-.897.871c.42.431.822.887 1.197 1.36zm-2.522-2.596a.625.625 0 00.806-.955 19.575 19.575 0 00-1.54-1.173.625.625 0 00-.707 1.031c.497.344.982.71 1.441 1.097zm-8.071-3.9a17.89 17.89 0 011.754.446.625.625 0 10.375-1.194 19.19 19.19 0 00-1.875-.478.625.625 0 10-.246 1.226h-.008zm11.65 7.968c.326.508.628 1.032.902 1.57a.623.623 0 001.16-.086.625.625 0 00-.047-.482 19.38 19.38 0 00-.965-1.679.624.624 0 10-1.05.677zm1.644 3.222c.218.563.41 1.14.572 1.718a.625.625 0 101.204-.334 19.295 19.295 0 00-.611-1.838.625.625 0 10-1.165.454zM27.113 3.67c.556.235 1.1.498 1.63.788a.625.625 0 10.6-1.096 19.173 19.173 0 00-1.744-.843.625.625 0 00-.486 1.151zM1.875 20A18.145 18.145 0 0120 1.875a.625.625 0 100-1.25A19.396 19.396 0 00.625 20a.625.625 0 101.25 0z" fill="#FFB800"/><path d="M20 5.625A14.375 14.375 0 1034.375 20 14.391 14.391 0 0020 5.625zm2.5 20.625h-8.125a.625.625 0 110-1.25H22.5a3.75 3.75 0 000-7.5h-7.866l1.433 1.433a.626.626 0 11-.884.884l-2.5-2.5a.625.625 0 010-.884l2.5-2.5a.625.625 0 01.884.884l-1.433 1.433H22.5a5 5 0 010 10zM5.86 31.641a.625.625 0 00-.977.778c.401.507.828.992 1.278 1.456A.626.626 0 007.058 33a17.946 17.946 0 01-1.197-1.359zM13 37.07a17.952 17.952 0 01-1.631-.789.625.625 0 10-.6 1.096c.562.31 1.15.593 1.744.844A.625.625 0 0013 37.07zm3.455 1.068a18.062 18.062 0 01-1.754-.447.624.624 0 10-.37 1.193c.617.191 1.243.351 1.875.478a.625.625 0 10.25-1.225zm-8.071-3.902a.625.625 0 00-.806.957c.494.416 1.008.807 1.54 1.172a.625.625 0 10.707-1.032c-.498-.341-.98-.707-1.441-1.097zm-5.223-7.29a18.394 18.394 0 01-.572-1.718.625.625 0 10-1.204.334c.173.623.377 1.236.611 1.838a.625.625 0 101.165-.453zm1.645 3.223a18.227 18.227 0 01-.903-1.57.625.625 0 00-1.114.569c.294.575.616 1.135.966 1.678a.625.625 0 101.05-.677z" fill="#FFB800"/><path d="M38.75 19.375a.624.624 0 00-.625.625A18.146 18.146 0 0120 38.125a.624.624 0 100 1.25A19.396 19.396 0 0039.375 20a.624.624 0 00-.625-.625z" fill="#FFB800"/></g><defs><clipPath id="sa"><path fill="#fff" d="M0 0h40v40H0z"/></clipPath></defs></svg></svg>