<svg width="28" height="28" fill="none" xmlns="http://www.w3.org/2000/svg"><g clip-path="url(#a)"><path d="M21.287 18.523c-.914-.904-2.056-.904-2.965 0-.694.687-1.387 1.375-2.069 2.074-.186.192-.344.233-.57.105-.45-.245-.927-.443-1.358-.711-2.01-1.264-3.694-2.89-5.186-4.72-.74-.909-1.398-1.882-1.859-2.977-.093-.221-.075-.367.105-.548.694-.67 1.37-1.357 2.051-2.045.95-.955.95-2.074-.006-3.035-.541-.548-1.083-1.084-1.625-1.632-.56-.56-1.113-1.124-1.678-1.678-.915-.891-2.057-.891-2.966.006-.7.687-1.37 1.392-2.08 2.068-.658.624-.99 1.387-1.06 2.279-.111 1.45.244 2.82.745 4.154 1.026 2.762 2.587 5.215 4.48 7.464 2.559 3.041 5.612 5.447 9.184 7.184 1.608.78 3.274 1.38 5.086 1.48 1.247.07 2.33-.245 3.199-1.218.594-.664 1.264-1.27 1.893-1.905.933-.944.939-2.086.012-3.018a893.48 893.48 0 0 0-3.333-3.327Zm-1.113-4.644 2.15-.367a9.61 9.61 0 0 0-2.686-5.186 9.558 9.558 0 0 0-5.477-2.733l-.302 2.162A7.415 7.415 0 0 1 18.1 9.87a7.414 7.414 0 0 1 2.074 4.009Zm3.362-9.346A15.853 15.853 0 0 0 14.447 0l-.303 2.162c2.995.42 5.71 1.777 7.854 3.915a13.735 13.735 0 0 1 3.852 7.429l2.15-.367a15.97 15.97 0 0 0-4.464-8.606Z" fill="#303030"/></g><defs><clipPath id="a"><path fill="#fff" d="M0 0h28v28H0z"/></clipPath></defs></svg>