<?xml version="1.0" standalone="no"?>
<!DOCTYPE svg PUBLIC "-//W3C//DTD SVG 20010904//EN"
 "http://www.w3.org/TR/2001/REC-SVG-20010904/DTD/svg10.dtd">
<svg version="1.0" xmlns="http://www.w3.org/2000/svg"
 width="784.000000pt" height="784.000000pt" viewBox="0 0 784.000000 784.000000"
 preserveAspectRatio="xMidYMid meet">
<metadata>
Created by potrace 1.14, written by Peter Selinger 2001-2017
</metadata>
<g transform="translate(0.000000,784.000000) scale(0.100000,-0.100000)"
fill="#000000" stroke="none">
<path d="M3728 7295 c-2 -1 -52 -5 -113 -9 -60 -3 -128 -8 -150 -11 -47 -5
-182 -25 -210 -30 -11 -2 -33 -7 -50 -10 -77 -14 -275 -60 -295 -68 -8 -3 -55
-18 -105 -33 -183 -56 -601 -240 -645 -284 -3 -3 -25 -16 -50 -30 -25 -13 -49
-28 -55 -32 -5 -4 -41 -29 -80 -55 -205 -136 -420 -324 -573 -502 -26 -30 -54
-61 -62 -70 -64 -72 -186 -248 -262 -380 -48 -83 -149 -285 -152 -306 -1 -5
-7 -19 -13 -30 -14 -27 -78 -224 -102 -315 -25 -98 -60 -280 -66 -355 -12
-128 -16 -275 -8 -276 33 -4 776 -3 783 1 4 3 10 48 14 101 3 53 8 103 10 110
3 8 7 34 10 59 6 54 13 91 27 145 93 363 297 696 585 953 32 29 66 59 75 67 9
9 49 40 90 70 41 30 79 58 84 63 22 18 211 128 243 141 17 7 32 18 32 24 0 6
3 8 6 4 4 -3 28 5 55 18 95 49 335 136 412 150 21 4 40 11 43 16 3 5 9 7 13 5
4 -3 25 -1 47 5 21 5 55 12 74 15 19 3 37 7 40 9 8 5 119 19 153 20 15 0 27 2
27 5 0 19 506 16 620 -4 14 -3 47 -7 74 -11 27 -3 52 -8 55 -9 3 -2 26 -7 51
-10 37 -5 117 -23 220 -50 16 -4 190 -65 255 -89 256 -94 601 -325 798 -534
81 -86 101 -110 171 -203 129 -172 250 -410 293 -575 1 -5 11 -43 22 -83 10
-40 19 -75 19 -77 0 -3 3 -22 6 -43 13 -78 17 -110 22 -202 l6 -95 -1904 0
c-1473 1 -1903 4 -1904 13 -1 7 -2 13 -4 15 -1 1 -3 10 -6 20 -2 9 -6 25 -8
35 -3 9 -5 17 -6 17 -1 0 -3 7 -5 15 -2 8 -12 40 -23 70 -10 30 -20 58 -20 63
-1 8 -81 265 -89 287 -8 18 -7 18 -17 58 -7 31 -22 44 -23 20 0 -7 -4 -29 -8
-48 -4 -19 -9 -46 -10 -60 -2 -14 -6 -36 -9 -50 -3 -14 -10 -50 -16 -80 -6
-30 -12 -66 -15 -80 -3 -14 -8 -41 -11 -60 -4 -19 -8 -44 -10 -55 -2 -11 -7
-36 -10 -55 -4 -19 -8 -44 -11 -55 -2 -11 -8 -42 -13 -70 -5 -27 -12 -61 -15
-75 -3 -14 -7 -38 -10 -55 -3 -16 -10 -52 -15 -80 -5 -27 -12 -63 -15 -80 -8
-50 -16 -88 -25 -130 -5 -22 -12 -62 -16 -90 -3 -27 -9 -59 -13 -70 -4 -11 -7
-29 -7 -40 1 -20 14 -20 2834 -20 1559 0 2837 2 2842 5 4 3 11 37 14 75 7 70
11 105 21 180 2 22 7 60 10 85 3 25 8 61 10 80 3 19 7 58 10 85 2 28 7 68 9
91 l5 40 -356 0 c-195 -1 -357 2 -359 5 -2 4 -6 58 -8 120 -3 63 -7 125 -10
139 -2 14 -7 48 -10 75 -7 57 -12 89 -26 160 -6 28 -12 61 -15 74 -10 55 -59
214 -96 316 -44 120 -197 435 -210 435 -5 0 -9 4 -9 10 0 5 -29 53 -65 106
-36 53 -65 101 -65 105 0 5 -4 9 -8 9 -5 0 -23 20 -40 44 -87 121 -266 308
-428 446 -90 77 -391 290 -409 290 -3 0 -22 11 -43 23 -98 63 -359 186 -477
227 -27 9 -85 29 -127 44 -42 14 -118 37 -170 51 -98 27 -228 56 -313 70 -16
3 -43 7 -60 10 -16 3 -52 8 -80 11 -27 2 -66 7 -85 10 -69 11 -483 27 -492 19z"/>
<path d="M89 3535 c-2 0 -10 -48 -14 -95 -3 -30 -8 -66 -10 -79 -2 -14 -7 -52
-10 -85 -3 -34 -8 -79 -11 -101 -13 -90 -28 -224 -28 -255 l-1 -25 367 0 c244
0 368 -3 369 -10 0 -5 2 -17 4 -25 1 -8 6 -35 10 -60 3 -25 11 -65 17 -90 5
-25 11 -52 13 -60 46 -207 108 -379 211 -583 36 -71 80 -153 99 -183 19 -30
36 -57 37 -62 1 -6 70 -105 95 -137 4 -6 28 -37 53 -70 25 -32 52 -67 60 -75
8 -9 30 -34 49 -56 78 -92 233 -244 320 -314 24 -19 48 -39 55 -45 19 -17 118
-90 171 -126 28 -19 52 -36 55 -39 3 -3 44 -29 91 -58 165 -100 379 -205 539
-264 30 -11 73 -27 95 -35 22 -8 47 -16 55 -18 8 -2 37 -11 64 -20 26 -9 56
-18 65 -20 9 -1 36 -9 61 -16 123 -35 379 -81 525 -95 194 -18 420 -22 590
-10 96 6 116 9 215 22 25 3 56 7 70 9 14 1 52 8 85 14 33 6 73 14 89 17 16 3
56 12 90 20 34 8 69 17 78 19 55 12 179 50 269 81 96 33 121 43 204 78 17 7
44 19 60 26 17 7 37 16 45 20 8 5 62 32 119 62 57 29 115 59 130 67 34 19 283
182 297 196 6 5 23 19 39 30 53 38 190 158 270 235 112 109 165 168 267 300
48 63 92 120 97 126 55 69 260 453 277 519 1 6 14 42 29 80 15 39 31 84 36
100 17 53 70 265 74 293 12 77 15 99 20 122 9 37 18 174 19 270 l1 85 -397 0
-398 0 -1 -45 c-2 -63 -4 -92 -23 -250 -2 -14 -8 -43 -14 -65 -6 -22 -13 -51
-16 -65 -6 -37 -55 -185 -76 -236 -11 -24 -20 -48 -21 -52 0 -4 -12 -25 -25
-47 -12 -22 -24 -44 -25 -50 -1 -5 -7 -19 -14 -30 -7 -11 -24 -40 -39 -65 -44
-74 -48 -81 -121 -180 -38 -52 -122 -147 -185 -210 -120 -119 -135 -133 -210
-190 -25 -19 -47 -37 -50 -40 -3 -3 -12 -9 -21 -15 -9 -5 -47 -30 -85 -55
-103 -67 -105 -68 -159 -95 -27 -14 -57 -30 -65 -35 -25 -16 -101 -50 -180
-81 -41 -16 -84 -34 -95 -39 -22 -10 -127 -43 -195 -61 -25 -7 -49 -14 -55
-15 -5 -2 -23 -6 -40 -9 -16 -3 -49 -10 -72 -15 -234 -53 -653 -69 -863 -34
-14 2 -45 6 -70 10 -25 3 -52 7 -60 9 -8 3 -33 7 -55 11 -22 3 -43 8 -46 10
-3 2 -21 6 -40 9 -68 12 -270 73 -339 102 -19 8 -44 18 -55 22 -84 31 -399
200 -449 242 -6 5 -36 28 -66 50 -96 69 -132 101 -241 209 -113 111 -236 262
-280 341 -9 16 -21 34 -26 41 -17 21 -114 208 -108 208 3 0 -1 10 -9 23 -13
19 -49 113 -61 157 -3 8 -13 45 -24 83 -11 37 -22 82 -25 100 l-5 32 1884 0
1885 0 45 -145 c26 -80 66 -210 91 -290 25 -80 48 -152 51 -160 4 -8 5 -19 4
-25 -2 -7 1 -7 7 0 5 6 17 53 26 105 9 52 18 104 20 115 22 113 69 354 71 370
1 11 3 20 5 20 1 0 3 14 5 30 4 33 11 76 20 115 5 24 8 40 19 105 3 17 19 97
35 180 16 82 27 153 24 157 -2 5 -1 8 4 8 4 0 8 12 9 28 l1 27 -2839 0 c-1561
0 -2838 0 -2839 0z"/>
</g>
</svg>
