<svg width="32" height="25" viewBox="0 0 32 25" fill="none" xmlns="http://www.w3.org/2000/svg">
<path d="M9.80646 19.2097C10.6601 19.2097 11.3548 19.9044 11.3548 20.7581C11.3548 21.6118 10.6601 22.3065 9.80646 22.3065C8.95278 22.3065 8.25807 21.6118 8.25807 20.7581C8.25807 19.9044 8.95278 19.2097 9.80646 19.2097ZM9.80646 21.2742C10.0908 21.2742 10.3226 21.0425 10.3226 20.7581C10.3226 20.4737 10.0908 20.2419 9.80646 20.2419C9.52207 20.2419 9.29033 20.4737 9.29033 20.7581C9.29033 21.0425 9.52207 21.2742 9.80646 21.2742ZM22.1936 19.2097C23.0472 19.2097 23.7419 19.9044 23.7419 20.7581C23.7419 21.6118 23.0472 22.3065 22.1936 22.3065C21.3399 22.3065 20.6452 21.6118 20.6452 20.7581C20.6452 19.9044 21.3399 19.2097 22.1936 19.2097ZM22.1936 21.2742C22.4779 21.2742 22.7097 21.0425 22.7097 20.7581C22.7097 20.4737 22.4779 20.2419 22.1936 20.2419C21.9092 20.2419 21.6774 20.4737 21.6774 20.7581C21.6774 21.0425 21.9092 21.2742 22.1936 21.2742Z" fill="#303030"/>
<path d="M0.685419 16.9929L1.04258 16.4572L1.9329 3.10232C1.97923 2.43222 2.27768 1.80454 2.76818 1.34564C3.25869 0.886744 3.90482 0.630691 4.57652 0.629028C5.27886 0.629984 5.95216 0.909412 6.44879 1.40604C6.94542 1.90267 7.22485 2.57598 7.22581 3.27832C7.22581 3.60038 7.1871 3.92193 7.11535 4.23625L8.63794 12.1532L9.23097 6.81638C8.96855 6.80164 8.72168 6.68721 8.54083 6.49648C8.35999 6.30576 8.25884 6.05315 8.25806 5.79032V4.75806C8.25806 4.18877 8.72103 3.7258 9.29032 3.7258H18.5806C19.1499 3.7258 19.6129 4.18877 19.6129 4.75806V5.79032C19.6129 6.33638 19.1855 6.78025 18.6483 6.81587L19.5525 14.0484H22.7097C24.4175 14.0484 25.8065 15.4373 25.8065 17.1452H26.8387V16.1129C26.8387 15.5436 27.3017 15.0806 27.871 15.0806H28.3917C28.3917 15.0806 28.5579 15.0843 28.5822 15.0873C28.805 15.113 29.0134 15.2104 29.1761 15.3647C29.3388 15.519 29.447 15.722 29.4844 15.9431L30.3726 21.2742H30.9677C31.537 21.2742 32 21.7372 32 22.3064V23.3387C32 23.908 31.537 24.371 30.9677 24.371H27.871C27.3017 24.371 26.8387 23.908 26.8387 23.3387V21.2742H25.7652C25.5133 23.0223 24.0098 24.371 22.1935 24.371C20.7561 24.371 19.5154 23.525 18.9342 22.3064H13.0658C12.4846 23.525 11.2439 24.371 9.80645 24.371C9.22162 24.3706 8.64563 24.2282 8.12803 23.956C7.61043 23.6838 7.16673 23.2898 6.8351 22.8081C6.69117 22.974 6.51339 23.1072 6.31371 23.1988C6.11403 23.2903 5.89707 23.338 5.67742 23.3387H4.08155C1.83123 23.3387 0 21.5075 0 19.2572C-0.000808716 18.4512 0.237747 17.6631 0.685419 16.9929ZM27.871 23.3387H30.9677V22.3064H29.4983L28.4877 16.1144L27.871 16.1129V23.3387ZM4.57652 1.66129C4.1665 1.66215 3.77204 1.8184 3.47265 2.09854C3.17325 2.37869 2.99117 2.7619 2.9631 3.17096L2.10013 16.1129H3.2062L6.10323 4.04064C6.16314 3.79096 6.19345 3.53509 6.19355 3.27832C6.193 2.84962 6.02246 2.43864 5.71933 2.13551C5.41619 1.83237 5.00521 1.66183 4.57652 1.66129ZM6.5471 19.2097H6.19355C5.62426 19.2097 5.16129 18.7467 5.16129 18.1774V12.3885L4.144 16.6264L5.04826 20.2419H6.23484C6.28621 19.8841 6.39149 19.536 6.5471 19.2097ZM18.5806 14.5965L18.383 13.0161H17.5484V19.2097H18.5806V14.5965ZM16.5161 12.7137L15.4839 11.6814L14.8165 12.3488L14.0867 11.619L16.1512 9.55445L16.881 10.2843L16.2137 10.9516L17.2459 11.9839H18.2539L17.6088 6.82258H10.2679L9.92361 9.91935H10.4155C10.9058 9.91935 11.3316 10.2683 11.4276 10.7488L12.2942 15.0806H14.4516C15.0209 15.0806 15.4839 15.5436 15.4839 16.1129V19.2097H16.5161V12.7137ZM14.4516 16.1129H13.0606C13.6011 16.4928 14.0717 16.9634 14.4516 17.5039V16.1129ZM11.2413 15.0806L10.4155 10.9516H9.80955L9.35071 15.0806H11.2413ZM6.19355 8.08761V15.0806H8.14916L6.53265 6.67445L6.19355 8.08761ZM18.5806 4.75806H9.29032L9.28981 5.79032H18.5806V4.75806ZM22.7097 15.0806H19.6129V18.2342C19.9111 17.9302 20.2605 17.6812 20.6452 17.4987V16.1129H21.6774V17.1864C21.8467 17.1622 22.0181 17.1452 22.1935 17.1452C22.369 17.1452 22.5404 17.1622 22.7097 17.1864V16.1129H23.7419V17.4987C24.1265 17.6814 24.4759 17.9304 24.7742 18.2342V17.1452C24.7742 16.0066 23.8483 15.0806 22.7097 15.0806ZM26.8387 18.1774H25.8065V20.2419H26.8387V18.1774ZM22.1935 23.3387C23.6165 23.3387 24.7742 22.181 24.7742 20.7581C24.7742 19.3351 23.6165 18.1774 22.1935 18.1774C20.7706 18.1774 19.6129 19.3351 19.6129 20.7581C19.6129 22.181 20.7706 23.3387 22.1935 23.3387ZM18.6219 20.2419H15.4839V21.2742H18.6219C18.5977 21.1049 18.5806 20.9335 18.5806 20.7581C18.5806 20.5826 18.5977 20.4112 18.6219 20.2419ZM14.4516 21.2742V20.7581C14.4516 18.197 12.3675 16.1129 9.80645 16.1129H6.19355V18.1774H7.28258C7.956 17.5157 8.86236 17.145 9.80645 17.1452C11.7987 17.1452 13.4194 18.7658 13.4194 20.7581C13.4194 20.9335 13.4023 21.1049 13.3781 21.2742H14.4516ZM9.80645 23.3387C11.2294 23.3387 12.3871 22.181 12.3871 20.7581C12.3871 19.3351 11.2294 18.1774 9.80645 18.1774C8.38348 18.1774 7.22581 19.3351 7.22581 20.7581C7.22581 22.181 8.38348 23.3387 9.80645 23.3387ZM4.08155 22.3064H5.67742C5.96181 22.3064 6.19355 22.0747 6.19355 21.7903V21.2742H4.24207L3.20981 17.1452H1.82452L1.54426 17.5653C1.20929 18.068 1.03226 18.6528 1.03226 19.2572C1.03308 20.0656 1.3546 20.8407 1.92628 21.4124C2.49796 21.9841 3.27308 22.3056 4.08155 22.3064Z" fill="#303030"/>
<path d="M4.64519 3.7258C4.36014 3.7258 4.12906 3.49472 4.12906 3.20967C4.12906 2.92462 4.36014 2.69354 4.64519 2.69354C4.93024 2.69354 5.16132 2.92462 5.16132 3.20967C5.16132 3.49472 4.93024 3.7258 4.64519 3.7258Z" fill="#303030"/>
</svg>
