<svg width="32" height="32" viewBox="0 0 32 32" fill="none" xmlns="http://www.w3.org/2000/svg">
<g clip-path="url(#clip0_8_108)">
<path fill-rule="evenodd" clip-rule="evenodd" d="M21.8667 25.6H31.4667C31.7611 25.6 32 25.8389 32 26.1333C32 26.4277 31.7611 26.6667 31.4667 26.6667H18.6133C18.3659 27.8832 17.2891 28.8 16 28.8C14.7109 28.8 13.6341 27.8832 13.3867 26.6667H7.94667C7.6992 27.8832 6.6224 28.8 5.33333 28.8C4.04427 28.8 2.96747 27.8832 2.72 26.6667H1.6C1.38989 26.6667 1.18182 26.6254 0.987716 26.5449C0.79361 26.4645 0.617274 26.3466 0.4688 26.1979C0.320127 26.0494 0.202195 25.8731 0.121752 25.679C0.0413093 25.4849 -6.39803e-05 25.2768 7.42636e-08 25.0667V17.6C-6.39803e-05 17.3899 0.0413093 17.1818 0.121752 16.9877C0.202195 16.7936 0.320127 16.6173 0.4688 16.4688C0.617274 16.3201 0.79361 16.2022 0.987716 16.1218C1.18182 16.0413 1.38989 15.9999 1.6 16H2.13333V14.9333C2.13327 14.7232 2.17464 14.5152 2.25509 14.3211C2.33553 14.127 2.45346 13.9506 2.60213 13.8021C2.75061 13.6535 2.92694 13.5355 3.12105 13.4551C3.31515 13.3747 3.52322 13.3333 3.73333 13.3333H4.26667C4.408 13.3333 4.544 13.2773 4.64373 13.1771C4.69332 13.1276 4.73266 13.0688 4.75947 13.0041C4.78629 12.9394 4.80006 12.8701 4.8 12.8V11.2C4.8 10.3163 5.51627 9.60001 6.4 9.60001H9.06667V6.93335C9.0666 6.72323 9.10798 6.51517 9.18842 6.32106C9.26886 6.12696 9.38679 5.95062 9.53547 5.80215C9.68394 5.65347 9.86028 5.53554 10.0544 5.4551C10.2485 5.37466 10.4566 5.33328 10.6667 5.33335V5.06668C10.6667 4.03575 11.5024 3.20001 12.5333 3.20001C13.5643 3.20001 14.4 4.03575 14.4 5.06668V5.33335H16.5333C16.7434 5.33328 16.9515 5.37466 17.1456 5.4551C17.3397 5.53554 17.5161 5.65347 17.6645 5.80215C17.8132 5.95062 17.9311 6.12696 18.0116 6.32106C18.092 6.51517 18.1334 6.72323 18.1333 6.93335V16H20.8V8.00001C20.8 7.70561 21.0389 7.46668 21.3333 7.46668C21.6277 7.46668 21.8667 7.70561 21.8667 8.00001V25.6ZM16 24.5333C16.8832 24.5333 17.6 25.2501 17.6 26.1333C17.6 27.0165 16.8832 27.7333 16 27.7333C15.1168 27.7333 14.4 27.0165 14.4 26.1333C14.4 25.2501 15.1168 24.5333 16 24.5333ZM5.33333 24.5333C6.21653 24.5333 6.93333 25.2501 6.93333 26.1333C6.93333 27.0165 6.21653 27.7333 5.33333 27.7333C4.45013 27.7333 3.73333 27.0165 3.73333 26.1333C3.73333 25.2501 4.45013 24.5333 5.33333 24.5333ZM20.8 17.0667H1.6C1.45867 17.0667 1.32267 17.1227 1.22293 17.2229C1.17334 17.2724 1.13401 17.3312 1.10719 17.3959C1.08038 17.4606 1.06661 17.53 1.06667 17.6V25.0667C1.06667 25.208 1.12267 25.344 1.22293 25.4437C1.2724 25.4933 1.33117 25.5327 1.39588 25.5595C1.46059 25.5863 1.52996 25.6001 1.6 25.6H2.72C2.96747 24.3835 4.04427 23.4667 5.33333 23.4667C6.6224 23.4667 7.6992 24.3835 7.94667 25.6H13.3867C13.6341 24.3835 14.7109 23.4667 16 23.4667C17.2891 23.4667 18.3659 24.3835 18.6133 25.6H20.8V17.0667ZM23.8741 16.5333C23.6113 16.2403 23.4662 15.8603 23.4667 15.4667V10.1333C23.4667 9.24961 24.1829 8.53335 25.0667 8.53335H30.4C31.2837 8.53335 32 9.24961 32 10.1333V15.4667C32.0005 15.8603 31.8554 16.2403 31.5925 16.5333C31.8554 16.8264 32.0005 17.2064 32 17.6V22.9333C32 23.8171 31.2837 24.5333 30.4 24.5333H25.0667C24.1829 24.5333 23.4667 23.8171 23.4667 22.9333V17.6C23.4662 17.2064 23.6113 16.8264 23.8741 16.5333ZM30.9333 17.6C30.9333 17.3056 30.6944 17.0667 30.4 17.0667H25.0667C24.7723 17.0667 24.5333 17.3056 24.5333 17.6V22.9333C24.5333 23.2277 24.7723 23.4667 25.0667 23.4667H30.4C30.6944 23.4667 30.9333 23.2277 30.9333 22.9333V17.6ZM28.8 22.4H29.8667C30.1611 22.4 30.4 22.1611 30.4 21.8667C30.4 21.5723 30.1611 21.3333 29.8667 21.3333H28.8C28.5056 21.3333 28.2667 21.5723 28.2667 21.8667C28.2667 22.1611 28.5056 22.4 28.8 22.4ZM4.26667 20.2667H2.66667C2.37227 20.2667 2.13333 20.5056 2.13333 20.8C2.13333 21.0944 2.37227 21.3333 2.66667 21.3333H4.26667C4.56107 21.3333 4.8 21.0944 4.8 20.8C4.8 20.5056 4.56107 20.2667 4.26667 20.2667ZM4.26667 18.1333H2.66667C2.37227 18.1333 2.13333 18.3723 2.13333 18.6667C2.13333 18.9611 2.37227 19.2 2.66667 19.2H4.26667C4.56107 19.2 4.8 18.9611 4.8 18.6667C4.8 18.3723 4.56107 18.1333 4.26667 18.1333ZM30.9333 10.1333C30.9333 9.83895 30.6944 9.60001 30.4 9.60001H25.0667C24.7723 9.60001 24.5333 9.83895 24.5333 10.1333V15.4667C24.5333 15.7611 24.7723 16 25.0667 16H30.4C30.6944 16 30.9333 15.7611 30.9333 15.4667V10.1333ZM17.0667 16V6.93335C17.0667 6.79201 17.0107 6.65601 16.9104 6.55628C16.8609 6.50669 16.8022 6.46736 16.7375 6.44054C16.6727 6.41372 16.6034 6.39995 16.5333 6.40001H10.6667C10.5253 6.40001 10.3893 6.45601 10.2896 6.55628C10.24 6.60575 10.2007 6.66452 10.1739 6.72923C10.147 6.79394 10.1333 6.8633 10.1333 6.93335V8.00001H11.2C11.4101 7.99995 11.6182 8.04132 11.8123 8.12176C12.0064 8.20221 12.1827 8.32014 12.3312 8.46881C12.4799 8.61729 12.5978 8.79362 12.6782 8.98773C12.7587 9.18183 12.8001 9.3899 12.8 9.60001V12.8C12.8 13.0944 13.0389 13.3333 13.3333 13.3333H14.4C15.2837 13.3333 16 14.0496 16 14.9333V16H17.0667ZM10.1333 9.06668V16H14.9333V14.9333C14.9333 14.6389 14.6944 14.4 14.4 14.4H13.3333C12.4496 14.4 11.7333 13.6837 11.7333 12.8V9.60001C11.7333 9.45868 11.6773 9.32268 11.5771 9.22295C11.5276 9.17336 11.4688 9.13402 11.4041 9.10721C11.3394 9.08039 11.27 9.06662 11.2 9.06668H10.1333ZM9.06667 10.6667H6.4C6.1056 10.6667 5.86667 10.9056 5.86667 11.2V12.8C5.86673 13.0101 5.82536 13.2182 5.74492 13.4123C5.66447 13.6064 5.54654 13.7827 5.39787 13.9312C5.24939 14.0799 5.07306 14.1978 4.87895 14.2783C4.68485 14.3587 4.47678 14.4001 4.26667 14.4H3.73333C3.592 14.4 3.456 14.456 3.35627 14.5563C3.30668 14.6057 3.26734 14.6645 3.24053 14.7292C3.21371 14.7939 3.19994 14.8633 3.2 14.9333V16H9.06667V10.6667ZM28.8 14.9333H29.8667C30.1611 14.9333 30.4 14.6944 30.4 14.4C30.4 14.1056 30.1611 13.8667 29.8667 13.8667H28.8C28.5056 13.8667 28.2667 14.1056 28.2667 14.4C28.2667 14.6944 28.5056 14.9333 28.8 14.9333ZM13.3333 5.33335V5.06668C13.3333 4.62508 12.9749 4.26668 12.5333 4.26668C12.0917 4.26668 11.7333 4.62508 11.7333 5.06668V5.33335H13.3333Z" fill="#303030"/>
</g>
<defs>
<clipPath id="clip0_8_108">
<rect width="32" height="32" fill="white"/>
</clipPath>
</defs>
</svg>
