<svg width="32" height="32" viewBox="0 0 32 32" fill="none" xmlns="http://www.w3.org/2000/svg">
<g clip-path="url(#clip0_8_34)">
<path d="M31.5625 9.0035H28.3272L11.5332 2.88125V0.4375C11.5332 0.321488 11.4871 0.210247 11.405 0.128214C11.323 0.0461811 11.2118 6.62358e-05 11.0957 0L8.53325 0C8.41724 6.62358e-05 8.306 0.0461811 8.22396 0.128214C8.14193 0.210247 8.09582 0.321488 8.09575 0.4375V2.75H4.78175C4.71612 2.75001 4.65132 2.76477 4.59217 2.7932C4.53301 2.82163 4.48101 2.863 4.44 2.91425L1.938 6.041C1.87601 6.11859 1.84225 6.21494 1.84225 6.31425V9.0035H0.4375C0.321488 9.00357 0.210247 9.04968 0.128214 9.13171C0.0461811 9.21375 6.62357e-05 9.32499 0 9.441L0 12.0035C6.62357e-05 12.1195 0.0461811 12.2308 0.128214 12.3128C0.210247 12.3948 0.321488 12.4409 0.4375 12.441H5.879V28.37H2.9395C2.82347 28.37 2.71219 28.4161 2.63014 28.4981C2.54809 28.5802 2.502 28.6915 2.502 28.8075V31.5618C2.50207 31.6778 2.54818 31.789 2.63021 31.871C2.71225 31.9531 2.82349 31.9992 2.9395 31.9993H16.6895C16.8055 31.9992 16.9168 31.9531 16.9988 31.871C17.0808 31.789 17.1269 31.6778 17.127 31.5618V28.8075C17.127 28.6915 17.0809 28.5802 16.9989 28.4981C16.9168 28.4161 16.8055 28.37 16.6895 28.37H13.75V12.441H25.2812V19.3125C25.2813 19.4285 25.3274 19.5398 25.4095 19.6218C25.4915 19.7038 25.6027 19.7499 25.7187 19.75H27.0625V22.125C27.0626 22.241 27.1087 22.3523 27.1907 22.4343C27.2727 22.5163 27.384 22.5624 27.5 22.5625H27.6172C27.8406 22.5663 28.0535 22.6577 28.2101 22.817C28.3667 22.9763 28.4544 23.1908 28.4544 23.4141C28.4544 23.6375 28.3667 23.8519 28.2101 24.0112C28.0535 24.1705 27.8406 24.2619 27.6172 24.2658H26.6185C26.4442 24.2654 26.2741 24.2118 26.1311 24.112C25.9881 24.0123 25.8791 23.8712 25.8185 23.7078L25.2852 22.2553C25.2664 22.2 25.2367 22.1491 25.1979 22.1055C25.1591 22.0619 25.112 22.0265 25.0593 22.0014C25.0067 21.9762 24.9495 21.9619 24.8912 21.9592C24.8329 21.9565 24.7746 21.9655 24.7199 21.9856C24.6651 22.0057 24.6149 22.0366 24.5722 22.0765C24.5296 22.1163 24.4953 22.1642 24.4714 22.2175C24.4476 22.2708 24.4346 22.3282 24.4333 22.3866C24.4319 22.4449 24.4423 22.503 24.4637 22.5572L24.9972 24.0095C25.1199 24.3408 25.3409 24.6266 25.6305 24.8288C25.9202 25.031 26.2647 25.1398 26.618 25.1408H27.6167C28.0468 25.1407 28.4614 24.9801 28.7794 24.6905C29.0973 24.4009 29.2957 24.003 29.3358 23.5748C29.3758 23.1466 29.2546 22.7189 28.9959 22.3753C28.7372 22.0317 28.3596 21.7971 27.937 21.7173V19.75H29.2807C29.3968 19.7499 29.508 19.7038 29.59 19.6218C29.6721 19.5398 29.7182 19.4285 29.7182 19.3125V12.441H31.562C31.678 12.4409 31.7893 12.3948 31.8713 12.3128C31.9533 12.2308 31.9994 12.1195 31.9995 12.0035V9.441C31.9994 9.32507 31.9534 9.21391 31.8715 9.13189C31.7895 9.04987 31.6784 9.0037 31.5625 9.0035ZM25.7725 9.0035H11.5332V3.81275L25.7725 9.0035ZM8.97075 0.875H10.6582V9.0035H8.97075V0.875ZM2.71725 6.46775L4.99225 3.625H8.09575V9.0035H2.71725V6.46775ZM9.1145 14.8042L6.754 16.694V12.9143L9.1145 14.8042ZM6.754 18.5155L9.1145 20.4055L6.754 22.2952V18.5155ZM9.8145 20.9655L12.6125 23.2055L9.8145 25.4457L7.0165 23.206L9.8145 20.9655ZM10.5145 20.405L12.875 18.515V22.2952L10.5145 20.405ZM9.8145 19.8445L7.0165 17.6047L9.8145 15.3647L12.6125 17.6047L9.8145 19.8445ZM9.1145 26.0063L6.754 27.896V24.1168L9.1145 26.0063ZM9.8145 26.5667L12.066 28.3695H7.563L9.8145 26.5667ZM10.5145 26.0063L12.875 24.1162V27.896L10.5145 26.0063ZM10.5145 14.8038L12.875 12.9137V16.694L10.5145 14.8038ZM9.8145 14.2432L7.563 12.4405H12.066L9.8145 14.2432ZM16.252 31.125H3.377V29.245H16.252V31.125ZM28.8437 18.875H26.1562V12.441H28.8437V18.875ZM31.125 11.566H0.875V9.8785H31.125V11.566Z" fill="#303030"/>
<path d="M6.53322 4.75H5.74272C5.67713 4.75003 5.61238 4.7648 5.55327 4.79323C5.49416 4.82166 5.44219 4.86302 5.40122 4.91425L3.93797 6.74275C3.87599 6.82034 3.84222 6.91669 3.84222 7.016V7.441C3.84222 7.55703 3.88832 7.66831 3.97036 7.75036C4.05241 7.83241 4.16369 7.8785 4.27972 7.8785H6.53322C6.64924 7.87843 6.76048 7.83232 6.84251 7.75029C6.92454 7.66825 6.97066 7.55701 6.97072 7.441V5.1875C6.97066 5.07149 6.92454 4.96025 6.84251 4.87821C6.76048 4.79618 6.64924 4.75007 6.53322 4.75ZM6.09572 7.0035H4.84997L5.95297 5.625H6.09572V7.0035Z" fill="#303030"/>
</g>
<defs>
<clipPath id="clip0_8_34">
<rect width="32" height="32" fill="white"/>
</clipPath>
</defs>
</svg>
