<svg width="32" height="32" viewBox="0 0 32 32" fill="none" xmlns="http://www.w3.org/2000/svg">
<g clip-path="url(#clip0_8_61)">
<path d="M27.4338 28.2436C27.089 28.2436 26.809 28.5235 26.809 28.8684C26.809 29.2133 27.089 29.4932 27.4338 29.4932C27.7787 29.4932 28.0587 29.2133 28.0587 28.8684C28.0587 28.5235 27.7787 28.2436 27.4338 28.2436ZM23.4976 28.2436C23.1527 28.2436 22.8728 28.5235 22.8728 28.8684C22.8728 29.2133 23.1527 29.4932 23.4976 29.4932C23.8425 29.4932 24.1224 29.2133 24.1224 28.8684C24.1224 28.5235 23.8425 28.2436 23.4976 28.2436ZM19.7488 28.2436C19.4039 28.2436 19.124 28.5235 19.124 28.8684C19.124 29.2133 19.4039 29.4932 19.7488 29.4932C20.0937 29.4932 20.3736 29.2133 20.3736 28.8684C20.3736 28.5235 20.0937 28.2436 19.7488 28.2436ZM15.6251 28.2436C15.2802 28.2436 15.0003 28.5235 15.0003 28.8684C15.0003 29.2133 15.2802 29.4932 15.6251 29.4932C15.97 29.4932 16.2499 29.2133 16.2499 28.8684C16.2499 28.5235 15.97 28.2436 15.6251 28.2436ZM11.8763 28.2436C11.5314 28.2436 11.2515 28.5235 11.2515 28.8684C11.2515 29.2133 11.5314 29.4932 11.8763 29.4932C12.2212 29.4932 12.5011 29.2133 12.5011 28.8684C12.5011 28.5235 12.2212 28.2436 11.8763 28.2436ZM8.12747 28.2436C7.7826 28.2436 7.50266 28.5235 7.50266 28.8684C7.50266 29.2133 7.7826 29.4932 8.12747 29.4932C8.47234 29.4932 8.75228 29.2133 8.75228 28.8684C8.75228 28.5235 8.47234 28.2436 8.12747 28.2436ZM4.37866 28.2436C4.03378 28.2436 3.75385 28.5235 3.75385 28.8684C3.75385 29.2133 4.03378 29.4932 4.37866 29.4932C4.72353 29.4932 5.00347 29.2133 5.00347 28.8684C5.00347 28.5235 4.72353 28.2436 4.37866 28.2436Z" fill="#303030"/>
<path d="M28.8709 25.7393H28.0587V19.3714C28.0587 19.0263 27.7789 18.7466 27.4339 18.7466H22.248C21.9029 18.7466 21.6232 19.0263 21.6232 19.3714V25.7393H16.2499V17.4969C16.2499 16.3984 15.9003 15.356 15.2389 14.4824C14.6312 13.6797 13.7801 13.0708 12.8297 12.7542L8.72894 8.85282L21.4958 7.29982C21.7199 7.5497 21.9724 7.77273 22.2479 7.96444V9.99932H21.6231C21.5071 9.99931 21.3934 10.0316 21.2947 10.0926C21.196 10.1536 21.1162 10.2409 21.0643 10.3447L19.8147 12.8439C19.756 12.9612 19.7358 13.0939 19.7568 13.2234C19.7778 13.3528 19.839 13.4723 19.9317 13.5651L22.4309 16.0643C22.6749 16.3083 23.0705 16.3083 23.3146 16.0643C23.5586 15.8203 23.5586 15.4246 23.3146 15.1806L21.1338 12.9998L22.0093 11.2488H27.4851L28.3606 12.9998L26.1798 15.1806C25.9358 15.4246 25.9358 15.8202 26.1798 16.0643C26.2378 16.1224 26.3066 16.1684 26.3825 16.1998C26.4583 16.2312 26.5396 16.2474 26.6216 16.2473C26.7037 16.2474 26.785 16.2312 26.8608 16.1998C26.9366 16.1684 27.0055 16.1224 27.0634 16.0643L29.5626 13.5651C29.6553 13.4723 29.7165 13.3528 29.7375 13.2234C29.7585 13.0939 29.7383 12.9612 29.6796 12.8439L28.43 10.3447C28.3781 10.2409 28.2984 10.1536 28.1997 10.0926C28.101 10.0316 27.9872 9.99932 27.8712 9.99932H27.2464V7.96469C28.4107 7.15169 29.1208 5.80863 29.1208 4.37607C29.1208 1.96444 27.1588 0.00244457 24.7471 0.00244457C23.9572 0.00149343 23.1817 0.214922 22.5035 0.619981C21.8253 1.02504 21.2697 1.60654 20.896 2.30251L5.67056 2.62682C5.61715 2.62816 5.56414 2.63635 5.51281 2.65119C5.14292 2.55205 4.76164 2.50179 4.37869 2.50169C1.96706 2.50169 0.0050625 4.46369 0.0050625 6.87532C0.0050625 9.20532 1.83662 11.1153 4.13556 11.2418L6.97625 14.9079C6.50231 15.6864 6.25313 16.5721 6.25313 17.4969V25.7393H3.12906C2.29356 25.7393 1.50787 26.0648 0.91675 26.656C0.325563 27.2472 0 28.0328 0 28.8684C0 30.5938 1.40369 31.9974 3.12906 31.9974H28.8709C29.7064 31.9974 30.4921 31.6719 31.0833 31.0807C31.6744 30.4896 32 29.7039 32 28.8684C32 27.143 30.5963 25.7393 28.8709 25.7393ZM25.9968 9.99932H23.4976V8.56744C23.9032 8.68819 24.3241 8.74957 24.7472 8.74969C25.1722 8.74969 25.5933 8.68751 25.9969 8.56744V9.99932H25.9968ZM21.8676 3.16232L21.8677 3.16213C22.1061 2.59547 22.5065 2.11187 23.0189 1.77206C23.5312 1.43225 24.1324 1.25136 24.7472 1.25213C26.4697 1.25213 27.8712 2.65357 27.8712 4.37613C27.8712 5.48801 27.2725 6.52501 26.3086 7.08244C25.8364 7.35576 25.2965 7.50013 24.7472 7.50013C24.1979 7.50013 23.6579 7.35569 23.1856 7.08238C22.8238 6.87367 22.5077 6.59432 22.256 6.26094C21.8421 5.71519 21.6232 5.06338 21.6232 4.37613C21.6233 3.95438 21.7055 3.54601 21.8676 3.16232ZM22.8728 19.9962H26.8091V25.7444H22.8728V19.9962ZM12.3224 13.9037C12.3228 13.9038 12.3232 13.904 12.3236 13.9041C13.8996 14.3729 15.0003 15.8503 15.0003 17.497C15.0003 19.5641 13.3186 21.2458 11.2515 21.2458C9.18437 21.2458 7.50269 19.5641 7.50269 17.497C7.50269 16.6814 7.76 15.9064 8.24687 15.2555C8.9625 14.2976 10.0577 13.7482 11.2515 13.7482C11.6141 13.7476 11.9749 13.8 12.3224 13.9037ZM15.0003 20.7979V25.7444H7.50269V20.7979C8.41931 21.8376 9.75969 22.4954 11.2515 22.4954C12.7433 22.4954 14.0837 21.8376 15.0003 20.7979ZM20.4501 3.56188C20.3993 3.83031 20.3737 4.10289 20.3736 4.37607C20.3736 4.99051 20.4992 5.58457 20.7405 6.13288L8.69181 7.59857C8.80526 6.92412 8.75889 6.23245 8.55644 5.57918C8.35399 4.9259 8.00109 4.32923 7.52612 3.83713L20.4501 3.56188ZM4.25219 9.99607C2.58806 9.92945 1.25462 8.55544 1.25462 6.87532C1.25462 5.15276 2.65606 3.75132 4.37862 3.75132C4.72131 3.75132 5.05875 3.80651 5.3815 3.91532C6.65025 4.34507 7.50262 5.53457 7.50262 6.87532C7.50262 7.29707 7.42037 7.70545 7.25806 8.08945C7.21432 8.19265 7.16521 8.2935 7.11094 8.39157C6.59481 9.31932 5.63675 9.92132 4.58031 9.99119C4.47245 9.96365 4.35919 9.96533 4.25219 9.99607ZM5.58887 11.0773C6.43816 10.8309 7.1935 10.3343 7.75644 9.65232L10.7731 12.5223C9.64956 12.6318 8.58981 13.1235 7.77919 13.904L5.58887 11.0773ZM30.1924 30.1899C29.8393 30.5431 29.3699 30.7377 28.8709 30.7377H3.12906C2.09825 30.7377 1.25975 29.8991 1.25975 28.8683C1.25975 28.3694 1.45431 27.9 1.80756 27.5468C2.16075 27.1936 2.63013 26.999 3.12906 26.999H6.87787C6.90375 26.999 6.92912 26.997 6.95419 26.9939H15.5489C15.5739 26.997 15.5993 26.999 15.6252 26.999H22.2481C22.2739 26.999 22.2993 26.997 22.3244 26.9939H27.3577C27.3828 26.997 27.4082 26.999 27.4341 26.999H28.8711C29.9019 26.999 30.7404 27.8376 30.7404 28.8684C30.7402 29.3673 30.5457 29.8367 30.1924 30.1899Z" fill="#303030"/>
<path d="M24.7473 2.50171C23.7137 2.50171 22.8728 3.34258 22.8728 4.37615C22.8728 5.40971 23.7137 6.25052 24.7473 6.25052C25.7808 6.25052 26.6216 5.40965 26.6216 4.37615C26.6216 3.34258 25.7808 2.50171 24.7473 2.50171ZM24.7473 5.00096C24.4028 5.00096 24.1225 4.72065 24.1225 4.37615C24.1225 4.03165 24.4028 3.75133 24.7473 3.75133C25.0918 3.75133 25.3721 4.03165 25.3721 4.37615C25.3721 4.72065 25.0918 5.00096 24.7473 5.00096ZM4.37871 5.00096C3.34515 5.00096 2.50427 5.84183 2.50427 6.8754C2.50427 7.90896 3.34515 8.74977 4.37871 8.74977C5.41227 8.74977 6.25315 7.9089 6.25315 6.8754C6.25309 5.84177 5.41227 5.00096 4.37871 5.00096ZM4.37871 7.50015C4.03421 7.50015 3.7539 7.21983 3.7539 6.87533C3.7539 6.53083 4.03421 6.25052 4.37871 6.25052C4.72321 6.25052 5.00352 6.53083 5.00352 6.87533C5.00352 7.21983 4.72321 7.50015 4.37871 7.50015ZM11.2515 14.9978C9.87346 14.9978 8.75234 16.1188 8.75234 17.497C8.75234 18.875 9.87346 19.9961 11.2515 19.9961C12.6296 19.9961 13.7507 18.875 13.7507 17.497C13.7507 16.1189 12.6296 14.9978 11.2515 14.9978ZM11.2515 18.7466C10.5625 18.7466 10.0019 18.186 10.0019 17.497C10.0019 16.808 10.5625 16.2473 11.2515 16.2473C11.9405 16.2473 12.5011 16.8079 12.5011 17.497C12.5011 18.186 11.9406 18.7466 11.2515 18.7466Z" fill="#303030"/>
</g>
<defs>
<clipPath id="clip0_8_61">
<rect width="32" height="32" fill="white"/>
</clipPath>
</defs>
</svg>
