<svg width="32" height="32" viewBox="0 0 32 32" fill="none" xmlns="http://www.w3.org/2000/svg">
<g clip-path="url(#clip0_8_98)">
<path d="M30.9677 25.8637V21.1613C30.9677 20.4893 30.5347 19.9215 29.9355 19.7079V19.0968C29.9355 18.2431 29.2408 17.5484 28.3871 17.5484H22.6147C22.401 16.9492 21.8333 16.5161 21.1613 16.5161V10.0578C21.1613 8.76232 20.4625 7.55974 19.3368 6.91871L9.4431 1.28206C8.99406 0.519226 8.17342 0 7.22581 0C5.80903 0 4.65652 1.1489 4.64671 2.56361H4.64516L4.144 17.599C2.96052 17.8333 2.06452 18.8779 2.06452 20.129C2.06452 20.6839 2.24413 21.1948 2.54348 21.6165L1.0751 23.329C0.381611 24.1384 0.000302989 25.169 0 26.2348C0 27.4281 0.464516 28.5492 1.30787 29.3925L2.85677 30.9414C3.5391 31.6237 4.44645 32 5.41161 32H10.8387V30.9677H9.80645V28.1394L8.03355 26.721C7.49523 26.2906 7.15716 25.6764 7.08077 24.991L6.71071 21.6604C7.03019 21.2304 7.22581 20.704 7.22581 20.129C7.22581 19.329 6.85213 18.6219 6.27871 18.1481L8.67819 4.71123C8.76903 4.64877 8.85006 4.57445 8.93264 4.50116L14.2281 9.79665C14.0465 10.1037 13.9355 10.4568 13.9355 10.8387C13.9355 11.7977 14.5961 12.5992 15.4839 12.8299V16.5161H15.2981C14.5626 16.5161 13.9236 17.0395 13.7796 17.7605L12.3974 24.673L12.3902 25.8606C11.7507 26.5125 11.3548 27.4039 11.3548 28.3871C11.3548 30.3788 12.9755 32 14.9677 32H28.3871C30.3794 32 32 30.3788 32 28.3871C32 27.4054 31.6052 26.5151 30.9677 25.8637ZM4.64516 18.5806C5.49884 18.5806 6.19355 19.2754 6.19355 20.129C6.19355 20.9827 5.49884 21.6774 4.64516 21.6774C3.79148 21.6774 3.09677 20.9827 3.09677 20.129C3.09677 19.2754 3.79148 18.5806 4.64516 18.5806ZM7.3889 27.5272L8.77419 28.6348V28.9032H7.74194V29.9355H8.77419V30.9677H5.41161C4.72206 30.9677 4.07381 30.6988 3.58658 30.2116L2.03768 28.6627C1.38942 28.0145 1.03226 27.152 1.03226 26.2348C1.03249 25.4153 1.32575 24.6228 1.8591 24.0005L3.29961 22.3205C3.69239 22.5626 4.15071 22.7097 4.64516 22.7097C5.04619 22.7097 5.4209 22.6101 5.76 22.4459L6.05523 25.1045C6.16155 26.064 6.63535 26.9244 7.3889 27.5272ZM5.31974 17.649C5.27123 17.6356 5.22632 17.615 5.17729 17.6046L5.61135 4.57703C6.05471 4.93677 6.61161 5.16129 7.22581 5.16129C7.33884 5.16129 7.44619 5.14219 7.55561 5.12774L5.31974 17.649ZM7.22581 4.12903C6.37213 4.12903 5.67742 3.43432 5.67742 2.58065C5.67742 1.72697 6.37213 1.03226 7.22581 1.03226C8.07948 1.03226 8.77419 1.72697 8.77419 2.58065C8.77419 3.43432 8.07948 4.12903 7.22581 4.12903ZM22.7097 20.6452H23.7419V19.6129H22.7097V18.5806H28.3871C28.6715 18.5806 28.9032 18.8119 28.9032 19.0968V19.6129H24.7742V20.6452H29.4194C29.7037 20.6452 29.9355 20.8764 29.9355 21.1613V25.1277C29.4653 24.9037 28.9419 24.7742 28.3871 24.7742H22.7097V20.6452ZM9.55819 3.6671C9.70398 3.35485 9.78525 3.0164 9.79716 2.672L18.8258 7.81574C19.6299 8.27355 20.129 9.1329 20.129 10.0578V16.5161H16.5161V12.8299C17.4039 12.5992 18.0645 11.7977 18.0645 10.8387C18.0645 9.70013 17.1386 8.77419 16 8.77419C15.6181 8.77419 15.265 8.88516 14.9579 9.06684L9.55819 3.6671ZM14.9677 10.8387C14.9677 10.2694 15.4307 9.80645 16 9.80645C16.5693 9.80645 17.0323 10.2694 17.0323 10.8387C17.0323 11.408 16.5693 11.871 16 11.871C15.4307 11.871 14.9677 11.408 14.9677 10.8387ZM13.4194 24.8253L14.7917 17.9634C14.8397 17.7228 15.0529 17.5484 15.2981 17.5484H21.1613C21.4457 17.5484 21.6774 17.7796 21.6774 18.0645V24.7742H14.9677C14.4129 24.7742 13.8895 24.9037 13.4194 25.1277V24.8253ZM28.3871 30.9677H14.9677C13.5448 30.9677 12.3871 29.8101 12.3871 28.3871C12.3871 26.9641 13.5448 25.8064 14.9677 25.8064H28.3871C29.8101 25.8064 30.9677 26.9641 30.9677 28.3871C30.9677 29.8101 29.8101 30.9677 28.3871 30.9677Z" fill="#303030"/>
<path d="M27.871 26.3226C27.2516 26.3226 26.7014 26.6023 26.3226 27.0359C25.9438 26.6023 25.3936 26.3226 24.7742 26.3226C24.1549 26.3226 23.6047 26.6023 23.2258 27.0359C22.847 26.6023 22.2968 26.3226 21.6774 26.3226C21.0581 26.3226 20.5079 26.6023 20.129 27.0359C19.7502 26.6023 19.2 26.3226 18.5807 26.3226C17.9613 26.3226 17.4111 26.6023 17.0323 27.0359C16.6534 26.6023 16.1032 26.3226 15.4839 26.3226C14.3453 26.3226 13.4194 27.2485 13.4194 28.3871C13.4194 29.5257 14.3453 30.4516 15.4839 30.4516C16.1032 30.4516 16.6534 30.1719 17.0323 29.7383C17.4111 30.1719 17.9613 30.4516 18.5807 30.4516C19.2 30.4516 19.7502 30.1719 20.129 29.7383C20.5079 30.1719 21.0581 30.4516 21.6774 30.4516C22.2968 30.4516 22.847 30.1719 23.2258 29.7383C23.6047 30.1719 24.1549 30.4516 24.7742 30.4516C25.3936 30.4516 25.9438 30.1719 26.3226 29.7383C26.7014 30.1719 27.2516 30.4516 27.871 30.4516C29.0096 30.4516 29.9355 29.5257 29.9355 28.3871C29.9355 27.2485 29.0096 26.3226 27.871 26.3226ZM15.4839 29.4194C14.9146 29.4194 14.4516 28.9564 14.4516 28.3871C14.4516 27.8178 14.9146 27.3549 15.4839 27.3549C16.0532 27.3549 16.5161 27.8178 16.5161 28.3871C16.5161 28.9564 16.0532 29.4194 15.4839 29.4194ZM18.5807 29.4194C18.0114 29.4194 17.5484 28.9564 17.5484 28.3871C17.5484 27.8178 18.0114 27.3549 18.5807 27.3549C19.15 27.3549 19.6129 27.8178 19.6129 28.3871C19.6129 28.9564 19.15 29.4194 18.5807 29.4194ZM21.6774 29.4194C21.1081 29.4194 20.6452 28.9564 20.6452 28.3871C20.6452 27.8178 21.1081 27.3549 21.6774 27.3549C22.2467 27.3549 22.7097 27.8178 22.7097 28.3871C22.7097 28.9564 22.2467 29.4194 21.6774 29.4194ZM24.7742 29.4194C24.2049 29.4194 23.742 28.9564 23.742 28.3871C23.742 27.8178 24.2049 27.3549 24.7742 27.3549C25.3435 27.3549 25.8065 27.8178 25.8065 28.3871C25.8065 28.9564 25.3435 29.4194 24.7742 29.4194ZM27.871 29.4194C27.3017 29.4194 26.8387 28.9564 26.8387 28.3871C26.8387 27.8178 27.3017 27.3549 27.871 27.3549C28.4403 27.3549 28.9032 27.8178 28.9032 28.3871C28.9032 28.9564 28.4403 29.4194 27.871 29.4194ZM21.1613 18.5807H15.5768L14.9776 21.5763L14.9678 22.7097H21.1613V18.5807ZM20.129 21.6774H16.0103L16.4232 19.6129H20.129V21.6774ZM26.8387 21.6774H28.9032V22.7097H26.8387V21.6774ZM23.742 21.6774H25.8065V22.7097H23.742V21.6774Z" fill="#303030"/>
</g>
<defs>
<clipPath id="clip0_8_98">
<rect width="32" height="32" fill="white"/>
</clipPath>
</defs>
</svg>
