<svg width="32" height="32" viewBox="0 0 32 32" fill="none" xmlns="http://www.w3.org/2000/svg">
<path d="M7.7333 23.0198C6.7023 23.0198 5.86664 23.8555 5.86664 24.8865C5.86664 25.9175 6.7023 26.7531 7.7333 26.7531C8.76431 26.7531 9.59997 25.9175 9.59997 24.8865C9.59997 23.8555 8.76431 23.0198 7.7333 23.0198ZM7.7333 25.6865C7.29137 25.6865 6.9333 25.3284 6.9333 24.8865C6.9333 24.4445 7.29137 24.0865 7.7333 24.0865C8.17524 24.0865 8.5333 24.4445 8.5333 24.8865C8.5333 25.3284 8.17524 25.6865 7.7333 25.6865ZM22.1333 26.7531C23.1643 26.7531 24 25.9175 24 24.8865C24 23.8555 23.1643 23.0198 22.1333 23.0198C21.1023 23.0198 20.2666 23.8555 20.2666 24.8865C20.2666 25.9175 21.1023 26.7531 22.1333 26.7531ZM22.1333 24.0865C22.5752 24.0865 22.9333 24.4445 22.9333 24.8865C22.9333 25.3284 22.5752 25.6865 22.1333 25.6865C21.6914 25.6865 21.3333 25.3284 21.3333 24.8865C21.3333 24.4445 21.6914 24.0865 22.1333 24.0865Z" fill="#303030"/>
<path d="M26.1333 24.8865C26.1333 24.3267 26.0159 23.7731 25.7885 23.2616C25.5611 22.7501 25.2289 22.292 24.8133 21.9169C24.3978 21.5418 23.9081 21.258 23.376 21.0841C22.8438 20.9102 22.2811 20.8499 21.7242 20.9073L21.3169 19.6807L21.0885 18.5399L21.8352 13.6865L25.3104 10.4677C25.3497 10.4594 25.3899 10.4539 25.4299 10.4427L25.8886 10.3114L26.1818 10.9719C26.2238 11.0653 26.2919 11.1447 26.3779 11.2005C26.4639 11.2563 26.5642 11.2862 26.6667 11.2865H31.4667C31.6823 11.2865 31.8768 11.1565 31.9593 10.9573C32.0419 10.7581 31.9961 10.5286 31.8437 10.3761L29.8239 8.35572L28.2027 0.426785C28.1841 0.335352 28.1418 0.250407 28.08 0.180446C28.0183 0.110484 27.9393 0.0579568 27.8509 0.0281179C27.7625 -0.00180067 27.6677 -0.00797218 27.5762 0.0102212C27.4847 0.0284146 27.3995 0.0703345 27.3293 0.131785L24.7084 2.42525C24.6156 2.50618 24.5537 2.6168 24.5333 2.73825L24.0081 5.86459C23.9906 5.96787 24.0039 6.07401 24.0463 6.16979L24.3664 6.89559L23.8086 7.35205C23.6307 7.49976 23.4836 7.68097 23.3755 7.88539L17.3333 12.2774C17.2615 12.3296 17.2038 12.3989 17.1655 12.479C17.1272 12.5591 17.1095 12.6475 17.114 12.7362L17.4138 18.6299L17.1297 20.8865H15.4667C15.3252 20.8865 15.1896 20.9426 15.0895 21.0427C14.9895 21.1427 14.9333 21.2783 14.9333 21.4198H13.8667V19.8198H16C16.1414 19.8198 16.2771 19.7636 16.3771 19.6636C16.4771 19.5636 16.5333 19.4279 16.5333 19.2865V18.2198C16.5333 18.1656 16.525 18.1115 16.5089 18.0599L13.8422 9.52652C13.8081 9.41824 13.7404 9.32365 13.6489 9.2565C13.5574 9.18935 13.4468 9.15313 13.3333 9.15312V8.08645H12.2667V9.15312H9.06667V8.08645H8V9.15312C7.85855 9.15312 7.7229 9.20931 7.62288 9.30933C7.52286 9.40935 7.46667 9.545 7.46667 9.68645V16.0865H5.33333V12.8865C5.33333 11.7083 4.37813 10.7531 3.2 10.7531H2.66667V11.8198H3.2C3.78907 11.8198 4.26667 12.2974 4.26667 12.8865V16.0865H2.13333V15.5531H2.66667C2.80812 15.5531 2.94377 15.4969 3.04379 15.3969C3.14381 15.2969 3.2 15.1612 3.2 15.0198V13.4198C3.2 13.2783 3.14381 13.1427 3.04379 13.0427C2.94377 12.9426 2.80812 12.8865 2.66667 12.8865H0.533333C0.391885 12.8865 0.256229 12.9426 0.15621 13.0427C0.0561903 13.1427 0 13.2783 0 13.4198L0 15.0198C0 15.1612 0.0561903 15.2969 0.15621 15.3969C0.256229 15.4969 0.391885 15.5531 0.533333 15.5531H1.06667V16.0865H0.533333C0.391885 16.0865 0.256229 16.1426 0.15621 16.2427C0.0561903 16.3427 0 16.4783 0 16.6198L0 25.6865C0 25.8279 0.0561903 25.9636 0.15621 26.0636C0.256229 26.1636 0.391885 26.2198 0.533333 26.2198H3.96693C4.18462 26.8307 4.54715 27.3797 5.02347 27.8198H0V28.8865H32V27.8198H24.8443C25.2504 27.4467 25.5747 26.9933 25.7966 26.4884C26.0185 25.9835 26.1332 25.438 26.1333 24.8865ZM1.06667 13.9531H2.13333V14.4865H1.06667V13.9531ZM25.0667 24.8865C25.0667 26.5065 23.7533 27.8198 22.1333 27.8198C20.5133 27.8198 19.2 26.5065 19.2 24.8865C19.2 23.2665 20.5133 21.9531 22.1333 21.9531C23.7527 21.9552 25.0646 23.2671 25.0667 24.8865ZM25.5531 3.10232L27.3409 1.53878L28.8112 8.72652C28.8318 8.82898 28.8823 8.92304 28.9563 8.99685L30.1792 10.2198H27.0133L26.6732 9.45392L25.5354 6.89399L25.0865 5.88385L25.5531 3.10232ZM24.4865 8.17705L24.8177 7.90625L25.4479 9.32499L25.1344 9.41459C24.9714 9.46261 24.7965 9.45026 24.6418 9.37981C24.4871 9.30935 24.363 9.18551 24.2922 9.03098C24.2252 8.88722 24.208 8.72526 24.2433 8.57065C24.2786 8.41603 24.3638 8.27755 24.4865 8.17705ZM23.2555 9.29058C23.2753 9.35545 23.2985 9.41899 23.3253 9.48125C23.4688 9.79085 23.6984 10.0526 23.9867 10.2351L20.9706 13.0289C20.8822 13.1107 20.8243 13.2202 20.8065 13.3393L20.2539 16.9451C19.9847 16.7522 19.6661 16.6401 19.3355 16.6218C19.0049 16.6036 18.6759 16.6801 18.3872 16.8422L18.1903 12.9703L23.2555 9.29058ZM17.6 21.9531C17.73 21.9531 17.8555 21.9057 17.953 21.8196C18.0504 21.7336 18.1131 21.6149 18.1292 21.4859L18.4799 18.6763V18.6672L18.5237 18.3175C18.5444 18.1476 18.625 17.9908 18.751 17.875C18.8769 17.7592 19.04 17.6921 19.211 17.6857C19.3819 17.6792 19.5495 17.7339 19.6838 17.8399C19.818 17.9459 19.9101 18.0963 19.9435 18.2641L20.2763 19.9232C20.2799 19.945 20.2857 19.9664 20.2932 19.9872L20.6844 21.1607C19.1479 21.7589 18.1354 23.2377 18.1333 24.8865C18.1333 24.9765 18.1409 25.0646 18.1467 25.1531H16V21.9531H17.6ZM14.9333 22.4865V24.0865H13.8667V22.4865H14.9333ZM14.9414 16.6198H10.6667V12.3531H13.6081L14.9414 16.6198ZM8 17.1531C8.14145 17.1531 8.2771 17.0969 8.37712 16.9969C8.47714 16.8969 8.53333 16.7612 8.53333 16.6198V10.2198H12.9414L13.2747 11.2865H10.1333C9.99189 11.2865 9.85623 11.3426 9.75621 11.4427C9.65619 11.5427 9.6 11.6783 9.6 11.8198V17.1531C9.6 17.2946 9.65619 17.4302 9.75621 17.5302C9.85623 17.6303 9.99189 17.6865 10.1333 17.6865H15.2747L15.4667 18.3008V18.7531H5.86667C5.73679 18.7531 5.61137 18.8005 5.514 18.8865L1.93227 22.0422H1.06667V17.1531H8ZM1.06667 25.1531V23.1089H2.13333C2.26321 23.1089 2.38863 23.0615 2.486 22.9755L6.06873 19.8198H12.8V25.1531H11.7206C11.7263 25.0646 11.7339 24.9765 11.7339 24.8865C11.7339 22.6773 9.943 20.8865 7.73387 20.8865C5.52473 20.8865 3.73387 22.6773 3.73387 24.8865C3.73387 24.9765 3.7414 25.0646 3.74713 25.1531H1.06667ZM4.8 24.8865C4.8 23.2665 6.11333 21.9531 7.73333 21.9531C9.35333 21.9531 10.6667 23.2665 10.6667 24.8865C10.6667 26.5065 9.35333 27.8198 7.73333 27.8198C6.114 27.8177 4.80207 26.5057 4.8 24.8865ZM10.4443 27.8198C10.9207 27.3799 11.2831 26.8308 11.5003 26.2198H13.3333C13.4748 26.2198 13.6104 26.1636 13.7105 26.0636C13.8105 25.9636 13.8667 25.8279 13.8667 25.6865V25.1531H14.9333V25.6865C14.9333 25.8279 14.9895 25.9636 15.0895 26.0636C15.1896 26.1636 15.3252 26.2198 15.4667 26.2198H18.3664C18.584 26.8307 18.9465 27.3798 19.4229 27.8198H10.4443Z" fill="#303030"/>
<path d="M2.13336 18.2198H3.20003V19.2865H2.13336V18.2198Z" fill="#303030"/>
</svg>
