<svg width="32" height="32" viewBox="0 0 32 32" fill="none" xmlns="http://www.w3.org/2000/svg">
<path d="M21.6349 28.4355C21.5584 28.4354 21.4846 28.4072 21.4275 28.3563C21.3703 28.3055 21.3338 28.2354 21.3249 28.1594L19.1355 9.49767L18.6312 5.19886C18.6216 5.11654 18.645 5.03377 18.6964 4.96876C18.7478 4.90374 18.823 4.8618 18.9053 4.85217C18.946 4.84735 18.9874 4.85062 19.0269 4.8618C19.0664 4.87297 19.1033 4.89182 19.1355 4.91728C19.1677 4.94274 19.1945 4.9743 19.2145 5.01015C19.2345 5.04601 19.2472 5.08545 19.252 5.12623L19.7563 9.42479L21.9456 28.0865C21.9508 28.1304 21.9466 28.1748 21.9333 28.2169C21.92 28.259 21.898 28.2978 21.8686 28.3308C21.8393 28.3638 21.8033 28.3902 21.763 28.4082C21.7227 28.4262 21.679 28.4355 21.6349 28.4355ZM22.9063 28.4355C22.8298 28.4354 22.756 28.4072 22.6989 28.3563C22.6417 28.3054 22.6052 28.2354 22.5963 28.1594L19.9034 5.19892C19.8986 5.15816 19.9019 5.11686 19.9131 5.07737C19.9243 5.03788 19.9431 5.00098 19.9686 4.96878C19.994 4.93658 20.0255 4.90971 20.0614 4.8897C20.0972 4.86969 20.1366 4.85694 20.1774 4.85217C20.2182 4.84731 20.2595 4.85054 20.299 4.86169C20.3385 4.87284 20.3754 4.89168 20.4077 4.91713C20.4399 4.94258 20.4667 4.97414 20.4867 5.01C20.5067 5.04587 20.5194 5.08532 20.5241 5.12611L23.2171 28.0866C23.2222 28.1304 23.218 28.1749 23.2047 28.217C23.1915 28.2591 23.1694 28.2979 23.1401 28.3308C23.1107 28.3638 23.0747 28.3902 23.0344 28.4082C22.9941 28.4262 22.9505 28.4355 22.9063 28.4355ZM9.09364 28.4355C9.0495 28.4355 9.00585 28.4263 8.96556 28.4082C8.92527 28.3902 8.88925 28.3638 8.85989 28.3309C8.83053 28.2979 8.80849 28.2591 8.79522 28.217C8.78195 28.1749 8.77775 28.1304 8.78289 28.0866L11.4758 5.12611C11.4865 5.04465 11.5288 4.97067 11.5936 4.92017C11.6584 4.86968 11.7405 4.84674 11.8221 4.85631C11.9037 4.86588 11.9782 4.9072 12.0296 4.97132C12.081 5.03544 12.105 5.1172 12.0965 5.19892L9.40358 28.1594C9.39468 28.2353 9.35821 28.3054 9.30108 28.3563C9.24396 28.4072 9.17015 28.4354 9.09364 28.4355ZM10.3659 28.4355C10.3218 28.4355 10.2781 28.4263 10.2378 28.4082C10.1975 28.3902 10.1615 28.3638 10.1321 28.3309C10.1028 28.2979 10.0807 28.2591 10.0675 28.217C10.0542 28.1749 10.05 28.1304 10.0551 28.0866L12.748 5.12623C12.7581 5.04437 12.8003 4.96985 12.8652 4.91892C12.9301 4.868 13.0125 4.8448 13.0944 4.85439C13.1763 4.86397 13.2511 4.90556 13.3025 4.97009C13.3539 5.03463 13.3777 5.11686 13.3687 5.19886L12.8652 9.49692L10.6758 28.1594C10.6669 28.2353 10.6305 28.3054 10.5733 28.3563C10.5162 28.4072 10.4424 28.4354 10.3659 28.4355Z" fill="#303030"/>
<path d="M24.1419 29.75H7.85797C7.77509 29.75 7.69561 29.7171 7.637 29.6584C7.5784 29.5998 7.54547 29.5204 7.54547 29.4375V28.1229C7.54547 28.04 7.5784 27.9605 7.637 27.9019C7.69561 27.8433 7.77509 27.8104 7.85797 27.8104H24.1419C24.2248 27.8104 24.3043 27.8433 24.3629 27.9019C24.4215 27.9605 24.4544 28.04 24.4544 28.1229V29.4375C24.4544 29.5204 24.4215 29.5998 24.3629 29.6584C24.3043 29.7171 24.2248 29.75 24.1419 29.75ZM8.17047 29.125H23.8294V28.4354H8.17047V29.125ZM21.2965 5.4751H10.7037C10.6208 5.4751 10.5414 5.44218 10.4828 5.38357C10.4241 5.32497 10.3912 5.24548 10.3912 5.1626V3.96448C10.3912 3.8816 10.4241 3.80211 10.4828 3.74351C10.5414 3.6849 10.6208 3.65198 10.7037 3.65198H21.2965C21.3794 3.65198 21.4589 3.6849 21.5175 3.74351C21.5761 3.80211 21.609 3.8816 21.609 3.96448V5.16254C21.609 5.20358 21.601 5.24423 21.5853 5.28215C21.5696 5.32007 21.5465 5.35453 21.5175 5.38355C21.4885 5.41258 21.4541 5.4356 21.4161 5.45131C21.3782 5.46702 21.3376 5.4751 21.2965 5.4751ZM11.0162 4.8501H20.984V4.27704H11.0162V4.8501Z" fill="#303030"/>
<path d="M17.285 4.277C17.2021 4.277 17.1226 4.24408 17.064 4.18547C17.0054 4.12687 16.9725 4.04738 16.9725 3.9645V2.875H15.0278V3.9645C15.0278 4.04738 14.9948 4.12687 14.9362 4.18547C14.8776 4.24408 14.7981 4.277 14.7153 4.277C14.6324 4.277 14.5529 4.24408 14.4943 4.18547C14.4357 4.12687 14.4028 4.04738 14.4028 3.9645V2.5625C14.4028 2.47962 14.4357 2.40013 14.4943 2.34153C14.5529 2.28292 14.6324 2.25 14.7153 2.25H17.285C17.3679 2.25 17.4474 2.28292 17.506 2.34153C17.5646 2.40013 17.5975 2.47962 17.5975 2.5625V3.9645C17.5975 4.04738 17.5646 4.12687 17.506 4.18547C17.4474 4.24408 17.3679 4.277 17.285 4.277ZM19.4456 9.77381C19.3956 9.77379 19.3464 9.76175 19.302 9.73869L15.857 7.9525C15.8536 7.95075 15.8503 7.94888 15.8469 7.94706L12.8056 6.37206C12.7689 6.35335 12.7362 6.32756 12.7095 6.29618C12.6828 6.2648 12.6626 6.22845 12.65 6.18922C12.6374 6.14999 12.6327 6.10865 12.6361 6.06759C12.6395 6.02653 12.6511 5.98655 12.67 5.94996C12.6889 5.91337 12.7149 5.88089 12.7465 5.85439C12.778 5.82788 12.8145 5.80788 12.8538 5.79553C12.8931 5.78317 12.9345 5.77872 12.9755 5.78241C13.0166 5.78611 13.0565 5.79789 13.093 5.81706L16.1436 7.39688C16.1471 7.39869 16.1505 7.40056 16.154 7.4025L19.5897 9.18381C19.6519 9.21602 19.7015 9.2682 19.7305 9.33197C19.7595 9.39573 19.7662 9.46739 19.7496 9.53544C19.733 9.60349 19.694 9.66398 19.6389 9.70721C19.5837 9.75044 19.5157 9.77389 19.4456 9.77381Z" fill="#303030"/>
<path d="M12.5551 9.7731C12.4978 9.77316 12.4416 9.75744 12.3926 9.72766C12.3436 9.69788 12.3038 9.6552 12.2774 9.60429C12.2586 9.56786 12.247 9.52806 12.2435 9.48717C12.24 9.44628 12.2446 9.4051 12.257 9.36598C12.2695 9.32687 12.2895 9.29059 12.3159 9.25921C12.3424 9.22783 12.3747 9.20197 12.4112 9.1831L15.8473 7.40298C15.8506 7.40117 15.8538 7.39935 15.8571 7.39767L18.9068 5.81717C18.9802 5.78084 19.0649 5.77477 19.1428 5.80026C19.2206 5.82575 19.2853 5.88077 19.323 5.95349C19.3607 6.0262 19.3683 6.1108 19.3443 6.18908C19.3202 6.26737 19.2664 6.33309 19.1944 6.3721L16.1536 7.94798C16.1503 7.94985 16.147 7.9516 16.1437 7.95329L12.6986 9.73804C12.6543 9.76106 12.6051 9.77308 12.5551 9.7731ZM20.0521 14.9456C20.0021 14.9456 19.9529 14.9335 19.9085 14.9105L15.857 12.8099C15.8536 12.8082 15.8502 12.8063 15.8469 12.8044L12.2689 10.9508C12.1963 10.9121 12.1418 10.8464 12.1173 10.7678C12.0929 10.6893 12.1004 10.6043 12.1382 10.5312C12.1761 10.4581 12.2412 10.403 12.3195 10.3776C12.3977 10.3523 12.4828 10.3588 12.5563 10.3959L16.1436 12.2543C16.1471 12.2561 16.1505 12.258 16.1539 12.2599L20.1962 14.3556C20.2584 14.3878 20.308 14.44 20.337 14.5038C20.366 14.5675 20.3727 14.6392 20.3561 14.7072C20.3395 14.7753 20.3005 14.8358 20.2453 14.879C20.1902 14.9222 20.1222 14.9457 20.0521 14.9456Z" fill="#303030"/>
<path d="M11.9479 14.9463C11.8778 14.9464 11.8098 14.9229 11.7547 14.8797C11.6995 14.8365 11.6605 14.776 11.6439 14.7079C11.6273 14.6399 11.634 14.5682 11.663 14.5045C11.692 14.4407 11.7416 14.3885 11.8038 14.3563L15.8472 12.2603C15.8505 12.2585 15.8538 12.2567 15.8571 12.255L19.4444 10.3958C19.518 10.3577 19.6037 10.3503 19.6827 10.3754C19.7617 10.4005 19.8275 10.4559 19.8656 10.5295C19.9038 10.6031 19.9111 10.6888 19.886 10.7678C19.8609 10.8468 19.8055 10.9126 19.7319 10.9508L16.1536 12.8053C16.1502 12.8071 16.1471 12.8089 16.1437 12.8106L12.0914 14.9111C12.0471 14.9342 11.9978 14.9463 11.9479 14.9463ZM20.7482 20.8774C20.6982 20.8774 20.649 20.8654 20.6046 20.8423L15.8569 18.3813L11.6524 16.2029C11.6159 16.184 11.5836 16.1581 11.5571 16.1267C11.5307 16.0954 11.5107 16.0591 11.4983 16.0199C11.4859 15.9808 11.4813 15.9396 11.4848 15.8988C11.4883 15.8579 11.4998 15.8181 11.5187 15.7816C11.5376 15.7452 11.5634 15.7128 11.5948 15.6864C11.6262 15.66 11.6625 15.64 11.7016 15.6275C11.7407 15.6151 11.7819 15.6105 11.8228 15.614C11.8637 15.6175 11.9035 15.6291 11.9399 15.6479L16.1446 17.8264L20.8922 20.2875C20.9544 20.3197 21.004 20.3719 21.0329 20.4357C21.0619 20.4994 21.0686 20.5711 21.052 20.6391C21.0354 20.7071 20.9964 20.7676 20.9413 20.8108C20.8862 20.854 20.8182 20.8775 20.7482 20.8774Z" fill="#303030"/>
<path d="M11.2521 20.8775C11.1821 20.8775 11.114 20.8541 11.0589 20.8109C11.0038 20.7676 10.9648 20.7071 10.9482 20.6391C10.9316 20.571 10.9383 20.4994 10.9673 20.4356C10.9963 20.3718 11.0459 20.3197 11.1081 20.2875L20.0604 15.6479C20.0968 15.629 20.1366 15.6175 20.1775 15.614C20.2184 15.6105 20.2596 15.6151 20.2987 15.6275C20.3378 15.6399 20.3741 15.6599 20.4055 15.6863C20.4369 15.7128 20.4627 15.7451 20.4816 15.7816C20.5005 15.818 20.512 15.8578 20.5155 15.8987C20.519 15.9396 20.5144 15.9808 20.502 16.0199C20.4896 16.059 20.4696 16.0953 20.4432 16.1267C20.4167 16.1581 20.3844 16.1839 20.3479 16.2028L11.3956 20.8424C11.3513 20.8654 11.3021 20.8774 11.2521 20.8775ZM21.5275 27.5195C21.4775 27.5195 21.4283 27.5075 21.3839 27.4844L15.8569 24.6194L10.9622 22.0833C10.9258 22.0645 10.8934 22.0386 10.867 22.0072C10.8406 21.9758 10.8206 21.9395 10.8082 21.9004C10.7957 21.8613 10.7912 21.8201 10.7947 21.7793C10.7982 21.7384 10.8097 21.6986 10.8286 21.6621C10.8667 21.5886 10.9325 21.5332 11.0115 21.5081C11.0905 21.483 11.1762 21.4903 11.2498 21.5284L16.1445 24.0645L21.6716 26.9295C21.7338 26.9617 21.7834 27.0138 21.8124 27.0776C21.8414 27.1414 21.8482 27.2131 21.8316 27.2811C21.8149 27.3492 21.7759 27.4097 21.7208 27.453C21.6656 27.4962 21.5976 27.5196 21.5275 27.5195Z" fill="#303030"/>
<path d="M10.4727 27.5195C10.4027 27.5196 10.3346 27.4961 10.2795 27.4529C10.2244 27.4096 10.1854 27.3492 10.1688 27.2811C10.1522 27.2131 10.1589 27.1414 10.1879 27.0777C10.2169 27.0139 10.2665 26.9617 10.3287 26.9295L20.7504 21.5284C20.824 21.4903 20.9097 21.483 20.9887 21.508C21.0677 21.5331 21.1335 21.5885 21.1716 21.6621C21.2098 21.7357 21.2171 21.8215 21.192 21.9005C21.167 21.9794 21.1116 22.0453 21.038 22.0834L10.6163 27.4844C10.5719 27.5075 10.5227 27.5195 10.4727 27.5195ZM17.5497 28.4355C17.4668 28.4355 17.3873 28.4026 17.3287 28.344C17.2701 28.2854 17.2372 28.2059 17.2372 28.123V27.2276H14.7627V28.123C14.7627 28.2059 14.7298 28.2854 14.6712 28.344C14.6126 28.4026 14.5331 28.4355 14.4502 28.4355C14.3673 28.4355 14.2878 28.4026 14.2292 28.344C14.1706 28.2854 14.1377 28.2059 14.1377 28.123V26.9151C14.1377 26.8323 14.1706 26.7528 14.2292 26.6942C14.2878 26.6356 14.3673 26.6026 14.4502 26.6026H17.5497C17.6326 26.6026 17.7121 26.6356 17.7707 26.6942C17.8293 26.7528 17.8622 26.8323 17.8622 26.9151V28.123C17.8622 28.2059 17.8293 28.2854 17.7707 28.344C17.7121 28.4026 17.6326 28.4355 17.5497 28.4355Z" fill="#303030"/>
</svg>
