<svg width="53" height="23" viewBox="0 0 53 23" fill="none" xmlns="http://www.w3.org/2000/svg">
<g clip-path="url(#clip0_9_131)">
<path fill-rule="evenodd" clip-rule="evenodd" d="M1.09403 18.9476C1.10368 18.861 1.12288 18.7744 1.14218 18.6974L1.19988 18.3798C1.20953 18.3316 1.20953 18.2739 1.22878 18.2162C1.23838 18.168 1.24799 18.1295 1.25763 18.0911C1.26728 18.0044 1.28648 17.9178 1.29613 17.8216C1.30578 17.735 1.33463 17.6484 1.34428 17.581C1.34428 17.5233 1.43092 17.0324 1.45013 16.9939C1.45013 16.9169 1.56567 16.1951 1.58487 16.1566C1.59452 16.0219 1.64258 15.8678 1.65223 15.7331C1.66187 15.5791 1.71962 15.377 1.73887 15.2231C1.74852 15.0883 1.78702 14.9151 1.80627 14.7803C1.81591 14.7033 1.82547 14.6456 1.84476 14.559C1.85441 14.5012 1.87366 14.4434 1.87366 14.3665C1.90251 14.2702 1.91216 14.0874 1.94101 14.0103C1.95066 13.866 1.98916 13.7216 2.00841 13.5772C2.01801 13.5195 2.02761 13.481 2.03726 13.4136C2.04691 13.3655 2.03726 13.327 2.06616 13.3077C2.06616 13.1826 2.11426 13.0575 2.11426 12.9516C2.14315 12.788 2.18165 12.6148 2.2009 12.4512C2.22015 12.3357 2.2394 12.2298 2.25865 12.1143C2.26826 12.0758 2.27786 11.9892 2.2875 11.9507C2.29715 11.893 2.30675 11.8737 2.30675 11.816C2.31636 11.7294 2.33561 11.6428 2.35486 11.5561C2.3645 11.4887 2.39336 11.3829 2.39336 11.3252C2.41261 11.2289 2.4319 11.123 2.4415 11.0364C2.45115 10.8439 2.52815 10.6514 2.52815 10.4493C2.54735 10.4012 2.57629 10.2376 2.57629 10.1894C2.5955 10.0932 2.61479 9.98734 2.62444 9.9007L2.71108 9.37136C2.72068 9.33286 2.72068 9.32321 2.72068 9.28471C2.72068 9.26546 2.72068 9.26546 2.73033 9.24621L2.73998 9.22696C2.73998 9.08261 2.78808 8.90937 2.80733 8.77462C2.80733 8.71691 2.85547 8.43777 2.87472 8.40888C2.87472 8.28378 2.91322 8.23567 2.91322 8.12013C2.92287 8.07199 2.96137 7.89879 2.96137 7.84104C2.96137 7.77368 2.98057 7.74483 2.99022 7.67744L3.06722 7.2732C3.06722 7.14809 3.08647 7.0903 3.10576 6.97481C3.11536 6.93631 3.14426 6.75342 3.15386 6.70536C3.16351 6.61871 3.18276 6.56096 3.19236 6.46476C3.20201 6.39736 3.27901 5.85837 3.3079 5.82952C3.3079 5.74288 3.31751 5.72367 3.33676 5.64667C3.3464 5.57928 3.3849 5.24243 3.4138 5.21353C3.4138 5.10768 3.433 5.03069 3.4523 4.92479C3.4715 4.82854 3.4715 4.76119 3.5004 4.68419L3.60629 4.07785C3.60629 4.00081 3.69294 3.48112 3.71214 3.45226C3.71214 3.36562 3.78914 2.90367 3.81799 2.84592C3.81799 2.77853 3.86614 2.48018 3.88539 2.44164C3.88539 2.35504 3.91424 2.20108 3.93353 2.11444C3.93353 2.05669 4.05864 1.3445 4.06824 1.30596C4.06824 1.17125 4.11638 1.00761 4.13563 0.872864C4.13563 0.795866 4.14524 0.815116 4.15484 0.757324H25.088L24.9918 1.39252C24.9726 1.48877 25.0014 1.43102 24.9533 1.46952L24.9629 1.51766C24.934 1.66201 24.857 2.29725 24.8089 2.3646C24.8185 2.45124 24.7319 3.02869 24.6934 3.08644C24.703 3.18264 24.6164 3.66392 24.5876 3.77938L24.5298 4.10662L24.347 5.1076C24.3566 5.17495 24.27 5.70429 24.2411 5.75244C24.2507 5.89679 24.193 6.11818 24.1641 6.27218L24.0775 6.78222C24.0678 6.80147 24.0678 6.80147 24.0678 6.82077L24.0582 6.84962C24.0678 6.92662 24.0486 7.10951 24.0005 7.16722C24.0101 7.27307 23.962 7.47521 23.9427 7.58106C23.9235 7.69656 23.8465 8.25475 23.808 8.30286C23.8176 8.3895 23.7503 8.85145 23.7021 8.90924C23.7118 8.95734 23.6636 9.35194 23.6155 9.40968C23.6347 9.53479 23.5193 10.0064 23.5 10.1796C23.4711 10.2855 23.4615 10.401 23.4423 10.5069L23.3749 10.8437C23.3845 10.8919 23.3267 11.3827 23.269 11.4597C23.2882 11.5367 23.2594 11.7195 23.2113 11.7773C23.2209 11.8639 23.1921 11.9601 23.1824 12.0564L23.0766 12.5857C23.0862 12.6531 23.0573 12.8745 23.0188 12.9226C23.0285 13.0188 22.9803 13.3557 22.9322 13.423C22.9418 13.5193 22.913 13.6252 22.8937 13.7214C22.884 13.7888 22.8648 13.962 22.8263 14.0102C22.8359 14.0679 22.8263 14.1161 22.8167 14.1738C22.8167 14.2027 22.807 14.2315 22.7975 14.2604C22.7878 14.3182 22.7975 14.2893 22.7686 14.3278C22.7782 14.3952 22.7686 14.4337 22.7589 14.4914C22.7589 14.5106 22.7493 14.5491 22.7493 14.5684C22.7397 14.6261 22.7493 14.5973 22.7204 14.6358L22.6627 15.0881C22.6242 15.2036 22.7012 14.9919 22.6531 15.117C22.6531 15.117 22.6434 15.1362 22.6434 15.1266C22.6434 15.1266 22.6434 15.1363 22.6338 15.1363C22.6434 15.194 22.6338 15.2421 22.6242 15.2999L22.5857 15.4442C22.6049 15.5213 22.5375 15.9255 22.499 15.9832C22.5087 16.0795 22.4413 16.5318 22.3932 16.5896C22.4028 16.6858 22.3547 17.0419 22.3065 17.0997C22.3162 17.1767 22.2969 17.3499 22.2584 17.4076C22.268 17.4943 22.2392 17.6001 22.2199 17.6964L22.1525 18.1199C22.1429 18.1873 22.1044 18.4567 22.0755 18.5145C22.0948 18.6107 22.0563 18.7359 22.037 18.8417C22.0178 18.938 22.0178 19.0727 21.9697 19.1401C21.9793 19.2267 21.9504 19.323 21.9408 19.4096C21.9311 19.4866 21.9216 19.6021 21.8831 19.6502C21.9023 19.7657 21.8349 20.0063 21.8157 20.1314C21.7964 20.2565 21.7964 20.4875 21.729 20.5741C21.7387 20.6703 21.6905 21.0264 21.6424 21.0842C21.652 21.1708 21.575 21.652 21.5365 21.7001C21.5462 21.8156 21.4788 22.1332 21.4595 22.268C21.4403 22.4124 21.4691 22.4316 21.3248 22.4412H3.23069V22.4316C2.6532 22.4316 2.07576 22.4316 1.50792 22.4412H0.478088C0.487692 22.3642 0.506941 22.2776 0.526234 22.1909L0.603232 21.6905C0.612835 21.652 0.632085 21.4787 0.651377 21.4595C0.651377 21.4018 0.718729 20.959 0.738022 20.9301C0.738022 20.8628 0.757228 20.7665 0.766875 20.7088C0.97862 19.4769 0.81502 20.5452 1.06526 18.9186L1.09412 18.9475L1.09403 18.9476ZM5.48276 20.6223H8.73585C9.74643 15.6464 11.0939 7.71585 11.9889 2.50903L8.76479 2.50899C8.80329 3.65428 5.63684 19.7657 5.49245 20.6319L5.4828 20.6223H5.48276ZM13.625 15.3577C13.5962 15.4251 13.5865 15.5502 13.5769 15.6368C13.5673 15.7234 13.5288 15.8293 13.5288 15.9256C13.5288 15.9833 13.4999 16.0603 13.4903 16.1181C13.4806 16.1854 13.4614 16.272 13.4518 16.349C13.4325 16.3779 13.3844 16.6762 13.3844 16.7436C13.3555 16.7821 13.2785 17.273 13.2785 17.3596L13.1727 17.8985C13.1534 18.0429 13.1053 18.1584 13.1245 18.3413C13.1534 18.63 13.4036 18.8129 13.7116 18.7648C13.9426 18.7262 13.9233 18.707 14.0773 18.6204C14.1351 18.5242 14.3661 18.3316 14.3468 18.1777C14.3853 18.1199 14.4527 17.6772 14.4623 17.6098C14.4912 17.4847 14.5682 17.0997 14.5586 17.0034L14.5682 16.9746C14.5682 16.9649 14.6452 16.7436 14.6259 16.6089L14.6548 16.5126C14.6644 16.4838 14.6644 16.4453 14.674 16.4068C14.6836 16.3394 14.7125 16.2624 14.6932 16.195C14.7029 16.1758 14.7029 16.195 14.7124 16.1565L14.7317 16.0699C14.7413 16.0025 14.7413 16.0025 14.7413 15.9448C14.7894 15.8871 14.8087 15.6272 14.8279 15.5309C14.8472 15.4058 14.9146 15.1363 14.9049 15.0305L14.9723 14.7417C14.9915 14.6358 15.0205 14.5299 15.0108 14.4337C15.0397 14.3952 15.0397 14.3375 15.03 14.2797C15.1167 14.145 14.9819 13.6253 14.9338 13.4809C14.8857 13.3462 14.6354 12.9419 14.5585 12.9034C14.5392 12.8553 14.3275 12.5666 14.2794 12.5377C14.2601 12.48 14.2794 12.5281 14.2409 12.48L13.9714 12.1431L13.904 12.0373C13.8174 11.9314 13.4132 11.402 13.3747 11.3924C13.3555 11.325 13.1918 11.1325 13.1341 11.0651C13.086 11.0074 12.9224 10.7764 12.8838 10.7572C12.8646 10.7187 12.6336 10.3915 12.5951 10.3722C12.5469 10.2567 12.4604 10.1508 12.393 10.0354C12.3641 9.98721 12.3256 9.91986 12.2967 9.85247C12.2775 9.80436 12.2486 9.70812 12.2197 9.66962C12.1812 9.44823 12.162 9.34237 12.1716 9.10178L12.2582 8.48583L12.4026 7.67735C12.4315 7.54265 12.5085 7.19615 12.4893 7.08066C12.5374 7.01326 12.5759 6.70531 12.5759 6.60902C12.6144 6.56088 12.6914 6.07003 12.6818 6.00268C12.7491 5.89679 12.778 5.44444 12.8261 5.28084C12.8453 5.14614 12.9224 4.84775 12.9128 4.7323C12.932 4.71309 12.9224 4.7323 12.932 4.6938L12.9705 4.5302C12.9897 4.4628 13.0186 4.3858 13.009 4.31845C13.0379 4.27995 13.0282 4.2992 13.0475 4.24141C13.0571 4.21256 13.0667 4.19331 13.0764 4.16441C13.0956 4.10671 13.1149 4.06821 13.1149 4.00081C13.163 3.95267 13.2207 3.78907 13.2496 3.71207L13.4036 3.42333C13.4517 3.39443 13.4998 3.31743 13.5383 3.26933C13.5865 3.20193 13.625 3.17308 13.6827 3.12494C13.7308 3.08644 14.0003 2.90359 14.0099 2.88434C14.0966 2.85548 14.1928 2.78813 14.289 2.74963C14.3853 2.71109 14.4719 2.67259 14.5778 2.64374C14.7992 2.57639 14.9916 2.54753 15.2322 2.52824C15.9156 2.50903 16.6182 2.52824 17.3111 2.52824C17.9752 2.52824 18.6008 2.58595 18.9569 2.97094C19.0339 3.04794 19.1975 3.26933 19.2456 3.40408C19.2841 3.51957 19.3323 3.60617 19.3611 3.73132C19.39 3.86602 19.3996 3.99117 19.3996 4.15477C19.3996 4.21251 19.39 4.31841 19.3804 4.39536C19.3708 4.47236 19.3516 4.56861 19.3516 4.65525C19.3419 4.7419 19.3131 4.84775 19.3034 4.93435C19.2938 5.0306 19.2745 5.16535 19.2457 5.24235C19.2457 5.3097 19.2168 5.41559 19.2072 5.49259C19.188 5.58879 19.1687 5.68509 19.159 5.77169C19.1494 5.80054 19.1109 6.02193 19.1109 6.06043C19.1013 6.12782 19.082 6.20478 19.0628 6.29138C19.0436 6.38763 19.0243 6.47427 19.0243 6.57048C18.9954 6.65712 18.9858 6.77262 18.9666 6.87847C18.9473 7.00357 18.9281 7.09986 18.9088 7.21532C18.9088 7.28271 18.8703 7.44627 18.8607 7.50406C18.8511 7.56181 18.8511 7.58106 18.8415 7.64846C18.8318 7.69656 18.8126 7.75431 18.8126 7.82166C18.803 7.88905 18.7837 7.97566 18.7645 8.05265C18.7452 8.1393 18.726 8.2355 18.726 8.3125C18.7163 8.37025 18.6971 8.44725 18.6778 8.52425L16.1081 8.53389C16.1081 8.35104 16.2236 8.0238 16.2139 7.85051C16.2621 7.79281 16.3102 7.42702 16.3006 7.34046C16.3198 7.31157 16.3102 7.34046 16.3198 7.29232L16.3968 6.78222C16.4545 6.71483 16.5027 6.16628 16.5412 6.04114C16.5604 5.90639 16.6182 5.70429 16.6086 5.57915C16.6471 5.52144 16.6471 5.37705 16.6759 5.3097L16.6856 5.21345L16.7144 5.08835C16.7915 4.713 16.6471 4.38576 16.2525 4.38576C15.9349 4.38576 15.6076 4.57826 15.5114 4.84775C15.4922 4.8959 15.4922 4.92475 15.4729 4.96325C15.4537 5.0595 15.4248 5.19424 15.4248 5.29049C15.4056 5.37713 15.3959 5.43484 15.3766 5.53109C15.3574 5.62734 15.3381 5.70433 15.3381 5.81019L15.2996 5.95454L15.2707 6.12778C15.2515 6.25288 15.2226 6.36838 15.213 6.48392C15.1842 6.50313 15.1938 6.56092 15.1842 6.60902C15.1745 6.67637 15.1649 6.69567 15.1553 6.75337C15.1456 6.84002 15.1071 6.96512 15.1071 7.05176C15.0879 7.12876 15.0783 7.19611 15.059 7.29236C15.0398 7.38856 15.0205 7.46561 15.0205 7.57146C14.9916 7.60996 14.9531 7.88905 14.9435 7.9853C14.9338 8.05265 14.9146 8.32215 14.9338 8.38954C14.9531 8.44725 14.9146 8.40875 14.9627 8.43769C14.9146 8.57239 15.0878 8.90928 15.1648 9.04403C15.213 9.12103 15.1552 9.07288 15.2322 9.11142C15.2226 9.15952 15.2226 9.12103 15.2322 9.15952C15.2322 9.17877 15.2514 9.19802 15.2611 9.21727L15.7231 9.84286C15.7616 9.87172 15.6942 9.84286 15.7616 9.87172C15.7616 9.92942 15.9925 10.199 16.0407 10.2375L16.3872 10.6417C16.3872 10.6513 16.3679 10.6513 16.416 10.7187L16.8491 11.2577L17.0897 11.5561C17.1571 11.6427 17.1282 11.6235 17.1859 11.6523C17.1956 11.71 17.3303 11.8737 17.3688 11.9411C17.4458 12.0566 17.5132 12.2202 17.5709 12.249C17.5517 12.3068 17.5613 12.2683 17.5901 12.3357C17.6094 12.3646 17.6094 12.3742 17.6286 12.4223L17.7537 12.7784C17.7923 12.9228 17.7634 12.9324 17.8115 12.9709C17.7633 13.0864 17.7923 13.2597 17.7923 13.3847C17.7826 13.4618 17.773 13.481 17.773 13.5773C17.7538 13.6061 17.6864 14.0777 17.6864 14.1547C17.6575 14.1836 17.6864 14.1451 17.6672 14.1933C17.6672 14.2029 17.6575 14.2606 17.6575 14.2606C17.6479 14.328 17.6383 14.3665 17.6383 14.4242C17.6191 14.4627 17.5517 14.8574 17.5517 14.9151C17.5325 14.9921 17.5132 15.1076 17.5035 15.2038C17.4939 15.3097 17.4554 15.4059 17.4554 15.531C17.4362 15.5503 17.4362 15.5984 17.4265 15.6369C17.4169 15.6946 17.4169 15.7236 17.4073 15.7716C17.3881 15.8679 17.3784 15.9738 17.3592 16.0604C17.3592 16.1566 17.311 16.2914 17.311 16.4069C17.2918 16.4358 17.2629 16.6283 17.2629 16.686C17.2437 16.8207 17.2052 16.9555 17.1955 17.0998C17.1763 17.148 17.1282 17.4367 17.1282 17.5137C17.0993 17.5329 17.0993 17.6099 17.0993 17.6484C17.0897 17.7158 17.08 17.7446 17.0704 17.812C17.0512 17.9275 17.0223 18.0526 17.0127 18.1681C16.9934 18.2163 16.9742 18.3221 16.9646 18.3799C16.9453 18.4472 16.9164 18.5531 16.9068 18.6301L16.7432 19.0921C16.6566 19.3038 16.5507 19.4289 16.5123 19.5252C16.493 19.5348 16.3775 19.6984 16.3487 19.7369C16.3102 19.7851 16.3005 19.7947 16.262 19.8428L16.1562 19.9583C16.0792 20.0642 15.7712 20.2856 15.6268 20.3433C15.5498 20.3722 15.4824 20.3914 15.4054 20.4395C15.3188 20.4492 14.9819 20.5646 14.674 20.5743L13.8174 20.5935C13.6538 20.5935 13.5479 20.6127 13.4036 20.6127L12.2871 20.6128C12.1813 20.6128 12.162 20.5936 12.0657 20.5936C12.0176 20.5936 11.8829 20.5647 11.8252 20.5551C11.7866 20.5455 11.7578 20.5455 11.7096 20.5358C11.6615 20.5262 11.6423 20.507 11.5845 20.507C11.2477 20.43 11.1514 20.3145 10.9782 20.1894C10.9493 20.1701 10.9685 20.1798 10.9493 20.1701C10.9204 20.122 10.9493 20.1605 10.9108 20.1124C10.9012 20.0932 10.8916 20.0932 10.8819 20.0739L10.5547 19.458C10.5451 19.3713 10.5162 19.2944 10.5066 19.2077C10.4969 19.1115 10.5162 19.0249 10.4969 18.9383C10.5258 18.8805 10.5643 18.4378 10.574 18.3319C10.5932 18.1779 10.6702 17.8603 10.6606 17.7352C10.6991 17.6774 10.7279 17.4753 10.7183 17.4079L10.7279 17.379C10.7279 17.379 10.8146 17.0615 10.7953 16.9363C10.8338 16.8882 10.93 16.3204 10.9204 16.2338L10.9589 16.0894C10.9685 16.022 10.9878 15.9836 10.9685 15.9258L10.9878 15.8681C10.9878 15.8585 10.9974 15.8199 10.9974 15.8104C11.007 15.7719 11.007 15.7334 11.0166 15.6948C11.0263 15.6178 11.0551 15.5312 11.0455 15.4542C11.0936 15.3869 11.1417 15.0693 11.1321 14.973C11.1706 14.9153 11.2476 14.3763 11.2669 14.2608C11.3246 14.2127 12.4796 14.2416 12.5469 14.2416H13.8559L13.7597 14.8094L13.7211 15.0308C13.7019 15.1367 13.6634 15.2425 13.6634 15.358H13.6249L13.625 15.3577Z" fill="white"/>
<path fill-rule="evenodd" clip-rule="evenodd" d="M32.7781 9.12127L32.8551 10.334C32.8647 10.4014 32.8647 10.4495 32.8647 10.5457C32.8647 10.642 32.884 10.6516 32.884 10.7478C32.884 11.0173 32.9321 11.2964 32.9321 11.5755L32.961 11.9702C32.9802 12.1145 32.9802 12.2493 32.9802 12.3937C32.9802 12.5092 33.0091 12.6728 33.0187 12.7883L33.0476 13.385C33.0476 13.4812 33.0668 13.5005 33.0668 13.5871L33.1149 14.4148C33.1149 14.511 33.1341 14.5206 33.1341 14.6169C33.1341 14.8575 33.163 14.973 33.163 15.2328L33.2015 15.6467L31.4884 15.6466L31.806 14.0105C31.8542 13.7314 31.9216 13.4715 31.9696 13.1924C31.9889 13.0577 32.0178 12.9325 32.0467 12.7881C32.0755 12.6438 32.1044 12.5187 32.1237 12.3743L32.4413 10.7382C32.499 10.4687 32.5375 10.1896 32.6049 9.92007L32.7204 9.31368C32.73 9.27519 32.73 9.26558 32.7396 9.20783L32.7685 9.10198L32.7781 9.12119L32.7781 9.12127ZM42.0561 11.9894H40.3911C40.3237 11.9894 40.3526 11.9316 40.3526 11.8546L40.5451 8.80368C40.5451 8.70743 40.5643 8.69783 40.5643 8.61118L40.622 7.591C40.6316 7.5236 40.6316 7.4659 40.6316 7.38886C40.6316 7.21565 40.6798 6.78252 40.6798 6.58042C40.6798 6.48421 40.699 6.46492 40.699 6.37832L40.7182 5.96447C40.7278 5.84898 40.7471 5.67573 40.7471 5.55063H42.5276C43.0185 5.55063 42.8741 5.91637 42.8741 6.30136L42.6527 9.74691C42.6527 9.82391 42.6623 9.89126 42.6527 9.9683C42.6046 10.4014 42.6046 10.9596 42.5565 11.3831C42.5276 11.643 42.6335 11.9798 42.056 11.9798V11.9895L42.0561 11.9894ZM30.4105 20.9594C30.449 20.7765 30.4875 20.5744 30.526 20.3915C30.5645 20.1894 30.603 20.0065 30.6415 19.8044C30.68 19.6119 30.7185 19.4195 30.757 19.2174C30.7955 19.0249 30.834 18.8228 30.8821 18.6399L33.423 18.6399C33.423 18.8035 33.4711 19.0634 33.4711 19.227C33.4807 19.5157 33.5288 19.814 33.5385 20.1028C33.5481 20.2953 33.5866 20.4974 33.5866 20.6995C33.5866 20.7861 33.577 20.9594 33.654 20.9594H39.727C39.804 20.9594 39.7752 20.8246 39.7944 20.6321C39.8136 20.3915 39.8136 20.1316 39.8425 19.891C39.8522 19.8333 39.8425 19.7659 39.8425 19.7082L39.9099 18.7746C39.9291 18.6014 39.9196 18.38 39.9484 18.2068C39.9773 18.0239 39.9676 17.8314 39.9869 17.6389C39.9966 17.5812 39.9869 17.5234 39.9966 17.456L40.0928 15.9642C40.0928 15.8872 40.0928 15.8391 40.1024 15.7621C40.1313 15.5504 40.1506 15.2136 40.1506 15.0018H40.5933C40.6606 15.0018 40.651 15.0885 40.6703 15.1462L41.1611 17.2058C41.2188 17.4464 41.2862 17.7255 41.3439 17.9661C41.5365 18.7168 41.7193 19.458 41.8829 20.2182L42.0177 20.7861C42.0369 20.8535 42.0273 20.9497 42.0947 20.9497H45.9156C45.9156 20.863 45.8482 20.6706 45.8194 20.5743L45.4248 19.1018C45.2707 18.4762 45.0783 17.8602 44.9243 17.2347C44.7703 16.6187 44.5778 15.9931 44.4334 15.3772C44.4045 15.2521 44.3564 15.1269 44.3276 15.0018C44.7992 15.0018 45.1553 14.8767 45.4151 14.665C45.8483 14.3185 46.1177 13.7891 46.1081 13.2021L46.3198 9.83351C46.3391 9.72766 46.3294 9.59291 46.3487 9.49666L46.3872 8.81328C46.3872 8.73628 46.3968 8.71708 46.4064 8.65929C46.4161 8.59193 46.4064 8.54379 46.4161 8.47644C46.4449 8.31284 46.4353 8.13959 46.445 7.97595L46.493 7.30225C46.5027 7.13861 46.5027 6.94612 46.5219 6.78252L46.5797 5.76233H47.7249C47.7249 6.07993 47.6768 6.38792 47.6768 6.70552L47.6094 7.6487C47.5902 7.8123 47.5998 7.9663 47.5902 8.1299L47.5228 9.07309C47.5228 9.24633 47.5132 9.40993 47.4939 9.55428L47.263 13.3463C47.2437 13.4811 47.2437 13.6832 47.2341 13.818C47.2341 13.9046 47.2149 13.9335 47.2149 14.0393L46.9069 19.0441C46.8973 19.1885 46.8684 19.3617 46.8684 19.5061L46.8107 20.4589C46.7914 20.6032 46.7818 20.7765 46.7818 20.9401H50.5546C50.6316 20.9401 50.6028 20.8342 50.6028 20.7476C50.6028 20.5936 50.6413 20.4396 50.6413 20.2664L50.7183 19.073C50.7375 18.9479 50.7472 18.7457 50.7472 18.6013C50.7472 18.5147 50.7664 18.4762 50.7664 18.3607C50.7664 18.2452 50.7856 18.2164 50.7856 18.1201C50.7856 17.995 50.7952 17.7737 50.8145 17.6485C50.8433 17.4849 50.8241 17.3213 50.8433 17.1576C50.853 17.0133 50.8722 16.8497 50.8722 16.6957L50.9107 16.2145C50.9107 16.1086 50.9204 16.0701 50.9299 15.9931L50.9684 15.252C50.9877 14.9729 51.0262 14.5879 51.0358 14.3088L51.084 13.3464C51.0936 13.202 51.1225 13.0384 51.1225 12.8844C51.1225 12.7208 51.1513 12.5572 51.161 12.4032C51.1706 12.0663 51.1995 11.7776 51.2091 11.4407L51.546 6.21463C51.5556 6.12799 51.5556 6.06064 51.5556 5.96439C51.5556 5.87774 51.5748 5.83929 51.5748 5.72379H54.0772C54.0098 5.44469 53.9616 5.15595 53.8943 4.8576L53.6344 3.55828C53.6055 3.40428 53.5767 3.26953 53.5478 3.11558C53.5189 2.98083 53.49 2.82684 53.4611 2.69209C53.4322 2.53809 53.3841 2.3937 53.3841 2.23975H46.4545C46.4449 2.30714 46.4256 2.35529 46.4064 2.41299C46.3486 2.57659 46.2716 2.75948 46.2331 2.92308H46.1946C46.1754 2.85569 46.108 2.80754 46.0599 2.75944C45.954 2.65359 45.8289 2.58624 45.7038 2.51884C45.3862 2.32635 44.8857 2.23975 44.4622 2.23975H37.2053C37.2053 2.49964 37.1668 2.70174 37.1668 2.94233C37.1668 3.01938 37.1572 3.04823 37.1572 3.09633C37.1475 3.16373 37.1572 3.22143 37.1475 3.27922C37.1379 3.37543 37.1283 3.52947 37.1187 3.62572C37.109 3.68342 37.1187 3.74121 37.1187 3.79892L37.0609 4.6844C37.0321 4.89614 37.0224 5.47363 37.0032 5.74308L36.9744 6.26282C36.9744 6.44567 36.9358 6.59967 36.9358 6.77287L36.83 8.35129C36.8204 8.64004 36.7723 8.93838 36.7818 9.22713C36.7818 9.51587 36.7433 9.81422 36.7337 10.103L36.599 12.1818C36.599 12.5957 36.5316 13.0192 36.5316 13.433H36.5124C36.5124 13.0865 36.3873 12.432 36.3584 12.0471L36.3295 11.8161C36.3199 11.7199 36.3199 11.6717 36.3103 11.5851L35.983 8.82293C35.8964 8.21654 35.8579 7.58135 35.7617 6.98462L35.7039 6.52267L35.2131 2.36489C35.1939 2.19164 35.1746 2.24939 34.8089 2.24939L31.19 2.24935L30.5356 4.95381C30.0255 6.98457 29.5539 9.02494 29.0438 11.0654C28.9861 11.2867 28.9283 11.5177 28.8802 11.7391L27.8118 16.1375L27.7252 16.4839L26.7339 20.555C26.7242 20.5839 26.6472 20.8919 26.6472 20.8919C26.6569 20.94 26.6472 20.9208 26.7049 20.9208H30.4104V20.9593L30.4105 20.9594Z" fill="white"/>
</g>
<defs>
<clipPath id="clip0_9_131">
<rect width="52.3379" height="21.6839" fill="white" transform="translate(0.478271 0.757324)"/>
</clipPath>
</defs>
</svg>
