<svg width="139" height="65" viewBox="0 0 139 65" fill="none" xmlns="http://www.w3.org/2000/svg">
<path d="M10.2273 49.4545V52.6363H3.94886V63.9999H0V49.4545H10.2273Z" fill="white"/>
<path d="M11.6992 63.9999V49.4545H17.9776C19.0572 49.4545 20.0018 49.6675 20.8114 50.0937C21.6211 50.5198 22.2508 51.1188 22.7006 51.8906C23.1504 52.6623 23.3754 53.5643 23.3754 54.5965C23.3754 55.6382 23.1433 56.5402 22.6793 57.3025C22.2201 58.0648 21.5737 58.6519 20.7404 59.0639C19.9118 59.4758 18.9435 59.6818 17.8356 59.6818H14.0856V56.6136H17.0401C17.5041 56.6136 17.8995 56.5331 18.2262 56.3721C18.5576 56.2064 18.811 55.972 18.9862 55.669C19.1661 55.3659 19.256 55.0085 19.256 54.5965C19.256 54.1799 19.1661 53.8247 18.9862 53.5312C18.811 53.2329 18.5576 53.0056 18.2262 52.8494C17.8995 52.6884 17.5041 52.6079 17.0401 52.6079H15.6481V63.9999H11.6992Z" fill="white"/>
<path d="M38.9151 56.7272C38.9151 58.3465 38.6003 59.7125 37.9705 60.8252C37.3408 61.9332 36.4909 62.7736 35.4208 63.3465C34.3507 63.9147 33.1576 64.1988 31.8413 64.1988C30.5155 64.1988 29.3176 63.9123 28.2475 63.3394C27.1822 62.7618 26.3346 61.919 25.7049 60.811C25.0799 59.6983 24.7674 58.3371 24.7674 56.7272C24.7674 55.1079 25.0799 53.7443 25.7049 52.6363C26.3346 51.5236 27.1822 50.6832 28.2475 50.115C29.3176 49.5421 30.5155 49.2556 31.8413 49.2556C33.1576 49.2556 34.3507 49.5421 35.4208 50.115C36.4909 50.6832 37.3408 51.5236 37.9705 52.6363C38.6003 53.7443 38.9151 55.1079 38.9151 56.7272ZM34.8526 56.7272C34.8526 55.856 34.7366 55.1221 34.5046 54.5255C34.2773 53.9242 33.9388 53.4696 33.489 53.1619C33.0439 52.8494 32.4947 52.6931 31.8413 52.6931C31.1879 52.6931 30.6362 52.8494 30.1864 53.1619C29.7414 53.4696 29.4028 53.9242 29.1708 54.5255C28.9435 55.1221 28.8299 55.856 28.8299 56.7272C28.8299 57.5984 28.9435 58.3347 29.1708 58.936C29.4028 59.5326 29.7414 59.9871 30.1864 60.2996C30.6362 60.6074 31.1879 60.7613 31.8413 60.7613C32.4947 60.7613 33.0439 60.6074 33.489 60.2996C33.9388 59.9871 34.2773 59.5326 34.5046 58.936C34.7366 58.3347 34.8526 57.5984 34.8526 56.7272Z" fill="white"/>
<path d="M54.3217 54.909H50.3161C50.2876 54.5776 50.2119 54.2769 50.0888 54.007C49.9704 53.7372 49.8047 53.5051 49.5916 53.311C49.3833 53.1121 49.13 52.9606 48.8317 52.8565C48.5334 52.7476 48.1948 52.6931 47.8161 52.6931C47.1532 52.6931 46.5921 52.8541 46.1328 53.1761C45.6783 53.498 45.3326 53.9597 45.0959 54.561C44.8639 55.1623 44.7479 55.8844 44.7479 56.7272C44.7479 57.6174 44.8662 58.3631 45.103 58.9644C45.3445 59.561 45.6925 60.0108 46.147 60.3139C46.6016 60.6122 47.1484 60.7613 47.7876 60.7613C48.1522 60.7613 48.4789 60.7163 48.7678 60.6264C49.0566 60.5317 49.3075 60.3967 49.5206 60.2215C49.7337 60.0463 49.9065 59.8356 50.0391 59.5894C50.1764 59.3385 50.2687 59.0568 50.3161 58.7443L54.3217 58.7727C54.2744 59.3882 54.1016 60.0156 53.8033 60.6548C53.505 61.2892 53.0812 61.8764 52.532 62.4161C51.9875 62.9512 51.3127 63.382 50.5078 63.7087C49.7029 64.0354 48.7678 64.1988 47.7024 64.1988C46.3672 64.1988 45.1693 63.9123 44.1087 63.3394C43.0528 62.7665 42.2171 61.9237 41.6016 60.811C40.9908 59.6983 40.6854 58.3371 40.6854 56.7272C40.6854 55.1079 40.9979 53.7443 41.6229 52.6363C42.2479 51.5236 43.0907 50.6832 44.1513 50.115C45.2119 49.5421 46.3956 49.2556 47.7024 49.2556C48.621 49.2556 49.4661 49.3811 50.2379 49.632C51.0097 49.883 51.6868 50.2499 52.2692 50.7329C52.8516 51.2111 53.3203 51.8006 53.6754 52.5014C54.0305 53.2021 54.246 54.0047 54.3217 54.909Z" fill="white"/>
<path d="M69.6928 54.909H65.6871C65.6587 54.5776 65.583 54.2769 65.4599 54.007C65.3415 53.7372 65.1758 53.5051 64.9627 53.311C64.7544 53.1121 64.5011 52.9606 64.2028 52.8565C63.9045 52.7476 63.5659 52.6931 63.1871 52.6931C62.5243 52.6931 61.9632 52.8541 61.5039 53.1761C61.0494 53.498 60.7037 53.9597 60.467 54.561C60.235 55.1623 60.119 55.8844 60.119 56.7272C60.119 57.6174 60.2373 58.3631 60.4741 58.9644C60.7156 59.561 61.0636 60.0108 61.5181 60.3139C61.9727 60.6122 62.5195 60.7613 63.1587 60.7613C63.5233 60.7613 63.85 60.7163 64.1388 60.6264C64.4277 60.5317 64.6786 60.3967 64.8917 60.2215C65.1048 60.0463 65.2776 59.8356 65.4102 59.5894C65.5475 59.3385 65.6398 59.0568 65.6871 58.7443L69.6928 58.7727C69.6455 59.3882 69.4727 60.0156 69.1744 60.6548C68.8761 61.2892 68.4523 61.8764 67.9031 62.4161C67.3585 62.9512 66.6838 63.382 65.8789 63.7087C65.074 64.0354 64.1388 64.1988 63.0735 64.1988C61.7383 64.1988 60.5404 63.9123 59.4798 63.3394C58.4239 62.7665 57.5882 61.9237 56.9727 60.811C56.3619 59.6983 56.0565 58.3371 56.0565 56.7272C56.0565 55.1079 56.369 53.7443 56.994 52.6363C57.619 51.5236 58.4618 50.6832 59.5224 50.115C60.583 49.5421 61.7667 49.2556 63.0735 49.2556C63.9921 49.2556 64.8372 49.3811 65.609 49.632C66.3808 49.883 67.0579 50.2499 67.6403 50.7329C68.2227 51.2111 68.6914 51.8006 69.0465 52.5014C69.4016 53.2021 69.6171 54.0047 69.6928 54.909Z" fill="white"/>
<path d="M92.8054 49.4545V63.9999H88.9134V52.5795H83.9986V63.9999H80.1065V49.4545H92.8054Z" fill="white"/>
<path d="M99.1104 63.9999H94.8491L99.6502 49.4545H105.048L109.849 63.9999H105.588L102.406 53.4602H102.292L99.1104 63.9999ZM98.315 58.2613H106.326V61.2158H98.315V58.2613Z" fill="white"/>
<path d="M111.25 63.9999V49.4545H117.528C118.608 49.4545 119.553 49.6675 120.362 50.0937C121.172 50.5198 121.802 51.1188 122.251 51.8906C122.701 52.6623 122.926 53.5643 122.926 54.5965C122.926 55.6382 122.694 56.5402 122.23 57.3025C121.771 58.0648 121.125 58.6519 120.291 59.0639C119.463 59.4758 118.494 59.6818 117.386 59.6818H113.636V56.6136H116.591C117.055 56.6136 117.45 56.5331 117.777 56.3721C118.108 56.2064 118.362 55.972 118.537 55.669C118.717 55.3659 118.807 55.0085 118.807 54.5965C118.807 54.1799 118.717 53.8247 118.537 53.5312C118.362 53.2329 118.108 53.0056 117.777 52.8494C117.45 52.6884 117.055 52.6079 116.591 52.6079H115.199V63.9999H111.25Z" fill="white"/>
<path d="M133.338 63.9999L128.878 58.1193H128.324V63.9999H124.375V49.4545H128.324V54.9374H128.835L133.011 49.4545H137.983L132.443 56.4431L138.295 63.9999H133.338Z" fill="white"/>
<path d="M84.0625 18C84.0625 9.71573 76.4513 3 67.0625 3C57.6737 3 50.0625 9.71573 50.0625 18" stroke="#035EA1" stroke-width="5"/>
<path d="M50.0625 26C50.0625 34.2843 57.6737 41 67.0625 41C76.4513 41 84.0625 34.2843 84.0625 26" stroke="#DA4525" stroke-width="5"/>
<path fill-rule="evenodd" clip-rule="evenodd" d="M57.8125 18L56.5625 14L55.0625 22H59.0625H90.5888L91.0625 18H57.8125Z" fill="#035EA1"/>
<path fill-rule="evenodd" clip-rule="evenodd" d="M76.3125 28L77.5625 32L79.0625 24L75.0625 24L43.5362 24L43.0625 28L76.3125 28Z" fill="#DA4525"/>
</svg>
