<svg width="139" height="65" viewBox="0 0 139 65" fill="none" xmlns="http://www.w3.org/2000/svg">
<path d="M10.2273 49.8551V53.0369H3.94886V64.4006H0V49.8551H10.2273Z" fill="#303030"/>
<path d="M11.6992 64.4006V49.8551H17.9776C19.0572 49.8551 20.0018 50.0682 20.8114 50.4943C21.6211 50.9205 22.2508 51.5194 22.7006 52.2912C23.1504 53.063 23.3754 53.965 23.3754 54.9972C23.3754 56.0388 23.1433 56.9408 22.6793 57.7031C22.2201 58.4654 21.5737 59.0526 20.7404 59.4645C19.9118 59.8764 18.9435 60.0824 17.8356 60.0824H14.0856V57.0142H17.0401C17.5041 57.0142 17.8995 56.9337 18.2262 56.7727C18.5576 56.607 18.811 56.3726 18.9862 56.0696C19.1661 55.7666 19.256 55.4091 19.256 54.9972C19.256 54.5805 19.1661 54.2254 18.9862 53.9318C18.811 53.6335 18.5576 53.4062 18.2262 53.25C17.8995 53.089 17.5041 53.0085 17.0401 53.0085H15.6481V64.4006H11.6992Z" fill="#303030"/>
<path d="M38.9151 57.1278C38.9151 58.7472 38.6003 60.1132 37.9705 61.2259C37.3408 62.3338 36.4909 63.1742 35.4208 63.7472C34.3507 64.3153 33.1576 64.5994 31.8413 64.5994C30.5155 64.5994 29.3176 64.313 28.2475 63.7401C27.1822 63.1624 26.3346 62.3196 25.7049 61.2116C25.0799 60.099 24.7674 58.7377 24.7674 57.1278C24.7674 55.5085 25.0799 54.1449 25.7049 53.0369C26.3346 51.9242 27.1822 51.0838 28.2475 50.5156C29.3176 49.9427 30.5155 49.6562 31.8413 49.6562C33.1576 49.6562 34.3507 49.9427 35.4208 50.5156C36.4909 51.0838 37.3408 51.9242 37.9705 53.0369C38.6003 54.1449 38.9151 55.5085 38.9151 57.1278ZM34.8526 57.1278C34.8526 56.2566 34.7366 55.5227 34.5046 54.9261C34.2773 54.3248 33.9388 53.8703 33.489 53.5625C33.0439 53.25 32.4947 53.0938 31.8413 53.0938C31.1879 53.0938 30.6362 53.25 30.1864 53.5625C29.7414 53.8703 29.4028 54.3248 29.1708 54.9261C28.9435 55.5227 28.8299 56.2566 28.8299 57.1278C28.8299 57.9991 28.9435 58.7353 29.1708 59.3366C29.4028 59.9332 29.7414 60.3878 30.1864 60.7003C30.6362 61.008 31.1879 61.1619 31.8413 61.1619C32.4947 61.1619 33.0439 61.008 33.489 60.7003C33.9388 60.3878 34.2773 59.9332 34.5046 59.3366C34.7366 58.7353 34.8526 57.9991 34.8526 57.1278Z" fill="#303030"/>
<path d="M54.3217 55.3097H50.3161C50.2876 54.9782 50.2119 54.6776 50.0888 54.4077C49.9704 54.1378 49.8047 53.9058 49.5916 53.7116C49.3833 53.5128 49.13 53.3613 48.8317 53.2571C48.5334 53.1482 48.1948 53.0938 47.8161 53.0938C47.1532 53.0938 46.5921 53.2547 46.1328 53.5767C45.6783 53.8987 45.3326 54.3603 45.0959 54.9616C44.8639 55.563 44.7479 56.285 44.7479 57.1278C44.7479 58.018 44.8662 58.7637 45.103 59.3651C45.3445 59.9616 45.6925 60.4115 46.147 60.7145C46.6016 61.0128 47.1484 61.1619 47.7876 61.1619C48.1522 61.1619 48.4789 61.117 48.7678 61.027C49.0566 60.9323 49.3075 60.7973 49.5206 60.6222C49.7337 60.447 49.9065 60.2363 50.0391 59.9901C50.1764 59.7391 50.2687 59.4574 50.3161 59.1449L54.3217 59.1733C54.2744 59.7888 54.1016 60.4162 53.8033 61.0554C53.505 61.6899 53.0812 62.277 52.532 62.8168C51.9875 63.3518 51.3127 63.7827 50.5078 64.1094C49.7029 64.4361 48.7678 64.5994 47.7024 64.5994C46.3672 64.5994 45.1693 64.313 44.1087 63.7401C43.0528 63.1671 42.2171 62.3243 41.6016 61.2116C40.9908 60.099 40.6854 58.7377 40.6854 57.1278C40.6854 55.5085 40.9979 54.1449 41.6229 53.0369C42.2479 51.9242 43.0907 51.0838 44.1513 50.5156C45.2119 49.9427 46.3956 49.6562 47.7024 49.6562C48.621 49.6562 49.4661 49.7817 50.2379 50.0327C51.0097 50.2836 51.6868 50.6506 52.2692 51.1335C52.8516 51.6117 53.3203 52.2012 53.6754 52.902C54.0305 53.6027 54.246 54.4053 54.3217 55.3097Z" fill="#303030"/>
<path d="M69.6928 55.3097H65.6871C65.6587 54.9782 65.583 54.6776 65.4599 54.4077C65.3415 54.1378 65.1758 53.9058 64.9627 53.7116C64.7544 53.5128 64.5011 53.3613 64.2028 53.2571C63.9045 53.1482 63.5659 53.0938 63.1871 53.0938C62.5243 53.0938 61.9632 53.2547 61.5039 53.5767C61.0494 53.8987 60.7037 54.3603 60.467 54.9616C60.235 55.563 60.119 56.285 60.119 57.1278C60.119 58.018 60.2373 58.7637 60.4741 59.3651C60.7156 59.9616 61.0636 60.4115 61.5181 60.7145C61.9727 61.0128 62.5195 61.1619 63.1587 61.1619C63.5233 61.1619 63.85 61.117 64.1388 61.027C64.4277 60.9323 64.6786 60.7973 64.8917 60.6222C65.1048 60.447 65.2776 60.2363 65.4102 59.9901C65.5475 59.7391 65.6398 59.4574 65.6871 59.1449L69.6928 59.1733C69.6455 59.7888 69.4727 60.4162 69.1744 61.0554C68.8761 61.6899 68.4523 62.277 67.9031 62.8168C67.3585 63.3518 66.6838 63.7827 65.8789 64.1094C65.074 64.4361 64.1388 64.5994 63.0735 64.5994C61.7383 64.5994 60.5404 64.313 59.4798 63.7401C58.4239 63.1671 57.5882 62.3243 56.9727 61.2116C56.3619 60.099 56.0565 58.7377 56.0565 57.1278C56.0565 55.5085 56.369 54.1449 56.994 53.0369C57.619 51.9242 58.4618 51.0838 59.5224 50.5156C60.583 49.9427 61.7667 49.6562 63.0735 49.6562C63.9921 49.6562 64.8372 49.7817 65.609 50.0327C66.3808 50.2836 67.0579 50.6506 67.6403 51.1335C68.2227 51.6117 68.6914 52.2012 69.0465 52.902C69.4016 53.6027 69.6171 54.4053 69.6928 55.3097Z" fill="#303030"/>
<path d="M92.8054 49.8551V64.4006H88.9134V52.9801H83.9986V64.4006H80.1065V49.8551H92.8054Z" fill="#303030"/>
<path d="M99.1104 64.4006H94.8491L99.6502 49.8551H105.048L109.849 64.4006H105.588L102.406 53.8608H102.292L99.1104 64.4006ZM98.315 58.6619H106.326V61.6165H98.315V58.6619Z" fill="#303030"/>
<path d="M111.25 64.4006V49.8551H117.528C118.608 49.8551 119.553 50.0682 120.362 50.4943C121.172 50.9205 121.802 51.5194 122.251 52.2912C122.701 53.063 122.926 53.965 122.926 54.9972C122.926 56.0388 122.694 56.9408 122.23 57.7031C121.771 58.4654 121.125 59.0526 120.291 59.4645C119.463 59.8764 118.494 60.0824 117.386 60.0824H113.636V57.0142H116.591C117.055 57.0142 117.45 56.9337 117.777 56.7727C118.108 56.607 118.362 56.3726 118.537 56.0696C118.717 55.7666 118.807 55.4091 118.807 54.9972C118.807 54.5805 118.717 54.2254 118.537 53.9318C118.362 53.6335 118.108 53.4062 117.777 53.25C117.45 53.089 117.055 53.0085 116.591 53.0085H115.199V64.4006H111.25Z" fill="#303030"/>
<path d="M133.338 64.4006L128.878 58.5199H128.324V64.4006H124.375V49.8551H128.324V55.3381H128.835L133.011 49.8551H137.983L132.443 56.8438L138.295 64.4006H133.338Z" fill="#303030"/>
<path d="M84.0625 18.4006C84.0625 10.1164 76.4513 3.40063 67.0625 3.40063C57.6737 3.40063 50.0625 10.1164 50.0625 18.4006" stroke="#035EA1" stroke-width="5"/>
<path d="M50.0625 26.4006C50.0625 34.6849 57.6737 41.4006 67.0625 41.4006C76.4513 41.4006 84.0625 34.6849 84.0625 26.4006" stroke="#DA4525" stroke-width="5"/>
<path fill-rule="evenodd" clip-rule="evenodd" d="M57.8125 18.4006L56.5625 14.4006L55.0625 22.4006H59.0625H90.5888L91.0625 18.4006H57.8125Z" fill="#035EA1"/>
<path fill-rule="evenodd" clip-rule="evenodd" d="M76.3125 28.4006L77.5625 32.4006L79.0625 24.4006L75.0625 24.4006L43.5362 24.4006L43.0625 28.4006L76.3125 28.4006Z" fill="#DA4525"/>
</svg>
