<svg width="24" height="25" viewBox="0 0 24 25" fill="none" xmlns="http://www.w3.org/2000/svg">
<g clip-path="url(#clip0_3_557)">
<path d="M20.5025 3.50962C19.3968 2.39275 18.0798 1.50721 16.6283 0.904656C15.1768 0.302103 13.6198 -0.00540315 12.0482 7.18427e-05C5.46332 7.18427e-05 0.0964826 5.3669 0.0964826 11.9518C0.0964826 14.0624 0.651256 16.1126 1.68844 17.9217L0 24.1207L6.33166 22.4563C8.0804 23.4091 10.0462 23.9156 12.0482 23.9156C18.6332 23.9156 24 18.5488 24 11.9639C24 8.76791 22.7578 5.76489 20.5025 3.50962ZM12.0482 21.8895C10.2633 21.8895 8.51457 21.4071 6.98291 20.5026L6.6211 20.2855L2.85829 21.2744L3.8593 17.6081L3.61809 17.2342C2.62643 15.6507 2.09987 13.8203 2.09849 11.9518C2.09849 6.47645 6.5608 2.01414 12.0362 2.01414C14.6894 2.01414 17.1859 3.05133 19.0553 4.93273C19.9809 5.8541 20.7144 6.95001 21.2133 8.15696C21.7123 9.36391 21.9667 10.6579 21.9618 11.9639C21.9859 17.4393 17.5236 21.8895 12.0482 21.8895ZM17.4995 14.4604C17.198 14.3156 15.7266 13.592 15.4613 13.4835C15.1839 13.387 14.991 13.3388 14.7859 13.6282C14.5809 13.9297 14.0141 14.6051 13.8452 14.7981C13.6764 15.0031 13.4955 15.0272 13.194 14.8704C12.8925 14.7257 11.9276 14.4001 10.794 13.387C9.90151 12.591 9.31055 11.6141 9.12965 11.3126C8.9608 11.0111 9.10553 10.8543 9.26231 10.6976C9.39497 10.5649 9.56382 10.3478 9.70854 10.179C9.85327 10.0101 9.91357 9.87746 10.01 9.68449C10.1065 9.47947 10.0583 9.31062 9.98593 9.1659C9.91357 9.02118 9.31055 7.54982 9.06935 6.9468C8.82814 6.36791 8.57487 6.44027 8.39397 6.42821H7.81507C7.61005 6.42821 7.29648 6.50057 7.01909 6.80208C6.75377 7.10359 5.98191 7.82721 5.98191 9.29856C5.98191 10.7699 7.05528 12.193 7.2 12.386C7.34472 12.591 9.31055 15.6061 12.3015 16.8966C13.0131 17.2101 13.5678 17.391 14.002 17.5237C14.7136 17.7528 15.3648 17.7166 15.8834 17.6443C16.4623 17.5599 17.6563 16.9207 17.8975 16.2212C18.1508 15.5217 18.1508 14.9307 18.0663 14.7981C17.9819 14.6654 17.801 14.6051 17.4995 14.4604Z" fill="white"/>
</g>
<defs>
<clipPath id="clip0_3_557">
<rect width="24" height="25" fill="white"/>
</clipPath>
</defs>
</svg>
