<svg width="40" height="40" viewBox="0 0 40 40" fill="none" xmlns="http://www.w3.org/2000/svg">
<g clip-path="url(#clip0_201_637)">
<circle cx="20.5" cy="19.5" r="10.5" fill="black"/>
<path d="M34.25 9.09875C34.3533 9.22846 34.5038 9.31183 34.6686 9.33052C34.8333 9.34922 34.9987 9.30171 35.1284 9.19844C35.2581 9.09517 35.3415 8.9446 35.3602 8.77987C35.3789 8.61513 35.3314 8.44971 35.2281 8.32C34.8281 7.82 34.3975 7.32813 33.95 6.86688C33.8345 6.74794 33.6764 6.67978 33.5106 6.67737C33.3448 6.67497 33.1849 6.73853 33.0659 6.85406C32.947 6.9696 32.8788 7.12765 32.8764 7.29344C32.874 7.45923 32.9376 7.61919 33.0531 7.73812C33.4737 8.16937 33.875 8.625 34.25 9.09875ZM31.7281 6.50312C31.8548 6.61004 32.0189 6.66224 32.1841 6.64823C32.3493 6.63422 32.5021 6.55516 32.6091 6.42844C32.716 6.30171 32.7682 6.13771 32.7542 5.9725C32.7402 5.80729 32.6611 5.65442 32.5344 5.5475C32.0403 5.13148 31.5259 4.74017 30.9931 4.375C30.8563 4.28376 30.6891 4.2501 30.5276 4.28132C30.3662 4.31254 30.2236 4.40613 30.1307 4.5418C30.0377 4.67747 30.002 4.84429 30.0313 5.0061C30.0605 5.16791 30.1524 5.31168 30.2869 5.40625C30.7844 5.75 31.2694 6.11625 31.7281 6.50312ZM23.6569 2.6025C24.2488 2.72154 24.8344 2.87048 25.4113 3.04875C25.4719 3.06799 25.5351 3.07769 25.5988 3.0775C25.7488 3.07851 25.8942 3.02549 26.0084 2.92814C26.1226 2.83078 26.198 2.69559 26.2207 2.54727C26.2435 2.39894 26.2121 2.24738 26.1323 2.12027C26.0526 1.99317 25.9297 1.89901 25.7862 1.855C25.1697 1.66421 24.5439 1.50464 23.9112 1.37688C23.7487 1.34422 23.5799 1.37747 23.4419 1.4693C23.3038 1.56114 23.208 1.70403 23.1753 1.86656C23.1427 2.02909 23.1759 2.19793 23.2677 2.33595C23.3596 2.47396 23.5025 2.56985 23.665 2.6025H23.6569ZM35.3063 10.5712C35.6333 11.0789 35.9348 11.6027 36.2094 12.1406C36.2456 12.2155 36.2965 12.2824 36.3589 12.3373C36.4213 12.3923 36.4941 12.4342 36.5729 12.4607C36.6518 12.4872 36.7351 12.4977 36.8181 12.4915C36.901 12.4854 36.9819 12.4627 37.056 12.4249C37.1301 12.3871 37.1959 12.3349 37.2495 12.2713C37.3032 12.2077 37.3436 12.1341 37.3684 12.0547C37.3932 11.9753 37.402 11.8918 37.3941 11.809C37.3862 11.7262 37.3619 11.6458 37.3225 11.5725C37.029 10.9974 36.7069 10.4373 36.3575 9.89437C36.3131 9.82535 36.2555 9.76575 36.188 9.71899C36.1205 9.67222 36.0445 9.63921 35.9642 9.62183C35.884 9.60445 35.8011 9.60304 35.7203 9.61768C35.6396 9.63233 35.5625 9.66274 35.4934 9.70719C35.4244 9.75163 35.3648 9.80924 35.3181 9.87671C35.2713 9.94419 35.2383 10.0202 35.2209 10.1005C35.2035 10.1807 35.2021 10.2636 35.2167 10.3443C35.2314 10.4251 35.2618 10.5022 35.3063 10.5712ZM36.9513 13.7931C37.1694 14.3556 37.3619 14.9325 37.5225 15.5113C37.559 15.6429 37.6376 15.759 37.7463 15.8417C37.855 15.9244 37.9878 15.9693 38.1244 15.9694C38.2208 15.9694 38.3159 15.9472 38.4023 15.9044C38.4886 15.8616 38.5639 15.7994 38.6223 15.7226C38.6806 15.6459 38.7204 15.5567 38.7386 15.462C38.7567 15.3673 38.7527 15.2697 38.7269 15.1769C38.554 14.5545 38.35 13.9413 38.1156 13.3394C38.0872 13.2611 38.0434 13.1893 37.9868 13.1281C37.9302 13.067 37.862 13.0178 37.7861 12.9834C37.7102 12.9491 37.6283 12.9302 37.545 12.928C37.4617 12.9257 37.3788 12.9401 37.3012 12.9704C37.2236 13.0006 37.1528 13.0461 37.093 13.1041C37.0332 13.1621 36.9856 13.2314 36.953 13.3081C36.9204 13.3847 36.9035 13.4671 36.9032 13.5504C36.9029 13.6337 36.9192 13.7162 36.9513 13.7931ZM27.1125 3.67C27.6688 3.90537 28.2131 4.16841 28.7431 4.45812C28.8348 4.50871 28.9378 4.53517 29.0425 4.535C29.1814 4.53521 29.3163 4.48917 29.4261 4.40414C29.5359 4.31912 29.6143 4.19995 29.6488 4.06545C29.6833 3.93095 29.6721 3.78878 29.6169 3.66138C29.5616 3.53398 29.4655 3.4286 29.3438 3.36188C28.7812 3.05313 28.1931 2.77 27.5994 2.51875C27.447 2.45554 27.2757 2.45517 27.123 2.51772C26.9703 2.58027 26.8486 2.70066 26.7843 2.85263C26.72 3.0046 26.7185 3.17583 26.78 3.32895C26.8414 3.48207 26.961 3.60467 27.1125 3.67ZM1.875 20C1.88046 15.1946 3.7918 10.5876 7.18972 7.18972C10.5876 3.7918 15.1946 1.88046 20 1.875C20.1658 1.875 20.3247 1.80915 20.4419 1.69194C20.5592 1.57473 20.625 1.41576 20.625 1.25C20.625 1.08424 20.5592 0.925268 20.4419 0.808058C20.3247 0.690848 20.1658 0.625 20 0.625C14.8632 0.630625 9.93832 2.67372 6.30602 6.30602C2.67372 9.93832 0.630625 14.8632 0.625 20C0.625 20.1658 0.690848 20.3247 0.808058 20.4419C0.925268 20.5592 1.08424 20.625 1.25 20.625C1.41576 20.625 1.57473 20.5592 1.69194 20.4419C1.80915 20.3247 1.875 20.1658 1.875 20Z" fill="#FFB800"/>
<path d="M20.0001 5.625C17.1569 5.625 14.3777 6.46808 12.0137 8.04762C9.64977 9.62717 7.80729 11.8722 6.71928 14.4989C5.63127 17.1256 5.3466 20.0159 5.90126 22.8044C6.45593 25.5929 7.82501 28.1543 9.83539 30.1647C11.8458 32.175 14.4072 33.5441 17.1956 34.0988C19.9841 34.6534 22.8744 34.3688 25.5011 33.2808C28.1278 32.1928 30.3729 30.3503 31.9524 27.9863C33.532 25.6224 34.3751 22.8431 34.3751 20C34.3708 16.1888 32.8549 12.535 30.16 9.84009C27.4651 7.14519 23.8112 5.6293 20.0001 5.625ZM22.5001 26.25H14.3751C14.2093 26.25 14.0503 26.1842 13.9331 26.0669C13.8159 25.9497 13.7501 25.7908 13.7501 25.625C13.7501 25.4592 13.8159 25.3003 13.9331 25.1831C14.0503 25.0658 14.2093 25 14.3751 25H22.5001C23.4946 25 24.4484 24.6049 25.1517 23.9016C25.855 23.1984 26.2501 22.2446 26.2501 21.25C26.2501 20.2554 25.855 19.3016 25.1517 18.5983C24.4484 17.8951 23.4946 17.5 22.5001 17.5H14.6338L16.0669 18.9331C16.1266 18.9908 16.1742 19.0597 16.207 19.136C16.2397 19.2122 16.257 19.2943 16.2577 19.3772C16.2584 19.4602 16.2426 19.5425 16.2112 19.6193C16.1798 19.6962 16.1334 19.7659 16.0747 19.8246C16.016 19.8833 15.9462 19.9297 15.8694 19.9611C15.7926 19.9926 15.7103 20.0084 15.6273 20.0077C15.5443 20.0069 15.4623 19.9897 15.386 19.9569C15.3098 19.9242 15.2408 19.8766 15.1832 19.8169L12.6832 17.3169C12.566 17.1997 12.5002 17.0407 12.5002 16.875C12.5002 16.7093 12.566 16.5503 12.6832 16.4331L15.1832 13.9331C15.3011 13.8193 15.4589 13.7563 15.6228 13.7577C15.7867 13.7591 15.9434 13.8249 16.0593 13.9407C16.1752 14.0566 16.2409 14.2134 16.2423 14.3772C16.2438 14.5411 16.1808 14.699 16.0669 14.8169L14.6338 16.25H22.5001C23.8261 16.25 25.0979 16.7768 26.0356 17.7145C26.9733 18.6521 27.5001 19.9239 27.5001 21.25C27.5001 22.5761 26.9733 23.8478 26.0356 24.7855C25.0979 25.7232 23.8261 26.25 22.5001 26.25ZM5.86068 31.6412C5.75665 31.5141 5.60675 31.433 5.44341 31.4156C5.28006 31.3981 5.1164 31.4456 4.98784 31.5479C4.85928 31.6502 4.77616 31.7989 4.75645 31.962C4.73675 32.1251 4.78205 32.2894 4.88255 32.4194C5.28421 32.9256 5.711 33.4115 6.1613 33.875C6.27733 33.9938 6.43583 34.0617 6.60191 34.0637C6.768 34.0657 6.92808 34.0017 7.04693 33.8856C7.16578 33.7696 7.23367 33.6111 7.23566 33.445C7.23765 33.2789 7.17358 33.1188 7.05755 33C6.63612 32.5674 6.23666 32.1139 5.86068 31.6412ZM13.0001 37.07C12.4434 36.8347 11.8989 36.5714 11.3688 36.2812C11.2967 36.2397 11.217 36.213 11.1344 36.2027C11.0519 36.1924 10.9681 36.1986 10.8879 36.2211C10.8078 36.2436 10.733 36.2819 10.6679 36.3337C10.6027 36.3855 10.5486 36.4498 10.5086 36.5228C10.4687 36.5958 10.4437 36.676 10.4352 36.7588C10.4267 36.8416 10.4348 36.9252 10.459 37.0049C10.4832 37.0845 10.5231 37.1584 10.5763 37.2224C10.6295 37.2864 10.695 37.3391 10.7688 37.3775C11.3313 37.6862 11.9194 37.97 12.5126 38.2212C12.665 38.2845 12.8362 38.2848 12.9889 38.2223C13.1416 38.1597 13.2633 38.0393 13.3276 37.8874C13.3919 37.7354 13.3934 37.5642 13.332 37.411C13.2705 37.2579 13.1516 37.1353 13.0001 37.07ZM16.4551 38.1375C15.8634 38.0179 15.278 37.8688 14.7013 37.6906C14.6224 37.6645 14.5392 37.6544 14.4563 37.6609C14.3735 37.6674 14.2928 37.6903 14.219 37.7283C14.1451 37.7663 14.0795 37.8187 14.0262 37.8823C13.9728 37.946 13.9326 38.0196 13.908 38.099C13.8834 38.1783 13.8749 38.2618 13.8829 38.3444C13.891 38.4271 13.9154 38.5074 13.9548 38.5805C13.9942 38.6536 14.0478 38.7182 14.1125 38.7703C14.1771 38.8225 14.2515 38.8613 14.3313 38.8844C14.9478 39.0754 15.5736 39.235 16.2063 39.3625C16.2474 39.371 16.2893 39.3752 16.3313 39.375C16.4863 39.3752 16.6358 39.3177 16.7508 39.2138C16.8659 39.1099 16.9382 38.967 16.9538 38.8128C16.9693 38.6586 16.9271 38.5041 16.8351 38.3793C16.7432 38.2545 16.6082 38.1683 16.4563 38.1375H16.4551ZM8.3838 34.2362C8.25699 34.1294 8.09294 34.0773 7.92774 34.0915C7.76253 34.1056 7.6097 34.1848 7.50286 34.3116C7.39603 34.4384 7.34395 34.6024 7.35807 34.7676C7.3722 34.9328 7.45137 35.0857 7.57818 35.1925C8.07206 35.6085 8.58623 35.9998 9.1188 36.365C9.25564 36.4587 9.42407 36.4941 9.58705 36.4636C9.75003 36.433 9.89421 36.339 9.98786 36.2022C10.0815 36.0653 10.117 35.8969 10.0864 35.7339C10.0559 35.571 9.96189 35.4268 9.82505 35.3331C9.32654 34.9919 8.84551 34.6258 8.3838 34.2362ZM3.16068 26.9469C2.94255 26.3844 2.75005 25.8075 2.58943 25.2281C2.56816 25.1483 2.53128 25.0734 2.4809 25.0079C2.43053 24.9424 2.36767 24.8876 2.29595 24.8465C2.22424 24.8055 2.14509 24.7791 2.0631 24.7688C1.98111 24.7585 1.8979 24.7646 1.81828 24.7867C1.73866 24.8088 1.66421 24.8465 1.59925 24.8976C1.53428 24.9486 1.48009 25.0121 1.4398 25.0842C1.39951 25.1564 1.37392 25.2358 1.36453 25.3179C1.35513 25.4 1.36211 25.4831 1.38505 25.5625C1.55782 26.1849 1.76183 26.7981 1.9963 27.4C2.0419 27.5174 2.12192 27.6183 2.22587 27.6895C2.32981 27.7606 2.45283 27.7987 2.5788 27.7987C2.68042 27.7987 2.78049 27.7738 2.87033 27.7263C2.96018 27.6789 3.03709 27.6102 3.0944 27.5263C3.15172 27.4424 3.18771 27.3457 3.19926 27.2448C3.21081 27.1438 3.19756 27.0416 3.16068 26.9469ZM4.80568 30.1687C4.47882 29.6609 4.1774 29.1371 3.90255 28.5994C3.82519 28.4553 3.69448 28.3474 3.53843 28.2986C3.38239 28.2498 3.21344 28.2641 3.06782 28.3384C2.9222 28.4127 2.8115 28.5412 2.75946 28.6962C2.70741 28.8511 2.71817 29.0203 2.78943 29.1675C3.08304 29.7427 3.40532 30.3027 3.75505 30.8456C3.79874 30.9162 3.85606 30.9775 3.92367 31.0257C3.99127 31.0739 4.06781 31.1082 4.14881 31.1265C4.22981 31.1448 4.31365 31.1467 4.39542 31.1323C4.4772 31.1178 4.55527 31.0872 4.62508 31.0422C4.69489 30.9973 4.75503 30.9388 4.802 30.8703C4.84897 30.8019 4.88182 30.7247 4.89864 30.6434C4.91545 30.5621 4.91589 30.4782 4.89993 30.3967C4.88397 30.3152 4.85193 30.2377 4.80568 30.1687Z" fill="#FFB800"/>
<path d="M38.75 19.375C38.5842 19.375 38.4253 19.4408 38.3081 19.5581C38.1908 19.6753 38.125 19.8342 38.125 20C38.1194 24.8053 36.208 29.4122 32.8101 32.8101C29.4122 36.208 24.8053 38.1194 20 38.125C19.8342 38.125 19.6753 38.1908 19.5581 38.3081C19.4408 38.4253 19.375 38.5842 19.375 38.75C19.375 38.9158 19.4408 39.0747 19.5581 39.1919C19.6753 39.3092 19.8342 39.375 20 39.375C25.1368 39.3694 30.0617 37.3263 33.694 33.694C37.3263 30.0617 39.3694 25.1368 39.375 20C39.375 19.8342 39.3092 19.6753 39.1919 19.5581C39.0747 19.4408 38.9158 19.375 38.75 19.375Z" fill="#FFB800"/>
</g>
<defs>
<clipPath id="clip0_201_637">
<rect width="40" height="40" fill="white"/>
</clipPath>
</defs>
</svg>
